M48
;Layer_Color=9474304
;FILE_FORMAT=2:5
INCH,LZ
;TYPE=PLATED
T1F00S00C0.01000
T2F00S00C0.03543
T3F00S00C0.05906
;TYPE=NON_PLATED
T4F00S00C0.02165
T5F00S00C0.12598
%
T01
X0114567Y0107283
X0122441
X0130315
X0138189
X0146063
X0153937
X0136063Y0137008
X0105118Y0140354
Y0148228
Y0156102
Y013248
Y0124606
Y0116732
X0161811Y0107283
X0169685
X0177559
X0185433
X0193307
X0201181
X0209055
X0216929
X0224803
X0232677
X0240551
X0248425
X0256299
X0264173
X0272047
X0279921
X0287795
X0295669
X0303543
X029252Y0152559
X0274606
X0219291Y0148031
X0206024Y0123425
X0165945Y012252
X0320866Y0110827
X032874
X0336614
X0344488
X0352362
X0357992Y0119724
X0361929Y0119724
X0356102Y0125984
X0351378
X034685
X0338976Y0126575
X0336417
X0335433Y0136221
X0341929
X0348425
X0355118
X0353937Y0151969
X0367323
X0380512
X0397638Y015
X0402559Y0145472
X0407874Y015
Y0140157
X041752Y0138976
X0425394
Y0131102
Y0123228
X0433268
Y0131102
Y0138976
X0441142
Y0131102
Y0123228
X0458661Y0124606
Y013248
Y0140354
Y0148228
Y0156103
X0441142Y0154724
Y014685
X0433268Y0154724
X0425394
X041752
Y014685
Y0131102
Y0123228
X0412598Y0114961
Y0108268
X0406693Y0128937
X0401378Y0124803
X0393701
Y0134646
Y0137008
X0396457
Y0134646
X0386614Y0119724
X0382677Y0119724
X037874Y0119724
X0374803Y0119724
X0372441Y0130945
X032874Y0136221
X0325394Y0151969
X0312795Y0152559
X0339173Y0151969
X0445276Y0107283
X0458661Y0116732
Y0163977
Y0171851
Y0179725
Y0187599
Y0195473
Y0203347
Y0211221
Y0219095
Y0226969
Y0234843
Y0242717
Y0250591
Y0258465
Y0266339
Y0274213
Y0282087
Y0289961
Y0297835
Y0305709
X0441535Y0302756
Y0294882
Y0287008
X0442047Y0279173
X0445984Y0279173
X0445984Y0275236
X0445984Y0271299
X0445984Y0267362
X0445984Y0263425
X0445984Y0259488
X0445984Y0255551
X0445984Y0251614
X0445984Y0247677
X0445984Y024374
X0442047Y024374
X0442047Y0247677
X0442047Y0251614
X0442047Y0255551
X0442047Y0259488
X0442047Y0263425
X0442047Y0267362
X0442047Y0271299
X0442047Y0275236
X0415748Y027185
Y0263976
Y0256102
Y0248228
Y0240354
Y023248
Y0224606
X0422547Y0230709
X0427165Y0237598
X0435039
X0442913
Y0229724
Y022185
X0435039
X0427165
X0425394Y0218543
X0425394Y0214606
X0429331Y0214606
X0429331Y0210669
X0429331Y0206732
X0429331Y0202795
X0429331Y0198858
X0429331Y0194921
X0429331Y0190984
X0429331Y0187047
X0429331Y018311
X0429331Y0179173
X0425394Y0179173
X0425394Y0175236
X0425394Y018311
X0425394Y0187047
X0425394Y0190984
X0425394Y0194921
X0425394Y0198858
X0425394Y0202795
X0425394Y0206732
X0425394Y0210669
X0409449Y019626
Y0189567
X0405315Y018937
X0401378Y019685
X0396654
Y0201575
X0401378
X0386811Y0202559
Y0197835
X0385827Y0216811
X0389764Y0216811
X038189Y0216811
X037559Y0217323
Y0225197
X0383465
X0391339
Y0233071
X0383465
X0382362Y0238228
X0382362Y0242165
X0378425Y0242165
X0374488Y0242165
X0374488Y0246102
X0374488Y0250039
X0374488Y0253976
X0374488Y0257913
X0374488Y026185
X0374488Y0265787
X0374488Y0269724
X0384055Y0270433
X0387992Y0270433
X0391929Y0270433
X0391929Y027437
X0387992Y027437
X0384055Y027437
X0380118Y027437
X0377756Y028189
Y0287087
Y0291339
Y029748
X0375945Y0301417
X0381693Y0301417
X0386811Y0295748
X0387402Y028937
X0391929Y0289449
X039626Y0287598
X0415748Y0287205
X0415748Y0279724
X0415748Y0295079
Y0302953
Y0310827
X0405709
Y0302953
X0397835Y0310827
X0425787Y031063
Y0302756
X0433661
Y031063
X0441535
X0405118Y0268504
Y0265551
X0401968
Y0268504
X0404921Y025315
Y0245276
Y0237402
Y0229528
Y0221654
X0397047
Y0229528
Y0237402
Y0245276
Y025315
X0378425Y0238228
X0374488Y0238228
X037559Y0233071
X0367717
X0361417
Y0225197
X0367717
Y0217323
X0361417
X0362008Y0196024
X0362008Y0192087
X0362008Y018815
X0358071Y018815
X0358071Y0192087
X0354134Y0192087
X0354134Y018815
X0354134Y0184213
X0343583Y0184055
Y0176181
X0338779Y0179921
X0333583Y0176181
X032559Y0176378
X0324213Y0182283
Y0190157
Y0198031
Y0205906
X0333268
Y0198031
Y0190157
X034252Y0198031
Y0205906
X0338976Y0217126
X0342126Y0221654
X0334252
X0329134Y0217323
X032441Y0221457
X035374Y0202362
X0354134Y0196024
X0358071Y0196024
X0365945Y0192087
X0369882Y0192087
X0372598Y0177598
X0376535Y0177598
X0380472Y0177598
X0384409Y0177598
X0393406Y0175197
X0401181Y017815
X0405118Y017815
X0409449Y0179528
X0406772Y0161575
X0406772Y0157638
X0402835Y0157638
X0398898Y0157638
X0398898Y0161575
X0402835Y0161575
X0394961Y0161575
X0394961Y0157638
X0360197Y0161102
X0360197Y0165039
X0353937Y0166535
X033937
X032559
X0312638Y016622
X0320276Y0307047
X0350827Y0307953
X0349252Y0299213
Y0293898
X0369882Y0301378
X0366339Y0282283
X029189Y0265551
X0291811Y0239488
X029189Y0218071
X0292047Y0194252
X0276102Y0206181
X027626Y0227913
X0256299Y0234842
Y0237992
Y0241142
Y025059
X023685Y0251181
X024122Y024437
X0241063Y0235157
X0237992Y0218299
Y0209646
X0240551Y0208202
X0243701Y0207874
X0248228Y020748
X0235433Y0208071
X0226969Y022126
X0213386Y0224016
X021338Y0234842
X0224882Y0240197
X0229803Y0245039
X0207874Y0247087
X0203937Y0247087
X0201575Y0251378
X0199803Y0253543
X0201969Y0255709
X0196063Y0258898
X0196063Y0262835
X0196063Y0266772
X0196063Y0270709
X0196063Y0274646
X0196063Y0278583
X0196063Y028252
X02Y028252
X0203937Y028252
X0207874Y028252
X0211811Y028252
X0215748Y028252
X0219685Y028252
X0223622Y028252
X0227559Y028252
X0231496Y028252
X0235433Y028252
X0231496Y027441
X0225787Y0274606
X021998
X0212254
X0201575Y027559
X0200787Y0265748
X0215551Y025689
X0242913Y0271457
X0246969Y0271339
Y027685
X0247913Y0305197
X0285945Y0306653
X0209528Y030374
X0191142Y0305118
X0190748Y0309252
X0160197Y0297126
X0160827Y0254606
X0161732Y0210578
X0179488Y0187323
X0196653Y0187598
X0214467Y018748
X0213386Y0205906
X0245866Y0219291
X024626Y0175452
X0262874
X0281299
X0292835Y016622
X0310039Y018185
Y0205
Y0233465
X0225787Y0168504
X0134882Y0184961
X0105118Y0187599
Y0195473
Y0203346
Y0211221
Y0219094
Y0226969
Y0234843
Y0242717
Y0250591
Y0258465
Y0266339
Y0274213
Y0282087
Y0289961
Y0297835
Y0305709
X0133976Y0312205
X0133661Y0276614
X0133976Y0228976
X0105118Y0179724
Y017185
Y0163976
Y0313583
Y0321457
Y0329331
Y0337205
Y0345079
Y0352953
Y0360827
Y0368701
Y0376575
Y0384449
X0114567Y0393898
X0122441
X0130315
X0138189
X0146063
X0153937
X0133228Y0364134
X0181575Y0365905
X0185433Y0393898
X0193307
X0201181
X0209055
X0216929
X0224803
X0232677
X0240551
X0248425
X0256299
X0264173
X0272047
X0279921
X0287795
X0295669
X0303543
X0311417
X0266653Y0366811
X022815Y0366378
X0177559Y0393898
X0169685
X0161811
X0190945Y0312992
X0316339Y0364134
X0319291Y0393898
X0327165
X0335039
X0342914
X0350787
X0358662
X0363976Y0383268
X036752Y0355709
X036752Y0351969
X0376575
Y0355709
X0387598Y0352362
Y034941
X0390748
Y0352362
X0396457Y0354921
X0401181
X0406102
X040374Y0326693
X0405709Y0318701
X0397835
X0415748
X0425787Y0318504
X0433661
X0441535
X0432677Y032685
X0458661Y0329331
Y0337205
Y0345079
Y0352953
Y0360827
Y0368701
Y0376575
Y0384449
X0445276Y0393898
X0437402
X0421654
X041378
X041874Y0376496
X0396366Y0376535
X0389961Y0391929
X037559Y0340354
X036752Y034252
Y0338189
X0364567Y0329331
X037559Y0329528
X0344094Y035059
X0458661Y0321457
Y0313583
T02
X0168661Y014185
X0178662
X0188662
X0198661
X0208662
X0218661
X0228661
X0238662
X0258661
X0268661
X0278661
X0288661
X0298661
X0308661
X0365866Y011063
X0375866
X0385866
X0395866
X0152662Y033185
X0142661
X0132661
X0162662
X0172661
X0182661
X0192661
X0202661
X0212662
X0222661
X0238661Y033185
X0248661
X0258661
X0268661
X0278661
X0288661
X0298661
X0308661
T03
X0429921Y0147835
Y016752
X0430421Y0230709
Y0250394
Y0270079
Y0289764
X0429921Y0338583
Y0358268
T04
X0331102Y0120276
X034685
T05
X0114567Y0116732
X0449213
X0114567Y0384449
X0449213
M30
