G04*
G04 #@! TF.GenerationSoftware,Altium Limited,Altium Designer,19.0.15 (446)*
G04*
G04 Layer_Color=16711935*
%FSLAX25Y25*%
%MOIN*%
G70*
G01*
G75*
%ADD134C,0.06706*%
%ADD135R,0.06706X0.06706*%
%ADD136O,0.12611X0.11824*%
%ADD137R,0.12611X0.11824*%
%ADD138C,0.00800*%
G36*
X190507Y116447D02*
X190634Y116442D01*
X190751Y116430D01*
X190856Y116414D01*
X190939Y116397D01*
X190978Y116392D01*
X191006Y116386D01*
X191034Y116381D01*
X191051D01*
X191062Y116375D01*
X191067D01*
X191189Y116347D01*
X191295Y116320D01*
X191384Y116297D01*
X191461Y116275D01*
X191522Y116253D01*
X191567Y116236D01*
X191589Y116231D01*
X191600Y116225D01*
Y115448D01*
X191511D01*
X191417Y115498D01*
X191328Y115542D01*
X191245Y115581D01*
X191162Y115615D01*
X191095Y115637D01*
X191045Y115654D01*
X191012Y115665D01*
X191006Y115670D01*
X191001D01*
X190901Y115698D01*
X190812Y115715D01*
X190729Y115731D01*
X190651Y115737D01*
X190590Y115742D01*
X190545Y115748D01*
X190435D01*
X190362Y115742D01*
X190335Y115737D01*
X190312D01*
X190296Y115731D01*
X190290D01*
X190201Y115715D01*
X190163Y115709D01*
X190129Y115698D01*
X190107Y115687D01*
X190085Y115681D01*
X190074Y115676D01*
X190068D01*
X190007Y115642D01*
X189963Y115609D01*
X189935Y115581D01*
X189924Y115576D01*
Y115570D01*
X189891Y115515D01*
X189874Y115459D01*
X189868Y115437D01*
Y115415D01*
Y115404D01*
Y115398D01*
Y115348D01*
X189880Y115304D01*
X189885Y115265D01*
X189896Y115232D01*
X189907Y115209D01*
X189913Y115193D01*
X189924Y115182D01*
Y115176D01*
X189974Y115126D01*
X190024Y115093D01*
X190046Y115076D01*
X190068Y115065D01*
X190079Y115060D01*
X190085D01*
X190163Y115032D01*
X190246Y115015D01*
X190279Y115010D01*
X190307Y115004D01*
X190329D01*
X190440Y114999D01*
X190496D01*
X190551Y114993D01*
X190867D01*
Y114355D01*
X190462D01*
X190423Y114349D01*
X190362D01*
X190301Y114344D01*
X190246Y114338D01*
X190201Y114333D01*
X190157Y114327D01*
X190124Y114316D01*
X190102Y114310D01*
X190085Y114305D01*
X190079D01*
X190002Y114272D01*
X189941Y114233D01*
X189918Y114210D01*
X189902Y114199D01*
X189896Y114188D01*
X189891Y114183D01*
X189863Y114149D01*
X189846Y114111D01*
X189824Y114033D01*
X189818Y114000D01*
X189813Y113972D01*
Y113950D01*
Y113944D01*
Y113883D01*
X189824Y113833D01*
X189830Y113794D01*
X189841Y113755D01*
X189852Y113728D01*
X189857Y113711D01*
X189868Y113700D01*
Y113694D01*
X189913Y113639D01*
X189963Y113589D01*
X189996Y113561D01*
X190007Y113556D01*
X190013Y113550D01*
X190102Y113500D01*
X190190Y113472D01*
X190229Y113461D01*
X190262Y113456D01*
X190285Y113450D01*
X190290D01*
X190407Y113439D01*
X190457Y113434D01*
X190501D01*
X190540Y113428D01*
X190590D01*
X190679Y113434D01*
X190773Y113445D01*
X190862Y113456D01*
X190945Y113472D01*
X191012Y113489D01*
X191067Y113506D01*
X191089Y113511D01*
X191106D01*
X191112Y113517D01*
X191117D01*
X191223Y113556D01*
X191317Y113589D01*
X191400Y113628D01*
X191472Y113661D01*
X191533Y113694D01*
X191578Y113717D01*
X191605Y113733D01*
X191617Y113739D01*
X191705D01*
Y112945D01*
X191628Y112917D01*
X191539Y112884D01*
X191456Y112862D01*
X191372Y112840D01*
X191300Y112823D01*
X191239Y112806D01*
X191217Y112801D01*
X191200D01*
X191195Y112795D01*
X191189D01*
X191062Y112773D01*
X190934Y112756D01*
X190806Y112740D01*
X190684Y112734D01*
X190579Y112729D01*
X190534Y112723D01*
X190423D01*
X190285Y112729D01*
X190157Y112734D01*
X190046Y112745D01*
X189946Y112762D01*
X189868Y112779D01*
X189813Y112790D01*
X189791Y112795D01*
X189774D01*
X189769Y112801D01*
X189763D01*
X189663Y112834D01*
X189569Y112873D01*
X189491Y112912D01*
X189419Y112951D01*
X189363Y112984D01*
X189319Y113012D01*
X189297Y113028D01*
X189286Y113034D01*
X189214Y113095D01*
X189152Y113156D01*
X189097Y113223D01*
X189058Y113278D01*
X189025Y113328D01*
X188997Y113373D01*
X188986Y113395D01*
X188980Y113406D01*
X188947Y113489D01*
X188919Y113572D01*
X188903Y113655D01*
X188886Y113728D01*
X188881Y113789D01*
X188875Y113839D01*
Y113872D01*
Y113883D01*
X188881Y113961D01*
X188886Y114033D01*
X188897Y114094D01*
X188908Y114144D01*
X188925Y114183D01*
X188936Y114216D01*
X188942Y114233D01*
X188947Y114238D01*
X189008Y114333D01*
X189036Y114377D01*
X189069Y114410D01*
X189097Y114438D01*
X189114Y114460D01*
X189130Y114471D01*
X189136Y114477D01*
X189219Y114538D01*
X189302Y114582D01*
X189336Y114599D01*
X189363Y114610D01*
X189380Y114621D01*
X189385D01*
X189485Y114655D01*
X189530Y114666D01*
X189569Y114671D01*
X189602Y114682D01*
X189624D01*
X189641Y114688D01*
X189646D01*
Y114727D01*
X189535Y114754D01*
X189441Y114799D01*
X189358Y114849D01*
X189286Y114899D01*
X189230Y114943D01*
X189191Y114982D01*
X189163Y115010D01*
X189158Y115021D01*
X189097Y115115D01*
X189047Y115204D01*
X189014Y115293D01*
X188991Y115376D01*
X188980Y115448D01*
X188969Y115504D01*
Y115526D01*
Y115542D01*
Y115548D01*
Y115554D01*
X188975Y115637D01*
X188986Y115709D01*
X189003Y115781D01*
X189019Y115837D01*
X189036Y115881D01*
X189052Y115920D01*
X189064Y115942D01*
X189069Y115948D01*
X189108Y116009D01*
X189152Y116064D01*
X189202Y116114D01*
X189252Y116153D01*
X189297Y116186D01*
X189330Y116214D01*
X189352Y116231D01*
X189363Y116236D01*
X189430Y116270D01*
X189497Y116303D01*
X189569Y116325D01*
X189635Y116347D01*
X189696Y116369D01*
X189741Y116381D01*
X189774Y116392D01*
X189785D01*
X189885Y116414D01*
X189985Y116425D01*
X190085Y116436D01*
X190179Y116447D01*
X190257D01*
X190323Y116453D01*
X190379D01*
X190507Y116447D01*
D02*
G37*
G36*
X218384Y116447D02*
X218506Y116442D01*
X218623Y116430D01*
X218723Y116414D01*
X218812Y116397D01*
X218845Y116392D01*
X218873Y116386D01*
X218900Y116381D01*
X218917D01*
X218928Y116375D01*
X218934D01*
X219050Y116347D01*
X219150Y116320D01*
X219239Y116297D01*
X219306Y116275D01*
X219361Y116253D01*
X219400Y116236D01*
X219428Y116231D01*
X219433Y116225D01*
Y115431D01*
X219361D01*
X219200Y115526D01*
X219122Y115565D01*
X219056Y115598D01*
X218995Y115626D01*
X218945Y115648D01*
X218917Y115659D01*
X218906Y115665D01*
X218817Y115698D01*
X218728Y115720D01*
X218651Y115737D01*
X218579Y115748D01*
X218523Y115753D01*
X218479Y115759D01*
X218440D01*
X218334Y115753D01*
X218240Y115737D01*
X218162Y115715D01*
X218101Y115692D01*
X218051Y115665D01*
X218012Y115642D01*
X217990Y115626D01*
X217985Y115620D01*
X217929Y115565D01*
X217890Y115504D01*
X217863Y115443D01*
X217846Y115382D01*
X217829Y115326D01*
X217824Y115282D01*
Y115254D01*
Y115248D01*
Y115243D01*
X217829Y115165D01*
X217846Y115093D01*
X217863Y115021D01*
X217885Y114960D01*
X217913Y114904D01*
X217929Y114865D01*
X217946Y114838D01*
X217951Y114827D01*
X218001Y114749D01*
X218068Y114666D01*
X218134Y114582D01*
X218201Y114505D01*
X218262Y114438D01*
X218312Y114388D01*
X218334Y114366D01*
X218351Y114349D01*
X218356Y114344D01*
X218362Y114338D01*
X218440Y114260D01*
X218523Y114183D01*
X218612Y114111D01*
X218695Y114039D01*
X218767Y113977D01*
X218828Y113927D01*
X218850Y113911D01*
X218867Y113894D01*
X218878Y113889D01*
X218884Y113883D01*
X219006Y113789D01*
X219122Y113694D01*
X219228Y113611D01*
X219328Y113539D01*
X219411Y113478D01*
X219444Y113450D01*
X219472Y113428D01*
X219494Y113411D01*
X219511Y113400D01*
X219522Y113395D01*
X219528Y113389D01*
Y112795D01*
X216708D01*
Y113484D01*
X218323D01*
X218284Y113511D01*
X218234Y113550D01*
X218129Y113628D01*
X218085Y113661D01*
X218040Y113689D01*
X218018Y113711D01*
X218007Y113717D01*
X217846Y113850D01*
X217768Y113911D01*
X217702Y113966D01*
X217646Y114016D01*
X217607Y114055D01*
X217580Y114077D01*
X217568Y114088D01*
X217446Y114210D01*
X217341Y114327D01*
X217252Y114433D01*
X217174Y114527D01*
X217119Y114610D01*
X217080Y114671D01*
X217063Y114693D01*
X217052Y114710D01*
X217047Y114716D01*
Y114721D01*
X216991Y114838D01*
X216947Y114949D01*
X216919Y115060D01*
X216897Y115160D01*
X216886Y115243D01*
X216880Y115276D01*
X216875Y115309D01*
Y115332D01*
Y115348D01*
Y115359D01*
Y115365D01*
X216880Y115459D01*
X216891Y115548D01*
X216908Y115631D01*
X216930Y115709D01*
X216958Y115781D01*
X216986Y115848D01*
X217019Y115909D01*
X217052Y115964D01*
X217086Y116009D01*
X217119Y116053D01*
X217147Y116086D01*
X217174Y116120D01*
X217197Y116142D01*
X217213Y116159D01*
X217224Y116164D01*
X217230Y116170D01*
X217302Y116220D01*
X217374Y116264D01*
X217457Y116303D01*
X217541Y116336D01*
X217713Y116386D01*
X217879Y116419D01*
X217957Y116430D01*
X218029Y116436D01*
X218096Y116442D01*
X218151Y116447D01*
X218196Y116453D01*
X218262D01*
X218384Y116447D01*
D02*
G37*
G36*
X211369D02*
X211491Y116442D01*
X211608Y116430D01*
X211708Y116414D01*
X211796Y116397D01*
X211830Y116392D01*
X211858Y116386D01*
X211885Y116381D01*
X211902D01*
X211913Y116375D01*
X211918D01*
X212035Y116347D01*
X212135Y116320D01*
X212224Y116297D01*
X212290Y116275D01*
X212346Y116253D01*
X212385Y116236D01*
X212413Y116231D01*
X212418Y116225D01*
Y115431D01*
X212346D01*
X212185Y115526D01*
X212107Y115565D01*
X212041Y115598D01*
X211980Y115626D01*
X211930Y115648D01*
X211902Y115659D01*
X211891Y115665D01*
X211802Y115698D01*
X211713Y115720D01*
X211635Y115737D01*
X211563Y115748D01*
X211508Y115753D01*
X211463Y115759D01*
X211425D01*
X211319Y115753D01*
X211225Y115737D01*
X211147Y115715D01*
X211086Y115692D01*
X211036Y115665D01*
X210997Y115642D01*
X210975Y115626D01*
X210969Y115620D01*
X210914Y115565D01*
X210875Y115504D01*
X210847Y115443D01*
X210831Y115382D01*
X210814Y115326D01*
X210808Y115282D01*
Y115254D01*
Y115248D01*
Y115243D01*
X210814Y115165D01*
X210831Y115093D01*
X210847Y115021D01*
X210870Y114960D01*
X210897Y114904D01*
X210914Y114865D01*
X210931Y114838D01*
X210936Y114827D01*
X210986Y114749D01*
X211053Y114666D01*
X211119Y114582D01*
X211186Y114505D01*
X211247Y114438D01*
X211297Y114388D01*
X211319Y114366D01*
X211336Y114349D01*
X211341Y114344D01*
X211347Y114338D01*
X211425Y114260D01*
X211508Y114183D01*
X211597Y114111D01*
X211680Y114039D01*
X211752Y113977D01*
X211813Y113927D01*
X211835Y113911D01*
X211852Y113894D01*
X211863Y113889D01*
X211869Y113883D01*
X211991Y113789D01*
X212107Y113694D01*
X212213Y113611D01*
X212313Y113539D01*
X212396Y113478D01*
X212429Y113450D01*
X212457Y113428D01*
X212479Y113411D01*
X212496Y113400D01*
X212507Y113395D01*
X212512Y113389D01*
Y112795D01*
X209693D01*
Y113484D01*
X211308D01*
X211269Y113511D01*
X211219Y113550D01*
X211114Y113628D01*
X211069Y113661D01*
X211025Y113689D01*
X211003Y113711D01*
X210992Y113717D01*
X210831Y113850D01*
X210753Y113911D01*
X210686Y113966D01*
X210631Y114016D01*
X210592Y114055D01*
X210564Y114077D01*
X210553Y114088D01*
X210431Y114210D01*
X210326Y114327D01*
X210237Y114433D01*
X210159Y114527D01*
X210104Y114610D01*
X210065Y114671D01*
X210048Y114693D01*
X210037Y114710D01*
X210032Y114716D01*
Y114721D01*
X209976Y114838D01*
X209932Y114949D01*
X209904Y115060D01*
X209882Y115160D01*
X209871Y115243D01*
X209865Y115276D01*
X209859Y115309D01*
Y115332D01*
Y115348D01*
Y115359D01*
Y115365D01*
X209865Y115459D01*
X209876Y115548D01*
X209893Y115631D01*
X209915Y115709D01*
X209943Y115781D01*
X209970Y115848D01*
X210004Y115909D01*
X210037Y115964D01*
X210070Y116009D01*
X210104Y116053D01*
X210131Y116086D01*
X210159Y116120D01*
X210181Y116142D01*
X210198Y116159D01*
X210209Y116164D01*
X210215Y116170D01*
X210287Y116220D01*
X210359Y116264D01*
X210442Y116303D01*
X210525Y116336D01*
X210698Y116386D01*
X210864Y116419D01*
X210942Y116430D01*
X211014Y116436D01*
X211081Y116442D01*
X211136Y116447D01*
X211180Y116453D01*
X211247D01*
X211369Y116447D01*
D02*
G37*
G36*
X181765Y115576D02*
X181871Y115565D01*
X181965Y115559D01*
X182043Y115548D01*
X182104Y115537D01*
X182126D01*
X182143Y115531D01*
X182159D01*
X182265Y115515D01*
X182359Y115498D01*
X182431Y115481D01*
X182492Y115470D01*
X182537Y115459D01*
X182570Y115448D01*
X182592Y115443D01*
X182598D01*
Y114793D01*
X182520D01*
X182476Y114810D01*
X182420Y114827D01*
X182309Y114865D01*
X182259Y114882D01*
X182215Y114899D01*
X182187Y114904D01*
X182176Y114910D01*
X182087Y114938D01*
X181999Y114954D01*
X181921Y114971D01*
X181854Y114976D01*
X181799Y114982D01*
X181754Y114988D01*
X181715D01*
X181588Y114982D01*
X181482Y114976D01*
X181388Y114960D01*
X181316Y114943D01*
X181255Y114927D01*
X181216Y114915D01*
X181188Y114904D01*
X181183Y114899D01*
X181122Y114860D01*
X181077Y114815D01*
X181044Y114766D01*
X181022Y114710D01*
X181011Y114666D01*
X181000Y114627D01*
Y114599D01*
Y114588D01*
Y114577D01*
X181138Y114566D01*
X181277Y114555D01*
X181399Y114543D01*
X181510Y114532D01*
X181604Y114521D01*
X181643Y114516D01*
X181677D01*
X181704Y114510D01*
X181721Y114505D01*
X181738D01*
X181865Y114488D01*
X181982Y114460D01*
X182082Y114438D01*
X182165Y114410D01*
X182237Y114388D01*
X182287Y114366D01*
X182320Y114355D01*
X182326Y114349D01*
X182332D01*
X182420Y114305D01*
X182492Y114260D01*
X182559Y114210D01*
X182609Y114161D01*
X182653Y114122D01*
X182687Y114088D01*
X182703Y114066D01*
X182709Y114055D01*
X182753Y113983D01*
X182781Y113900D01*
X182803Y113822D01*
X182820Y113744D01*
X182831Y113678D01*
X182836Y113622D01*
Y113600D01*
Y113583D01*
Y113578D01*
Y113572D01*
X182831Y113506D01*
X182825Y113439D01*
X182798Y113322D01*
X182753Y113217D01*
X182709Y113128D01*
X182665Y113056D01*
X182620Y113006D01*
X182592Y112973D01*
X182581Y112967D01*
Y112962D01*
X182531Y112917D01*
X182476Y112884D01*
X182370Y112823D01*
X182265Y112784D01*
X182159Y112751D01*
X182071Y112734D01*
X182032Y112729D01*
X181999D01*
X181976Y112723D01*
X181937D01*
X181821Y112729D01*
X181771Y112734D01*
X181727Y112740D01*
X181688D01*
X181660Y112745D01*
X181643Y112751D01*
X181638D01*
X181538Y112773D01*
X181493Y112790D01*
X181455Y112801D01*
X181421Y112818D01*
X181394Y112823D01*
X181377Y112834D01*
X181371D01*
X181299Y112873D01*
X181238Y112912D01*
X181216Y112923D01*
X181194Y112940D01*
X181183Y112945D01*
X181177Y112951D01*
X181105Y113006D01*
X181049Y113045D01*
X181027Y113056D01*
X181011Y113067D01*
X181005Y113078D01*
X181000D01*
Y112795D01*
X180139D01*
Y114638D01*
X180145Y114727D01*
X180156Y114810D01*
X180173Y114882D01*
X180189Y114954D01*
X180217Y115015D01*
X180245Y115076D01*
X180272Y115126D01*
X180306Y115176D01*
X180339Y115215D01*
X180367Y115248D01*
X180394Y115282D01*
X180422Y115304D01*
X180439Y115326D01*
X180456Y115337D01*
X180467Y115348D01*
X180472D01*
X180539Y115387D01*
X180611Y115426D01*
X180694Y115459D01*
X180778Y115481D01*
X180955Y115526D01*
X181127Y115554D01*
X181210Y115565D01*
X181288Y115570D01*
X181355Y115576D01*
X181416D01*
X181466Y115581D01*
X181654D01*
X181765Y115576D01*
D02*
G37*
G36*
X171442D02*
X171548Y115565D01*
X171642Y115559D01*
X171720Y115548D01*
X171781Y115537D01*
X171803D01*
X171820Y115531D01*
X171836D01*
X171942Y115515D01*
X172036Y115498D01*
X172108Y115481D01*
X172169Y115470D01*
X172214Y115459D01*
X172247Y115448D01*
X172269Y115443D01*
X172275D01*
Y114793D01*
X172197D01*
X172153Y114810D01*
X172097Y114827D01*
X171986Y114865D01*
X171936Y114882D01*
X171892Y114899D01*
X171864Y114904D01*
X171853Y114910D01*
X171764Y114938D01*
X171676Y114954D01*
X171598Y114971D01*
X171531Y114976D01*
X171476Y114982D01*
X171431Y114988D01*
X171392D01*
X171265Y114982D01*
X171159Y114976D01*
X171065Y114960D01*
X170993Y114943D01*
X170932Y114927D01*
X170893Y114915D01*
X170865Y114904D01*
X170860Y114899D01*
X170799Y114860D01*
X170754Y114815D01*
X170721Y114766D01*
X170699Y114710D01*
X170688Y114666D01*
X170677Y114627D01*
Y114599D01*
Y114588D01*
Y114577D01*
X170815Y114566D01*
X170954Y114555D01*
X171076Y114543D01*
X171187Y114532D01*
X171281Y114521D01*
X171320Y114516D01*
X171354D01*
X171381Y114510D01*
X171398Y114505D01*
X171415D01*
X171542Y114488D01*
X171659Y114460D01*
X171759Y114438D01*
X171842Y114410D01*
X171914Y114388D01*
X171964Y114366D01*
X171997Y114355D01*
X172003Y114349D01*
X172009D01*
X172097Y114305D01*
X172169Y114260D01*
X172236Y114210D01*
X172286Y114161D01*
X172330Y114122D01*
X172364Y114088D01*
X172380Y114066D01*
X172386Y114055D01*
X172430Y113983D01*
X172458Y113900D01*
X172480Y113822D01*
X172497Y113744D01*
X172508Y113678D01*
X172513Y113622D01*
Y113600D01*
Y113583D01*
Y113578D01*
Y113572D01*
X172508Y113506D01*
X172502Y113439D01*
X172475Y113322D01*
X172430Y113217D01*
X172386Y113128D01*
X172342Y113056D01*
X172297Y113006D01*
X172269Y112973D01*
X172258Y112967D01*
Y112962D01*
X172208Y112917D01*
X172153Y112884D01*
X172047Y112823D01*
X171942Y112784D01*
X171836Y112751D01*
X171748Y112734D01*
X171709Y112729D01*
X171676D01*
X171653Y112723D01*
X171614D01*
X171498Y112729D01*
X171448Y112734D01*
X171404Y112740D01*
X171365D01*
X171337Y112745D01*
X171320Y112751D01*
X171315D01*
X171215Y112773D01*
X171170Y112790D01*
X171132Y112801D01*
X171098Y112818D01*
X171071Y112823D01*
X171054Y112834D01*
X171048D01*
X170976Y112873D01*
X170915Y112912D01*
X170893Y112923D01*
X170871Y112940D01*
X170860Y112945D01*
X170854Y112951D01*
X170782Y113006D01*
X170726Y113045D01*
X170704Y113056D01*
X170688Y113067D01*
X170682Y113078D01*
X170677D01*
Y112795D01*
X169816D01*
Y114638D01*
X169822Y114727D01*
X169833Y114810D01*
X169850Y114882D01*
X169866Y114954D01*
X169894Y115015D01*
X169922Y115076D01*
X169949Y115126D01*
X169983Y115176D01*
X170016Y115215D01*
X170044Y115248D01*
X170071Y115282D01*
X170099Y115304D01*
X170116Y115326D01*
X170133Y115337D01*
X170144Y115348D01*
X170149D01*
X170216Y115387D01*
X170288Y115426D01*
X170371Y115459D01*
X170455Y115481D01*
X170632Y115526D01*
X170804Y115554D01*
X170887Y115565D01*
X170965Y115570D01*
X171032Y115576D01*
X171093D01*
X171143Y115581D01*
X171331D01*
X171442Y115576D01*
D02*
G37*
G36*
X186394Y112795D02*
X185467D01*
Y113961D01*
X185256Y114227D01*
X184191Y112795D01*
X183047D01*
X184518Y114721D01*
X183120Y116381D01*
X184196D01*
X185467Y114760D01*
Y116381D01*
X186394D01*
Y112795D01*
D02*
G37*
G36*
X179362Y113739D02*
X179357Y113644D01*
X179351Y113561D01*
X179340Y113484D01*
X179323Y113406D01*
X179307Y113339D01*
X179285Y113278D01*
X179262Y113223D01*
X179240Y113167D01*
X179218Y113123D01*
X179201Y113084D01*
X179179Y113051D01*
X179162Y113028D01*
X179146Y113006D01*
X179135Y112989D01*
X179124Y112984D01*
Y112978D01*
X179074Y112934D01*
X179024Y112895D01*
X178913Y112829D01*
X178802Y112784D01*
X178691Y112756D01*
X178591Y112734D01*
X178546Y112729D01*
X178507D01*
X178480Y112723D01*
X178435D01*
X178335Y112729D01*
X178247Y112740D01*
X178163Y112751D01*
X178097Y112773D01*
X178041Y112790D01*
X177997Y112801D01*
X177975Y112812D01*
X177964Y112818D01*
X177886Y112856D01*
X177808Y112901D01*
X177736Y112945D01*
X177664Y112989D01*
X177608Y113034D01*
X177559Y113067D01*
X177531Y113089D01*
X177520Y113095D01*
Y112795D01*
X176648D01*
Y115498D01*
X177520D01*
Y113583D01*
X177614Y113528D01*
X177658Y113506D01*
X177697Y113489D01*
X177731Y113478D01*
X177758Y113467D01*
X177775Y113461D01*
X177780D01*
X177875Y113439D01*
X177914Y113434D01*
X177953Y113428D01*
X177980Y113422D01*
X178086D01*
X178136Y113428D01*
X178180Y113434D01*
X178219Y113445D01*
X178247Y113450D01*
X178269Y113456D01*
X178280Y113461D01*
X178286D01*
X178341Y113500D01*
X178385Y113539D01*
X178408Y113572D01*
X178419Y113583D01*
Y113589D01*
X178446Y113661D01*
X178469Y113733D01*
X178474Y113767D01*
X178480Y113789D01*
Y113805D01*
Y113811D01*
X178485Y113866D01*
Y113922D01*
Y113983D01*
X178491Y114033D01*
Y114083D01*
Y114122D01*
Y114144D01*
Y114155D01*
Y115498D01*
X179362D01*
Y113739D01*
D02*
G37*
G36*
X174140Y115576D02*
X174229Y115565D01*
X174306Y115548D01*
X174378Y115531D01*
X174434Y115515D01*
X174478Y115498D01*
X174506Y115487D01*
X174517Y115481D01*
X174595Y115443D01*
X174672Y115398D01*
X174750Y115354D01*
X174817Y115309D01*
X174872Y115265D01*
X174917Y115232D01*
X174944Y115209D01*
X174955Y115204D01*
Y115498D01*
X175827D01*
Y112795D01*
X174955D01*
Y114716D01*
X174856Y114771D01*
X174811Y114793D01*
X174778Y114815D01*
X174745Y114827D01*
X174722Y114838D01*
X174706Y114843D01*
X174700D01*
X174611Y114865D01*
X174567Y114871D01*
X174534Y114876D01*
X174500Y114882D01*
X174400D01*
X174351Y114876D01*
X174306Y114871D01*
X174267Y114860D01*
X174240Y114854D01*
X174217Y114843D01*
X174206Y114838D01*
X174201D01*
X174140Y114799D01*
X174095Y114760D01*
X174067Y114727D01*
X174062Y114716D01*
Y114710D01*
X174051Y114677D01*
X174034Y114638D01*
X174018Y114560D01*
X174012Y114521D01*
Y114494D01*
X174006Y114471D01*
Y114466D01*
X173995Y114349D01*
X173990Y114294D01*
X173984Y114244D01*
Y114199D01*
Y114166D01*
Y114144D01*
Y114138D01*
Y112795D01*
X173113D01*
Y114555D01*
Y114649D01*
X173124Y114732D01*
X173135Y114815D01*
X173152Y114888D01*
X173168Y114960D01*
X173191Y115021D01*
X173213Y115076D01*
X173235Y115132D01*
X173263Y115176D01*
X173285Y115215D01*
X173307Y115248D01*
X173324Y115271D01*
X173340Y115293D01*
X173352Y115309D01*
X173357Y115315D01*
X173363Y115321D01*
X173413Y115365D01*
X173463Y115409D01*
X173574Y115470D01*
X173685Y115520D01*
X173796Y115548D01*
X173896Y115570D01*
X173934Y115576D01*
X173973D01*
X174001Y115581D01*
X174045D01*
X174140Y115576D01*
D02*
G37*
G36*
X200547Y114299D02*
Y113622D01*
X198804D01*
Y112784D01*
X197921D01*
Y113622D01*
X197433D01*
Y114277D01*
X197921D01*
Y116381D01*
X198865D01*
X200547Y114299D01*
D02*
G37*
G36*
X214855Y116447D02*
X214988Y116436D01*
X215104Y116414D01*
X215199Y116392D01*
X215282Y116369D01*
X215315Y116358D01*
X215343Y116347D01*
X215365Y116342D01*
X215382Y116336D01*
X215387Y116331D01*
X215393D01*
X215493Y116281D01*
X215581Y116225D01*
X215665Y116170D01*
X215731Y116114D01*
X215781Y116059D01*
X215820Y116020D01*
X215842Y115992D01*
X215854Y115981D01*
X215915Y115887D01*
X215970Y115787D01*
X216014Y115692D01*
X216048Y115598D01*
X216081Y115520D01*
X216098Y115454D01*
X216103Y115431D01*
X216109Y115415D01*
X216114Y115404D01*
Y115398D01*
X216142Y115265D01*
X216159Y115126D01*
X216175Y114993D01*
X216181Y114865D01*
X216186Y114804D01*
Y114754D01*
X216192Y114705D01*
Y114666D01*
Y114632D01*
Y114610D01*
Y114594D01*
Y114588D01*
X216186Y114421D01*
X216181Y114272D01*
X216170Y114133D01*
X216153Y114016D01*
X216148Y113966D01*
X216137Y113916D01*
X216131Y113877D01*
X216125Y113844D01*
X216120Y113816D01*
Y113800D01*
X216114Y113789D01*
Y113783D01*
X216081Y113655D01*
X216042Y113544D01*
X215998Y113445D01*
X215959Y113356D01*
X215920Y113289D01*
X215887Y113239D01*
X215865Y113206D01*
X215859Y113200D01*
Y113195D01*
X215787Y113112D01*
X215709Y113040D01*
X215637Y112978D01*
X215559Y112928D01*
X215498Y112890D01*
X215443Y112862D01*
X215409Y112845D01*
X215404Y112840D01*
X215398D01*
X215287Y112801D01*
X215171Y112773D01*
X215054Y112751D01*
X214949Y112740D01*
X214855Y112729D01*
X214810D01*
X214777Y112723D01*
X214710D01*
X214566Y112729D01*
X214433Y112740D01*
X214316Y112762D01*
X214216Y112784D01*
X214139Y112801D01*
X214105Y112812D01*
X214077Y112823D01*
X214055Y112829D01*
X214039Y112834D01*
X214033Y112840D01*
X214028D01*
X213928Y112890D01*
X213833Y112945D01*
X213756Y113001D01*
X213689Y113056D01*
X213639Y113112D01*
X213600Y113151D01*
X213572Y113178D01*
X213567Y113189D01*
X213506Y113284D01*
X213456Y113378D01*
X213411Y113478D01*
X213373Y113572D01*
X213345Y113655D01*
X213328Y113717D01*
X213323Y113744D01*
X213317Y113761D01*
X213312Y113772D01*
Y113778D01*
X213284Y113916D01*
X213262Y114055D01*
X213250Y114188D01*
X213239Y114316D01*
X213234Y114372D01*
Y114427D01*
X213228Y114471D01*
Y114510D01*
Y114543D01*
Y114566D01*
Y114582D01*
Y114588D01*
X213234Y114749D01*
X213239Y114904D01*
X213256Y115038D01*
X213267Y115154D01*
X213278Y115204D01*
X213284Y115248D01*
X213289Y115287D01*
X213300Y115321D01*
X213306Y115348D01*
Y115365D01*
X213312Y115376D01*
Y115382D01*
X213345Y115509D01*
X213384Y115620D01*
X213428Y115720D01*
X213467Y115803D01*
X213506Y115870D01*
X213539Y115920D01*
X213561Y115953D01*
X213567Y115964D01*
X213639Y116053D01*
X213711Y116125D01*
X213789Y116186D01*
X213861Y116242D01*
X213922Y116281D01*
X213978Y116308D01*
X214011Y116325D01*
X214016Y116331D01*
X214022D01*
X214133Y116369D01*
X214244Y116403D01*
X214360Y116425D01*
X214472Y116436D01*
X214566Y116447D01*
X214605D01*
X214644Y116453D01*
X214710D01*
X214855Y116447D01*
D02*
G37*
G36*
X207839D02*
X207973Y116436D01*
X208089Y116414D01*
X208183Y116392D01*
X208267Y116369D01*
X208300Y116358D01*
X208328Y116347D01*
X208350Y116342D01*
X208366Y116336D01*
X208372Y116331D01*
X208378D01*
X208477Y116281D01*
X208566Y116225D01*
X208650Y116170D01*
X208716Y116114D01*
X208766Y116059D01*
X208805Y116020D01*
X208827Y115992D01*
X208838Y115981D01*
X208899Y115887D01*
X208955Y115787D01*
X208999Y115692D01*
X209033Y115598D01*
X209066Y115520D01*
X209083Y115454D01*
X209088Y115431D01*
X209094Y115415D01*
X209099Y115404D01*
Y115398D01*
X209127Y115265D01*
X209143Y115126D01*
X209160Y114993D01*
X209166Y114865D01*
X209171Y114804D01*
Y114754D01*
X209177Y114705D01*
Y114666D01*
Y114632D01*
Y114610D01*
Y114594D01*
Y114588D01*
X209171Y114421D01*
X209166Y114272D01*
X209155Y114133D01*
X209138Y114016D01*
X209132Y113966D01*
X209121Y113916D01*
X209116Y113877D01*
X209110Y113844D01*
X209105Y113816D01*
Y113800D01*
X209099Y113789D01*
Y113783D01*
X209066Y113655D01*
X209027Y113544D01*
X208983Y113445D01*
X208944Y113356D01*
X208905Y113289D01*
X208872Y113239D01*
X208849Y113206D01*
X208844Y113200D01*
Y113195D01*
X208772Y113112D01*
X208694Y113040D01*
X208622Y112978D01*
X208544Y112928D01*
X208483Y112890D01*
X208428Y112862D01*
X208394Y112845D01*
X208389Y112840D01*
X208383D01*
X208272Y112801D01*
X208156Y112773D01*
X208039Y112751D01*
X207934Y112740D01*
X207839Y112729D01*
X207795D01*
X207762Y112723D01*
X207695D01*
X207551Y112729D01*
X207417Y112740D01*
X207301Y112762D01*
X207201Y112784D01*
X207123Y112801D01*
X207090Y112812D01*
X207062Y112823D01*
X207040Y112829D01*
X207023Y112834D01*
X207018Y112840D01*
X207012D01*
X206912Y112890D01*
X206818Y112945D01*
X206740Y113001D01*
X206674Y113056D01*
X206624Y113112D01*
X206585Y113151D01*
X206557Y113178D01*
X206552Y113189D01*
X206491Y113284D01*
X206441Y113378D01*
X206396Y113478D01*
X206357Y113572D01*
X206330Y113655D01*
X206313Y113717D01*
X206308Y113744D01*
X206302Y113761D01*
X206296Y113772D01*
Y113778D01*
X206269Y113916D01*
X206246Y114055D01*
X206235Y114188D01*
X206224Y114316D01*
X206219Y114372D01*
Y114427D01*
X206213Y114471D01*
Y114510D01*
Y114543D01*
Y114566D01*
Y114582D01*
Y114588D01*
X206219Y114749D01*
X206224Y114904D01*
X206241Y115038D01*
X206252Y115154D01*
X206263Y115204D01*
X206269Y115248D01*
X206274Y115287D01*
X206285Y115321D01*
X206291Y115348D01*
Y115365D01*
X206296Y115376D01*
Y115382D01*
X206330Y115509D01*
X206368Y115620D01*
X206413Y115720D01*
X206452Y115803D01*
X206491Y115870D01*
X206524Y115920D01*
X206546Y115953D01*
X206552Y115964D01*
X206624Y116053D01*
X206696Y116125D01*
X206774Y116186D01*
X206846Y116242D01*
X206907Y116281D01*
X206962Y116308D01*
X206996Y116325D01*
X207001Y116331D01*
X207007D01*
X207118Y116369D01*
X207229Y116403D01*
X207345Y116425D01*
X207456Y116436D01*
X207551Y116447D01*
X207590D01*
X207628Y116453D01*
X207695D01*
X207839Y116447D01*
D02*
G37*
G36*
X202644D02*
X202778Y116436D01*
X202894Y116414D01*
X202989Y116392D01*
X203072Y116369D01*
X203105Y116358D01*
X203133Y116347D01*
X203155Y116342D01*
X203172Y116336D01*
X203177Y116331D01*
X203183D01*
X203283Y116281D01*
X203372Y116225D01*
X203455Y116170D01*
X203521Y116114D01*
X203571Y116059D01*
X203610Y116020D01*
X203632Y115992D01*
X203643Y115981D01*
X203705Y115887D01*
X203760Y115787D01*
X203804Y115692D01*
X203838Y115598D01*
X203871Y115520D01*
X203888Y115454D01*
X203893Y115431D01*
X203899Y115415D01*
X203904Y115404D01*
Y115398D01*
X203932Y115265D01*
X203949Y115126D01*
X203965Y114993D01*
X203971Y114865D01*
X203976Y114804D01*
Y114754D01*
X203982Y114705D01*
Y114666D01*
Y114632D01*
Y114610D01*
Y114594D01*
Y114588D01*
X203976Y114421D01*
X203971Y114272D01*
X203960Y114133D01*
X203943Y114016D01*
X203938Y113966D01*
X203926Y113916D01*
X203921Y113877D01*
X203915Y113844D01*
X203910Y113816D01*
Y113800D01*
X203904Y113789D01*
Y113783D01*
X203871Y113655D01*
X203832Y113544D01*
X203788Y113445D01*
X203749Y113356D01*
X203710Y113289D01*
X203677Y113239D01*
X203655Y113206D01*
X203649Y113200D01*
Y113195D01*
X203577Y113112D01*
X203499Y113040D01*
X203427Y112978D01*
X203349Y112928D01*
X203288Y112890D01*
X203233Y112862D01*
X203200Y112845D01*
X203194Y112840D01*
X203188D01*
X203077Y112801D01*
X202961Y112773D01*
X202844Y112751D01*
X202739Y112740D01*
X202644Y112729D01*
X202600D01*
X202567Y112723D01*
X202500D01*
X202356Y112729D01*
X202223Y112740D01*
X202106Y112762D01*
X202006Y112784D01*
X201928Y112801D01*
X201895Y112812D01*
X201868Y112823D01*
X201845Y112829D01*
X201829Y112834D01*
X201823Y112840D01*
X201817D01*
X201718Y112890D01*
X201623Y112945D01*
X201546Y113001D01*
X201479Y113056D01*
X201429Y113112D01*
X201390Y113151D01*
X201362Y113178D01*
X201357Y113189D01*
X201296Y113284D01*
X201246Y113378D01*
X201202Y113478D01*
X201163Y113572D01*
X201135Y113655D01*
X201118Y113717D01*
X201113Y113744D01*
X201107Y113761D01*
X201102Y113772D01*
Y113778D01*
X201074Y113916D01*
X201052Y114055D01*
X201041Y114188D01*
X201029Y114316D01*
X201024Y114372D01*
Y114427D01*
X201018Y114471D01*
Y114510D01*
Y114543D01*
Y114566D01*
Y114582D01*
Y114588D01*
X201024Y114749D01*
X201029Y114904D01*
X201046Y115038D01*
X201057Y115154D01*
X201068Y115204D01*
X201074Y115248D01*
X201079Y115287D01*
X201091Y115321D01*
X201096Y115348D01*
Y115365D01*
X201102Y115376D01*
Y115382D01*
X201135Y115509D01*
X201174Y115620D01*
X201218Y115720D01*
X201257Y115803D01*
X201296Y115870D01*
X201329Y115920D01*
X201351Y115953D01*
X201357Y115964D01*
X201429Y116053D01*
X201501Y116125D01*
X201579Y116186D01*
X201651Y116242D01*
X201712Y116281D01*
X201768Y116308D01*
X201801Y116325D01*
X201806Y116331D01*
X201812D01*
X201923Y116369D01*
X202034Y116403D01*
X202151Y116425D01*
X202261Y116436D01*
X202356Y116447D01*
X202395D01*
X202434Y116453D01*
X202500D01*
X202644Y116447D01*
D02*
G37*
G36*
X193942D02*
X194075Y116436D01*
X194192Y116414D01*
X194286Y116392D01*
X194369Y116369D01*
X194403Y116358D01*
X194430Y116347D01*
X194453Y116342D01*
X194469Y116336D01*
X194475Y116331D01*
X194480D01*
X194580Y116281D01*
X194669Y116225D01*
X194752Y116170D01*
X194819Y116114D01*
X194869Y116059D01*
X194908Y116020D01*
X194930Y115992D01*
X194941Y115981D01*
X195002Y115887D01*
X195058Y115787D01*
X195102Y115692D01*
X195135Y115598D01*
X195169Y115520D01*
X195185Y115454D01*
X195191Y115431D01*
X195196Y115415D01*
X195202Y115404D01*
Y115398D01*
X195230Y115265D01*
X195246Y115126D01*
X195263Y114993D01*
X195268Y114865D01*
X195274Y114804D01*
Y114754D01*
X195280Y114705D01*
Y114666D01*
Y114632D01*
Y114610D01*
Y114594D01*
Y114588D01*
X195274Y114421D01*
X195268Y114272D01*
X195257Y114133D01*
X195241Y114016D01*
X195235Y113966D01*
X195224Y113916D01*
X195219Y113877D01*
X195213Y113844D01*
X195208Y113816D01*
Y113800D01*
X195202Y113789D01*
Y113783D01*
X195169Y113655D01*
X195130Y113544D01*
X195085Y113445D01*
X195046Y113356D01*
X195008Y113289D01*
X194974Y113239D01*
X194952Y113206D01*
X194947Y113200D01*
Y113195D01*
X194875Y113112D01*
X194797Y113040D01*
X194725Y112978D01*
X194647Y112928D01*
X194586Y112890D01*
X194530Y112862D01*
X194497Y112845D01*
X194492Y112840D01*
X194486D01*
X194375Y112801D01*
X194258Y112773D01*
X194142Y112751D01*
X194036Y112740D01*
X193942Y112729D01*
X193898D01*
X193864Y112723D01*
X193798D01*
X193654Y112729D01*
X193520Y112740D01*
X193404Y112762D01*
X193304Y112784D01*
X193226Y112801D01*
X193193Y112812D01*
X193165Y112823D01*
X193143Y112829D01*
X193126Y112834D01*
X193121Y112840D01*
X193115D01*
X193015Y112890D01*
X192921Y112945D01*
X192843Y113001D01*
X192777Y113056D01*
X192727Y113112D01*
X192688Y113151D01*
X192660Y113178D01*
X192655Y113189D01*
X192593Y113284D01*
X192543Y113378D01*
X192499Y113478D01*
X192460Y113572D01*
X192432Y113655D01*
X192416Y113717D01*
X192410Y113744D01*
X192405Y113761D01*
X192399Y113772D01*
Y113778D01*
X192371Y113916D01*
X192349Y114055D01*
X192338Y114188D01*
X192327Y114316D01*
X192322Y114372D01*
Y114427D01*
X192316Y114471D01*
Y114510D01*
Y114543D01*
Y114566D01*
Y114582D01*
Y114588D01*
X192322Y114749D01*
X192327Y114904D01*
X192344Y115038D01*
X192355Y115154D01*
X192366Y115204D01*
X192371Y115248D01*
X192377Y115287D01*
X192388Y115321D01*
X192394Y115348D01*
Y115365D01*
X192399Y115376D01*
Y115382D01*
X192432Y115509D01*
X192471Y115620D01*
X192516Y115720D01*
X192555Y115803D01*
X192593Y115870D01*
X192627Y115920D01*
X192649Y115953D01*
X192655Y115964D01*
X192727Y116053D01*
X192799Y116125D01*
X192877Y116186D01*
X192949Y116242D01*
X193010Y116281D01*
X193065Y116308D01*
X193098Y116325D01*
X193104Y116331D01*
X193110D01*
X193221Y116369D01*
X193332Y116403D01*
X193448Y116425D01*
X193559Y116436D01*
X193654Y116447D01*
X193692D01*
X193731Y116453D01*
X193798D01*
X193942Y116447D01*
D02*
G37*
G36*
X168040Y115570D02*
X168140Y115559D01*
X168240Y115542D01*
X168329Y115520D01*
X168412Y115498D01*
X168490Y115476D01*
X168556Y115454D01*
X168617Y115426D01*
X168673Y115404D01*
X168717Y115382D01*
X168756Y115359D01*
X168784Y115343D01*
X168806Y115332D01*
X168817Y115326D01*
X168823Y115321D01*
X168889Y115271D01*
X168945Y115221D01*
X168995Y115165D01*
X169034Y115110D01*
X169072Y115054D01*
X169100Y114999D01*
X169145Y114899D01*
X169167Y114810D01*
X169178Y114771D01*
X169184Y114738D01*
X169189Y114710D01*
Y114688D01*
Y114677D01*
Y114671D01*
X169184Y114560D01*
X169161Y114460D01*
X169134Y114377D01*
X169100Y114299D01*
X169067Y114244D01*
X169039Y114199D01*
X169017Y114172D01*
X169011Y114161D01*
X168939Y114088D01*
X168851Y114027D01*
X168762Y113977D01*
X168673Y113933D01*
X168595Y113900D01*
X168529Y113877D01*
X168501Y113872D01*
X168484Y113866D01*
X168473Y113861D01*
X168468D01*
X168362Y113839D01*
X168312Y113828D01*
X168268Y113816D01*
X168229Y113811D01*
X168196Y113805D01*
X168173Y113800D01*
X168168D01*
X168107Y113789D01*
X168057Y113783D01*
X168012Y113772D01*
X167974Y113767D01*
X167946Y113761D01*
X167924D01*
X167913Y113755D01*
X167907D01*
X167840Y113739D01*
X167779Y113722D01*
X167735Y113706D01*
X167696Y113694D01*
X167668Y113683D01*
X167652Y113672D01*
X167641Y113667D01*
X167635D01*
X167607Y113650D01*
X167591Y113628D01*
X167569Y113578D01*
X167563Y113556D01*
X167557Y113539D01*
Y113528D01*
Y113522D01*
X167563Y113484D01*
X167580Y113450D01*
X167596Y113422D01*
X167618Y113400D01*
X167646Y113378D01*
X167663Y113367D01*
X167680Y113361D01*
X167685Y113356D01*
X167735Y113339D01*
X167796Y113322D01*
X167857Y113311D01*
X167918Y113306D01*
X167974D01*
X168018Y113300D01*
X168135D01*
X168201Y113306D01*
X168262Y113311D01*
X168318Y113322D01*
X168362Y113328D01*
X168401Y113334D01*
X168423Y113339D01*
X168429D01*
X168545Y113373D01*
X168601Y113384D01*
X168645Y113400D01*
X168678Y113411D01*
X168712Y113422D01*
X168728Y113434D01*
X168734D01*
X168790Y113456D01*
X168834Y113478D01*
X168878Y113500D01*
X168912Y113517D01*
X168939Y113528D01*
X168956Y113539D01*
X168967Y113550D01*
X168973D01*
X169034Y113589D01*
X169078Y113622D01*
X169111Y113644D01*
X169117Y113655D01*
X169200D01*
Y112940D01*
X169128Y112912D01*
X169050Y112879D01*
X168973Y112856D01*
X168901Y112834D01*
X168834Y112818D01*
X168784Y112801D01*
X168762Y112795D01*
X168745D01*
X168739Y112790D01*
X168734D01*
X168623Y112768D01*
X168506Y112751D01*
X168395Y112740D01*
X168296Y112734D01*
X168207Y112729D01*
X168168Y112723D01*
X168073D01*
X167957Y112729D01*
X167840Y112734D01*
X167735Y112745D01*
X167641Y112762D01*
X167546Y112784D01*
X167463Y112806D01*
X167385Y112829D01*
X167319Y112851D01*
X167252Y112873D01*
X167202Y112895D01*
X167152Y112917D01*
X167113Y112940D01*
X167086Y112956D01*
X167063Y112967D01*
X167052Y112978D01*
X167047D01*
X166980Y113028D01*
X166925Y113078D01*
X166869Y113134D01*
X166830Y113195D01*
X166791Y113250D01*
X166764Y113306D01*
X166714Y113411D01*
X166692Y113511D01*
X166681Y113550D01*
X166675Y113583D01*
X166669Y113617D01*
Y113639D01*
Y113650D01*
Y113655D01*
X166675Y113755D01*
X166697Y113850D01*
X166719Y113933D01*
X166753Y114000D01*
X166780Y114055D01*
X166808Y114100D01*
X166830Y114122D01*
X166836Y114133D01*
X166902Y114199D01*
X166980Y114260D01*
X167069Y114310D01*
X167147Y114349D01*
X167224Y114377D01*
X167285Y114399D01*
X167308Y114405D01*
X167324Y114410D01*
X167335Y114416D01*
X167341D01*
X167457Y114444D01*
X167507Y114455D01*
X167552Y114460D01*
X167596Y114466D01*
X167624Y114471D01*
X167646Y114477D01*
X167652D01*
X167757Y114499D01*
X167807Y114505D01*
X167851Y114510D01*
X167885Y114521D01*
X167913D01*
X167929Y114527D01*
X167935D01*
X168018Y114549D01*
X168085Y114566D01*
X168135Y114582D01*
X168179Y114599D01*
X168207Y114616D01*
X168223Y114621D01*
X168235Y114632D01*
X168240D01*
X168262Y114655D01*
X168273Y114677D01*
X168296Y114721D01*
Y114743D01*
X168301Y114760D01*
Y114771D01*
Y114777D01*
X168296Y114815D01*
X168279Y114849D01*
X168257Y114876D01*
X168229Y114899D01*
X168207Y114921D01*
X168184Y114932D01*
X168168Y114943D01*
X168162D01*
X168107Y114965D01*
X168046Y114976D01*
X167985Y114988D01*
X167929Y114999D01*
X167879D01*
X167840Y115004D01*
X167807D01*
X167713Y114999D01*
X167624Y114993D01*
X167541Y114976D01*
X167469Y114960D01*
X167402Y114943D01*
X167358Y114932D01*
X167324Y114921D01*
X167313Y114915D01*
X167224Y114882D01*
X167136Y114849D01*
X167063Y114810D01*
X166997Y114777D01*
X166941Y114749D01*
X166902Y114727D01*
X166880Y114710D01*
X166869Y114705D01*
X166791D01*
Y115387D01*
X166858Y115409D01*
X166930Y115437D01*
X167002Y115459D01*
X167069Y115476D01*
X167136Y115493D01*
X167185Y115504D01*
X167219Y115515D01*
X167230D01*
X167335Y115537D01*
X167435Y115554D01*
X167535Y115565D01*
X167624Y115576D01*
X167702D01*
X167763Y115581D01*
X167929D01*
X168040Y115570D01*
D02*
G37*
%LPC*%
G36*
X181005Y114066D02*
X181000D01*
Y113500D01*
X181083Y113445D01*
X181160Y113400D01*
X181188Y113384D01*
X181216Y113373D01*
X181233Y113361D01*
X181238D01*
X181333Y113334D01*
X181377Y113322D01*
X181416Y113317D01*
X181449D01*
X181477Y113311D01*
X181554D01*
X181604Y113317D01*
X181643D01*
X181677Y113322D01*
X181704Y113328D01*
X181721D01*
X181732Y113334D01*
X181738D01*
X181793Y113356D01*
X181832Y113378D01*
X181860Y113395D01*
X181871Y113400D01*
X181904Y113439D01*
X181926Y113467D01*
X181937Y113489D01*
X181943Y113500D01*
X181948Y113544D01*
X181954Y113589D01*
Y113628D01*
Y113633D01*
Y113639D01*
X181948Y113683D01*
X181943Y113728D01*
X181932Y113761D01*
X181921Y113789D01*
X181910Y113811D01*
X181899Y113828D01*
X181887Y113839D01*
Y113844D01*
X181860Y113872D01*
X181826Y113894D01*
X181765Y113933D01*
X181738Y113950D01*
X181715Y113961D01*
X181699Y113966D01*
X181693D01*
X181649Y113977D01*
X181599Y113988D01*
X181499Y114005D01*
X181455Y114011D01*
X181416Y114016D01*
X181394Y114022D01*
X181382D01*
X181305Y114033D01*
X181238Y114039D01*
X181172Y114050D01*
X181116Y114055D01*
X181066Y114061D01*
X181033D01*
X181005Y114066D01*
D02*
G37*
G36*
X170682D02*
X170677D01*
Y113500D01*
X170760Y113445D01*
X170837Y113400D01*
X170865Y113384D01*
X170893Y113373D01*
X170910Y113361D01*
X170915D01*
X171010Y113334D01*
X171054Y113322D01*
X171093Y113317D01*
X171126D01*
X171154Y113311D01*
X171231D01*
X171281Y113317D01*
X171320D01*
X171354Y113322D01*
X171381Y113328D01*
X171398D01*
X171409Y113334D01*
X171415D01*
X171470Y113356D01*
X171509Y113378D01*
X171537Y113395D01*
X171548Y113400D01*
X171581Y113439D01*
X171603Y113467D01*
X171614Y113489D01*
X171620Y113500D01*
X171625Y113544D01*
X171631Y113589D01*
Y113628D01*
Y113633D01*
Y113639D01*
X171625Y113683D01*
X171620Y113728D01*
X171609Y113761D01*
X171598Y113789D01*
X171587Y113811D01*
X171576Y113828D01*
X171564Y113839D01*
Y113844D01*
X171537Y113872D01*
X171503Y113894D01*
X171442Y113933D01*
X171415Y113950D01*
X171392Y113961D01*
X171376Y113966D01*
X171370D01*
X171326Y113977D01*
X171276Y113988D01*
X171176Y114005D01*
X171132Y114011D01*
X171093Y114016D01*
X171071Y114022D01*
X171059D01*
X170982Y114033D01*
X170915Y114039D01*
X170849Y114050D01*
X170793Y114055D01*
X170743Y114061D01*
X170710D01*
X170682Y114066D01*
D02*
G37*
G36*
X198804Y115570D02*
Y114277D01*
X199853D01*
X198804Y115570D01*
D02*
G37*
G36*
X214738Y115792D02*
X214710D01*
X214655Y115787D01*
X214605Y115781D01*
X214522Y115748D01*
X214449Y115703D01*
X214388Y115654D01*
X214344Y115604D01*
X214311Y115559D01*
X214294Y115526D01*
X214288Y115520D01*
Y115515D01*
X214266Y115459D01*
X214244Y115398D01*
X214227Y115326D01*
X214216Y115254D01*
X214194Y115099D01*
X214177Y114949D01*
X214172Y114876D01*
X214166Y114810D01*
Y114749D01*
X214161Y114693D01*
Y114649D01*
Y114616D01*
Y114594D01*
Y114588D01*
Y114471D01*
X214166Y114366D01*
X214172Y114266D01*
X214183Y114172D01*
X214194Y114088D01*
X214205Y114011D01*
X214216Y113944D01*
X214227Y113883D01*
X214238Y113828D01*
X214249Y113783D01*
X214261Y113744D01*
X214272Y113717D01*
X214283Y113694D01*
X214288Y113672D01*
X214294Y113667D01*
Y113661D01*
X214322Y113611D01*
X214349Y113572D01*
X214377Y113533D01*
X214410Y113500D01*
X214483Y113450D01*
X214549Y113417D01*
X214610Y113400D01*
X214660Y113389D01*
X214699Y113384D01*
X214710D01*
X214766Y113389D01*
X214810Y113395D01*
X214899Y113428D01*
X214971Y113472D01*
X215032Y113522D01*
X215076Y113572D01*
X215110Y113617D01*
X215126Y113650D01*
X215132Y113655D01*
Y113661D01*
X215154Y113717D01*
X215176Y113783D01*
X215204Y113922D01*
X215226Y114077D01*
X215243Y114227D01*
X215248Y114299D01*
X215254Y114366D01*
Y114427D01*
X215260Y114477D01*
Y114521D01*
Y114555D01*
Y114577D01*
Y114582D01*
Y114699D01*
X215254Y114810D01*
X215248Y114910D01*
X215243Y115004D01*
X215232Y115087D01*
X215221Y115165D01*
X215210Y115232D01*
X215199Y115293D01*
X215188Y115348D01*
X215176Y115393D01*
X215165Y115431D01*
X215154Y115459D01*
X215149Y115487D01*
X215143Y115504D01*
X215138Y115509D01*
Y115515D01*
X215110Y115565D01*
X215082Y115609D01*
X215049Y115642D01*
X215015Y115676D01*
X214943Y115726D01*
X214877Y115759D01*
X214810Y115776D01*
X214760Y115787D01*
X214738Y115792D01*
D02*
G37*
G36*
X207723D02*
X207695D01*
X207640Y115787D01*
X207590Y115781D01*
X207506Y115748D01*
X207434Y115703D01*
X207373Y115654D01*
X207329Y115604D01*
X207295Y115559D01*
X207279Y115526D01*
X207273Y115520D01*
Y115515D01*
X207251Y115459D01*
X207229Y115398D01*
X207212Y115326D01*
X207201Y115254D01*
X207179Y115099D01*
X207162Y114949D01*
X207157Y114876D01*
X207151Y114810D01*
Y114749D01*
X207146Y114693D01*
Y114649D01*
Y114616D01*
Y114594D01*
Y114588D01*
Y114471D01*
X207151Y114366D01*
X207157Y114266D01*
X207168Y114172D01*
X207179Y114088D01*
X207190Y114011D01*
X207201Y113944D01*
X207212Y113883D01*
X207223Y113828D01*
X207234Y113783D01*
X207245Y113744D01*
X207257Y113717D01*
X207268Y113694D01*
X207273Y113672D01*
X207279Y113667D01*
Y113661D01*
X207307Y113611D01*
X207334Y113572D01*
X207362Y113533D01*
X207395Y113500D01*
X207467Y113450D01*
X207534Y113417D01*
X207595Y113400D01*
X207645Y113389D01*
X207684Y113384D01*
X207695D01*
X207751Y113389D01*
X207795Y113395D01*
X207884Y113428D01*
X207956Y113472D01*
X208017Y113522D01*
X208061Y113572D01*
X208095Y113617D01*
X208111Y113650D01*
X208117Y113655D01*
Y113661D01*
X208139Y113717D01*
X208161Y113783D01*
X208189Y113922D01*
X208211Y114077D01*
X208228Y114227D01*
X208233Y114299D01*
X208239Y114366D01*
Y114427D01*
X208244Y114477D01*
Y114521D01*
Y114555D01*
Y114577D01*
Y114582D01*
Y114699D01*
X208239Y114810D01*
X208233Y114910D01*
X208228Y115004D01*
X208217Y115087D01*
X208206Y115165D01*
X208194Y115232D01*
X208183Y115293D01*
X208172Y115348D01*
X208161Y115393D01*
X208150Y115431D01*
X208139Y115459D01*
X208133Y115487D01*
X208128Y115504D01*
X208122Y115509D01*
Y115515D01*
X208095Y115565D01*
X208067Y115609D01*
X208033Y115642D01*
X208000Y115676D01*
X207928Y115726D01*
X207861Y115759D01*
X207795Y115776D01*
X207745Y115787D01*
X207723Y115792D01*
D02*
G37*
G36*
X202528D02*
X202500D01*
X202445Y115787D01*
X202395Y115781D01*
X202311Y115748D01*
X202239Y115703D01*
X202178Y115654D01*
X202134Y115604D01*
X202101Y115559D01*
X202084Y115526D01*
X202078Y115520D01*
Y115515D01*
X202056Y115459D01*
X202034Y115398D01*
X202017Y115326D01*
X202006Y115254D01*
X201984Y115099D01*
X201967Y114949D01*
X201962Y114876D01*
X201956Y114810D01*
Y114749D01*
X201951Y114693D01*
Y114649D01*
Y114616D01*
Y114594D01*
Y114588D01*
Y114471D01*
X201956Y114366D01*
X201962Y114266D01*
X201973Y114172D01*
X201984Y114088D01*
X201995Y114011D01*
X202006Y113944D01*
X202017Y113883D01*
X202028Y113828D01*
X202040Y113783D01*
X202051Y113744D01*
X202062Y113717D01*
X202073Y113694D01*
X202078Y113672D01*
X202084Y113667D01*
Y113661D01*
X202112Y113611D01*
X202139Y113572D01*
X202167Y113533D01*
X202201Y113500D01*
X202273Y113450D01*
X202339Y113417D01*
X202400Y113400D01*
X202450Y113389D01*
X202489Y113384D01*
X202500D01*
X202556Y113389D01*
X202600Y113395D01*
X202689Y113428D01*
X202761Y113472D01*
X202822Y113522D01*
X202867Y113572D01*
X202900Y113617D01*
X202916Y113650D01*
X202922Y113655D01*
Y113661D01*
X202944Y113717D01*
X202966Y113783D01*
X202994Y113922D01*
X203016Y114077D01*
X203033Y114227D01*
X203039Y114299D01*
X203044Y114366D01*
Y114427D01*
X203050Y114477D01*
Y114521D01*
Y114555D01*
Y114577D01*
Y114582D01*
Y114699D01*
X203044Y114810D01*
X203039Y114910D01*
X203033Y115004D01*
X203022Y115087D01*
X203011Y115165D01*
X203000Y115232D01*
X202989Y115293D01*
X202977Y115348D01*
X202966Y115393D01*
X202955Y115431D01*
X202944Y115459D01*
X202939Y115487D01*
X202933Y115504D01*
X202927Y115509D01*
Y115515D01*
X202900Y115565D01*
X202872Y115609D01*
X202839Y115642D01*
X202805Y115676D01*
X202733Y115726D01*
X202667Y115759D01*
X202600Y115776D01*
X202550Y115787D01*
X202528Y115792D01*
D02*
G37*
G36*
X193825D02*
X193798D01*
X193742Y115787D01*
X193692Y115781D01*
X193609Y115748D01*
X193537Y115703D01*
X193476Y115654D01*
X193431Y115604D01*
X193398Y115559D01*
X193382Y115526D01*
X193376Y115520D01*
Y115515D01*
X193354Y115459D01*
X193332Y115398D01*
X193315Y115326D01*
X193304Y115254D01*
X193282Y115099D01*
X193265Y114949D01*
X193259Y114876D01*
X193254Y114810D01*
Y114749D01*
X193248Y114693D01*
Y114649D01*
Y114616D01*
Y114594D01*
Y114588D01*
Y114471D01*
X193254Y114366D01*
X193259Y114266D01*
X193271Y114172D01*
X193282Y114088D01*
X193293Y114011D01*
X193304Y113944D01*
X193315Y113883D01*
X193326Y113828D01*
X193337Y113783D01*
X193348Y113744D01*
X193359Y113717D01*
X193370Y113694D01*
X193376Y113672D01*
X193382Y113667D01*
Y113661D01*
X193409Y113611D01*
X193437Y113572D01*
X193465Y113533D01*
X193498Y113500D01*
X193570Y113450D01*
X193637Y113417D01*
X193698Y113400D01*
X193748Y113389D01*
X193787Y113384D01*
X193798D01*
X193853Y113389D01*
X193898Y113395D01*
X193986Y113428D01*
X194059Y113472D01*
X194120Y113522D01*
X194164Y113572D01*
X194197Y113617D01*
X194214Y113650D01*
X194220Y113655D01*
Y113661D01*
X194242Y113717D01*
X194264Y113783D01*
X194292Y113922D01*
X194314Y114077D01*
X194331Y114227D01*
X194336Y114299D01*
X194342Y114366D01*
Y114427D01*
X194347Y114477D01*
Y114521D01*
Y114555D01*
Y114577D01*
Y114582D01*
Y114699D01*
X194342Y114810D01*
X194336Y114910D01*
X194331Y115004D01*
X194319Y115087D01*
X194308Y115165D01*
X194297Y115232D01*
X194286Y115293D01*
X194275Y115348D01*
X194264Y115393D01*
X194253Y115431D01*
X194242Y115459D01*
X194236Y115487D01*
X194231Y115504D01*
X194225Y115509D01*
Y115515D01*
X194197Y115565D01*
X194170Y115609D01*
X194136Y115642D01*
X194103Y115676D01*
X194031Y115726D01*
X193964Y115759D01*
X193898Y115776D01*
X193848Y115787D01*
X193825Y115792D01*
D02*
G37*
%LPD*%
D134*
X308661Y141850D02*
D03*
X298661D02*
D03*
X288661D02*
D03*
X278661D02*
D03*
X268661D02*
D03*
X238662D02*
D03*
X228661D02*
D03*
X218661D02*
D03*
X208662D02*
D03*
X198661D02*
D03*
X188662D02*
D03*
X178662D02*
D03*
X365866Y110630D02*
D03*
X375866D02*
D03*
X385866D02*
D03*
X212662Y331850D02*
D03*
X192661D02*
D03*
X182661D02*
D03*
X172661D02*
D03*
X162662D02*
D03*
X152662D02*
D03*
X142661D02*
D03*
X132661D02*
D03*
X202661D02*
D03*
X238661Y331850D02*
D03*
X248661D02*
D03*
X258661D02*
D03*
X268661D02*
D03*
X278661D02*
D03*
X288661D02*
D03*
X298661D02*
D03*
D135*
X258661Y141850D02*
D03*
X168661D02*
D03*
X395866Y110630D02*
D03*
X222661Y331850D02*
D03*
X308661Y331850D02*
D03*
D136*
X429921Y147835D02*
D03*
Y167520D02*
D03*
X430421Y270079D02*
D03*
Y289764D02*
D03*
Y250394D02*
D03*
X429921Y358268D02*
D03*
Y338583D02*
D03*
D137*
X430421Y230709D02*
D03*
D138*
X114567Y116732D02*
D03*
Y384449D02*
D03*
X449213D02*
D03*
X449213Y116732D02*
D03*
M02*
