G04*
G04 #@! TF.GenerationSoftware,Altium Limited,Altium Designer,19.0.15 (446)*
G04*
G04 Layer_Physical_Order=3*
G04 Layer_Color=16440176*
%FSLAX25Y25*%
%MOIN*%
G70*
G01*
G75*
%ADD191C,0.05906*%
%ADD193O,0.11811X0.11024*%
%ADD195C,0.02000*%
%ADD199R,0.25315X0.21063*%
G36*
X451338Y395135D02*
X452715Y394766D01*
X454032Y394221D01*
X455266Y393508D01*
X456396Y392640D01*
X457404Y391633D01*
X458272Y390502D01*
X458985Y389268D01*
X459530Y387951D01*
X459899Y386574D01*
X460085Y385161D01*
X460085Y384449D01*
Y116732D01*
Y116020D01*
X459899Y114607D01*
X459530Y113230D01*
X458985Y111913D01*
X458272Y110679D01*
X457404Y109548D01*
X456397Y108541D01*
X455266Y107673D01*
X454032Y106960D01*
X452715Y106415D01*
X451338Y106046D01*
X449925Y105860D01*
X449212Y105860D01*
X113854D01*
X112441Y106046D01*
X111065Y106415D01*
X109748Y106960D01*
X108514Y107673D01*
X107383Y108541D01*
X106375Y109548D01*
X105508Y110679D01*
X104795Y111913D01*
X104250Y113230D01*
X103881Y114607D01*
X103695Y116020D01*
Y116732D01*
X103695Y384449D01*
Y385161D01*
X103881Y386574D01*
X104250Y387951D01*
X104795Y389268D01*
X105508Y390502D01*
X106375Y391633D01*
X107383Y392640D01*
X108514Y393508D01*
X109748Y394221D01*
X111065Y394766D01*
X112441Y395135D01*
X113854Y395321D01*
X449925D01*
X451338Y395135D01*
D02*
G37*
%LPC*%
G36*
X389961Y393459D02*
X389375Y393342D01*
X388879Y393011D01*
X388548Y392514D01*
X388431Y391929D01*
X388548Y391344D01*
X388879Y390848D01*
X389375Y390516D01*
X389961Y390400D01*
X390546Y390516D01*
X391042Y390848D01*
X391374Y391344D01*
X391490Y391929D01*
X391374Y392514D01*
X391042Y393011D01*
X390546Y393342D01*
X389961Y393459D01*
D02*
G37*
G36*
X363976Y384797D02*
X363391Y384681D01*
X362895Y384349D01*
X362563Y383853D01*
X362447Y383268D01*
X362563Y382682D01*
X362895Y382186D01*
X363391Y381855D01*
X363976Y381738D01*
X364562Y381855D01*
X365058Y382186D01*
X365389Y382682D01*
X365506Y383268D01*
X365389Y383853D01*
X365058Y384349D01*
X364562Y384681D01*
X363976Y384797D01*
D02*
G37*
G36*
X449213Y391281D02*
X447880Y391150D01*
X446598Y390761D01*
X445417Y390129D01*
X444382Y389280D01*
X443532Y388245D01*
X442901Y387063D01*
X442512Y385782D01*
X442381Y384449D01*
X442512Y383116D01*
X442901Y381834D01*
X443532Y380653D01*
X444382Y379618D01*
X445417Y378768D01*
X446598Y378137D01*
X447880Y377748D01*
X449213Y377617D01*
X450546Y377748D01*
X451827Y378137D01*
X453008Y378768D01*
X454044Y379618D01*
X454893Y380653D01*
X455525Y381834D01*
X455913Y383116D01*
X456045Y384449D01*
X455913Y385782D01*
X455525Y387063D01*
X454893Y388245D01*
X454044Y389280D01*
X453008Y390129D01*
X451827Y390761D01*
X450546Y391150D01*
X449213Y391281D01*
D02*
G37*
G36*
X114567D02*
X113234Y391150D01*
X111952Y390761D01*
X110771Y390129D01*
X109736Y389280D01*
X108886Y388245D01*
X108255Y387063D01*
X107866Y385782D01*
X107735Y384449D01*
X107866Y383116D01*
X108255Y381834D01*
X108886Y380653D01*
X109736Y379618D01*
X110771Y378768D01*
X111952Y378137D01*
X113234Y377748D01*
X114567Y377617D01*
X115900Y377748D01*
X117181Y378137D01*
X118363Y378768D01*
X119398Y379618D01*
X120248Y380653D01*
X120879Y381834D01*
X121268Y383116D01*
X121399Y384449D01*
X121268Y385782D01*
X120879Y387063D01*
X120248Y388245D01*
X119398Y389280D01*
X118363Y390129D01*
X117181Y390761D01*
X115900Y391150D01*
X114567Y391281D01*
D02*
G37*
G36*
X390748Y353892D02*
X390163Y353775D01*
X389667Y353444D01*
X389451Y353121D01*
X389442Y353117D01*
X388905D01*
X388895Y353121D01*
X388680Y353444D01*
X388184Y353775D01*
X387598Y353892D01*
X387013Y353775D01*
X386517Y353444D01*
X386186Y352947D01*
X386069Y352362D01*
X386186Y351777D01*
X386517Y351281D01*
X386658Y351186D01*
Y350585D01*
X386517Y350491D01*
X386186Y349995D01*
X386069Y349410D01*
X386186Y348824D01*
X386517Y348328D01*
X387013Y347996D01*
X387598Y347880D01*
X388184Y347996D01*
X388680Y348328D01*
X388895Y348651D01*
X388905Y348654D01*
X389442D01*
X389451Y348651D01*
X389667Y348328D01*
X390163Y347996D01*
X390748Y347880D01*
X391333Y347996D01*
X391829Y348328D01*
X392161Y348824D01*
X392277Y349410D01*
X392161Y349995D01*
X391829Y350491D01*
X391688Y350585D01*
Y351186D01*
X391829Y351281D01*
X392161Y351777D01*
X392277Y352362D01*
X392161Y352947D01*
X391829Y353444D01*
X391333Y353775D01*
X390748Y353892D01*
D02*
G37*
G36*
X430315Y364309D02*
X429528D01*
X428349Y364193D01*
X427216Y363849D01*
X426171Y363291D01*
X425256Y362539D01*
X424505Y361624D01*
X423947Y360579D01*
X423603Y359446D01*
X423487Y358268D01*
X423603Y357089D01*
X423947Y355956D01*
X424505Y354912D01*
X425256Y353996D01*
X426171Y353245D01*
X427216Y352687D01*
X428349Y352343D01*
X429528Y352227D01*
X430315D01*
X431494Y352343D01*
X432627Y352687D01*
X433671Y353245D01*
X434586Y353996D01*
X435338Y354912D01*
X435896Y355956D01*
X436240Y357089D01*
X436356Y358268D01*
X436240Y359446D01*
X435896Y360579D01*
X435338Y361624D01*
X434586Y362539D01*
X433671Y363291D01*
X432627Y363849D01*
X431494Y364193D01*
X430315Y364309D01*
D02*
G37*
G36*
X390748Y345905D02*
X377362D01*
Y341303D01*
X376862Y341151D01*
X376672Y341436D01*
X376176Y341767D01*
X375590Y341884D01*
X375005Y341767D01*
X374509Y341436D01*
X374178Y340940D01*
X374061Y340354D01*
X374178Y339769D01*
X374509Y339273D01*
X375005Y338941D01*
X375590Y338825D01*
X376176Y338941D01*
X376672Y339273D01*
X376862Y339558D01*
X377362Y339406D01*
Y333819D01*
X390748D01*
Y345905D01*
D02*
G37*
G36*
X430315Y344624D02*
X429528D01*
X428349Y344508D01*
X427216Y344164D01*
X426171Y343605D01*
X425256Y342854D01*
X424505Y341939D01*
X423947Y340894D01*
X423603Y339761D01*
X423487Y338583D01*
X423603Y337404D01*
X423947Y336271D01*
X424505Y335226D01*
X425256Y334311D01*
X426171Y333560D01*
X427216Y333002D01*
X428349Y332658D01*
X429528Y332542D01*
X430315D01*
X431494Y332658D01*
X432627Y333002D01*
X433671Y333560D01*
X434586Y334311D01*
X435338Y335226D01*
X435896Y336271D01*
X436240Y337404D01*
X436356Y338583D01*
X436240Y339761D01*
X435896Y340894D01*
X435338Y341939D01*
X434586Y342854D01*
X433671Y343605D01*
X432627Y344164D01*
X431494Y344508D01*
X430315Y344624D01*
D02*
G37*
G36*
X226114Y335303D02*
X219209D01*
Y328398D01*
X226114D01*
Y335303D01*
D02*
G37*
G36*
X312114Y335303D02*
X305209D01*
Y328397D01*
X312114D01*
Y335303D01*
D02*
G37*
G36*
X212662Y335333D02*
X211760Y335214D01*
X210920Y334866D01*
X210199Y334313D01*
X209646Y333592D01*
X209298Y332752D01*
X209179Y331850D01*
X209298Y330949D01*
X209646Y330109D01*
X210199Y329388D01*
X210920Y328834D01*
X211760Y328486D01*
X212662Y328368D01*
X213563Y328486D01*
X214403Y328834D01*
X215124Y329388D01*
X215677Y330109D01*
X216025Y330949D01*
X216144Y331850D01*
X216025Y332752D01*
X215677Y333592D01*
X215124Y334313D01*
X214403Y334866D01*
X213563Y335214D01*
X212662Y335333D01*
D02*
G37*
G36*
X202661D02*
X201760Y335214D01*
X200920Y334866D01*
X200199Y334313D01*
X199645Y333592D01*
X199298Y332752D01*
X199179Y331850D01*
X199298Y330949D01*
X199645Y330109D01*
X200199Y329388D01*
X200920Y328834D01*
X201760Y328486D01*
X202661Y328368D01*
X203563Y328486D01*
X204403Y328834D01*
X205124Y329388D01*
X205678Y330109D01*
X206025Y330949D01*
X206144Y331850D01*
X206025Y332752D01*
X205678Y333592D01*
X205124Y334313D01*
X204403Y334866D01*
X203563Y335214D01*
X202661Y335333D01*
D02*
G37*
G36*
X192661D02*
X191760Y335214D01*
X190920Y334866D01*
X190199Y334313D01*
X189646Y333592D01*
X189298Y332752D01*
X189179Y331850D01*
X189298Y330949D01*
X189646Y330109D01*
X190199Y329388D01*
X190920Y328834D01*
X191760Y328486D01*
X192661Y328368D01*
X193563Y328486D01*
X194403Y328834D01*
X195124Y329388D01*
X195677Y330109D01*
X196025Y330949D01*
X196144Y331850D01*
X196025Y332752D01*
X195677Y333592D01*
X195124Y334313D01*
X194403Y334866D01*
X193563Y335214D01*
X192661Y335333D01*
D02*
G37*
G36*
X182661D02*
X181760Y335214D01*
X180920Y334866D01*
X180199Y334313D01*
X179646Y333592D01*
X179298Y332752D01*
X179179Y331850D01*
X179298Y330949D01*
X179646Y330109D01*
X180199Y329388D01*
X180920Y328834D01*
X181760Y328486D01*
X182661Y328368D01*
X183563Y328486D01*
X184403Y328834D01*
X185124Y329388D01*
X185678Y330109D01*
X186025Y330949D01*
X186144Y331850D01*
X186025Y332752D01*
X185678Y333592D01*
X185124Y334313D01*
X184403Y334866D01*
X183563Y335214D01*
X182661Y335333D01*
D02*
G37*
G36*
X172661D02*
X171760Y335214D01*
X170920Y334866D01*
X170199Y334313D01*
X169646Y333592D01*
X169298Y332752D01*
X169179Y331850D01*
X169298Y330949D01*
X169646Y330109D01*
X170199Y329388D01*
X170920Y328834D01*
X171760Y328486D01*
X172661Y328368D01*
X173563Y328486D01*
X174403Y328834D01*
X175124Y329388D01*
X175678Y330109D01*
X176025Y330949D01*
X176144Y331850D01*
X176025Y332752D01*
X175678Y333592D01*
X175124Y334313D01*
X174403Y334866D01*
X173563Y335214D01*
X172661Y335333D01*
D02*
G37*
G36*
X152662D02*
X151760Y335214D01*
X150920Y334866D01*
X150199Y334313D01*
X149645Y333592D01*
X149298Y332752D01*
X149179Y331850D01*
X149298Y330949D01*
X149645Y330109D01*
X150199Y329388D01*
X150920Y328834D01*
X151760Y328486D01*
X152662Y328368D01*
X153563Y328486D01*
X154403Y328834D01*
X155124Y329388D01*
X155677Y330109D01*
X156025Y330949D01*
X156144Y331850D01*
X156025Y332752D01*
X155677Y333592D01*
X155124Y334313D01*
X154403Y334866D01*
X153563Y335214D01*
X152662Y335333D01*
D02*
G37*
G36*
X142661D02*
X141760Y335214D01*
X140920Y334866D01*
X140199Y334313D01*
X139646Y333592D01*
X139298Y332752D01*
X139179Y331850D01*
X139298Y330949D01*
X139646Y330109D01*
X140199Y329388D01*
X140920Y328834D01*
X141760Y328486D01*
X142661Y328368D01*
X143563Y328486D01*
X144403Y328834D01*
X145124Y329388D01*
X145677Y330109D01*
X146025Y330949D01*
X146144Y331850D01*
X146025Y332752D01*
X145677Y333592D01*
X145124Y334313D01*
X144403Y334866D01*
X143563Y335214D01*
X142661Y335333D01*
D02*
G37*
G36*
X132661D02*
X131760Y335214D01*
X130920Y334866D01*
X130199Y334313D01*
X129646Y333592D01*
X129298Y332752D01*
X129179Y331850D01*
X129298Y330949D01*
X129646Y330109D01*
X130199Y329388D01*
X130920Y328834D01*
X131760Y328486D01*
X132661Y328368D01*
X133563Y328486D01*
X134403Y328834D01*
X135124Y329388D01*
X135678Y330109D01*
X136025Y330949D01*
X136144Y331850D01*
X136025Y332752D01*
X135678Y333592D01*
X135124Y334313D01*
X134403Y334866D01*
X133563Y335214D01*
X132661Y335333D01*
D02*
G37*
G36*
X298661Y335333D02*
X297760Y335214D01*
X296920Y334866D01*
X296199Y334313D01*
X295645Y333591D01*
X295297Y332751D01*
X295179Y331850D01*
X295297Y330949D01*
X295645Y330109D01*
X296199Y329388D01*
X296920Y328834D01*
X297760Y328486D01*
X298661Y328368D01*
X299563Y328486D01*
X300403Y328834D01*
X301124Y329388D01*
X301677Y330109D01*
X302025Y330949D01*
X302144Y331850D01*
X302025Y332751D01*
X301677Y333591D01*
X301124Y334313D01*
X300403Y334866D01*
X299563Y335214D01*
X298661Y335333D01*
D02*
G37*
G36*
X288661D02*
X287760Y335214D01*
X286920Y334866D01*
X286199Y334313D01*
X285645Y333591D01*
X285297Y332751D01*
X285179Y331850D01*
X285297Y330949D01*
X285645Y330109D01*
X286199Y329388D01*
X286920Y328834D01*
X287760Y328486D01*
X288661Y328368D01*
X289563Y328486D01*
X290403Y328834D01*
X291124Y329388D01*
X291677Y330109D01*
X292025Y330949D01*
X292144Y331850D01*
X292025Y332751D01*
X291677Y333591D01*
X291124Y334313D01*
X290403Y334866D01*
X289563Y335214D01*
X288661Y335333D01*
D02*
G37*
G36*
X278661D02*
X277760Y335214D01*
X276920Y334866D01*
X276199Y334313D01*
X275645Y333591D01*
X275297Y332751D01*
X275179Y331850D01*
X275297Y330949D01*
X275645Y330109D01*
X276199Y329388D01*
X276920Y328834D01*
X277760Y328486D01*
X278661Y328368D01*
X279563Y328486D01*
X280403Y328834D01*
X281124Y329388D01*
X281677Y330109D01*
X282025Y330949D01*
X282144Y331850D01*
X282025Y332751D01*
X281677Y333591D01*
X281124Y334313D01*
X280403Y334866D01*
X279563Y335214D01*
X278661Y335333D01*
D02*
G37*
G36*
X268661D02*
X267760Y335214D01*
X266920Y334866D01*
X266199Y334313D01*
X265645Y333591D01*
X265297Y332751D01*
X265179Y331850D01*
X265297Y330949D01*
X265645Y330109D01*
X266199Y329388D01*
X266920Y328834D01*
X267760Y328486D01*
X268661Y328368D01*
X269563Y328486D01*
X270403Y328834D01*
X271124Y329388D01*
X271677Y330109D01*
X272025Y330949D01*
X272144Y331850D01*
X272025Y332751D01*
X271677Y333591D01*
X271124Y334313D01*
X270403Y334866D01*
X269563Y335214D01*
X268661Y335333D01*
D02*
G37*
G36*
X258661D02*
X257760Y335214D01*
X256920Y334866D01*
X256199Y334313D01*
X255645Y333591D01*
X255297Y332751D01*
X255179Y331850D01*
X255297Y330949D01*
X255645Y330109D01*
X256199Y329388D01*
X256920Y328834D01*
X257760Y328486D01*
X258661Y328368D01*
X259563Y328486D01*
X260403Y328834D01*
X261124Y329388D01*
X261677Y330109D01*
X262025Y330949D01*
X262144Y331850D01*
X262025Y332751D01*
X261677Y333591D01*
X261124Y334313D01*
X260403Y334866D01*
X259563Y335214D01*
X258661Y335333D01*
D02*
G37*
G36*
X248661D02*
X247760Y335214D01*
X246920Y334866D01*
X246199Y334313D01*
X245645Y333591D01*
X245297Y332751D01*
X245179Y331850D01*
X245297Y330949D01*
X245645Y330109D01*
X246199Y329388D01*
X246920Y328834D01*
X247760Y328486D01*
X248661Y328368D01*
X249563Y328486D01*
X250403Y328834D01*
X251124Y329388D01*
X251677Y330109D01*
X252025Y330949D01*
X252144Y331850D01*
X252025Y332751D01*
X251677Y333591D01*
X251124Y334313D01*
X250403Y334866D01*
X249563Y335214D01*
X248661Y335333D01*
D02*
G37*
G36*
X238661D02*
X237760Y335214D01*
X236920Y334866D01*
X236199Y334313D01*
X235645Y333591D01*
X235297Y332751D01*
X235179Y331850D01*
X235297Y330949D01*
X235645Y330109D01*
X236199Y329388D01*
X236920Y328834D01*
X237760Y328486D01*
X238661Y328368D01*
X239563Y328486D01*
X240403Y328834D01*
X241124Y329388D01*
X241677Y330109D01*
X242025Y330949D01*
X242144Y331850D01*
X242025Y332751D01*
X241677Y333591D01*
X241124Y334313D01*
X240403Y334866D01*
X239563Y335214D01*
X238661Y335333D01*
D02*
G37*
G36*
X375590Y331057D02*
X375005Y330941D01*
X374509Y330609D01*
X374178Y330113D01*
X374061Y329528D01*
X374178Y328942D01*
X374509Y328446D01*
X375005Y328115D01*
X375590Y327998D01*
X376176Y328115D01*
X376672Y328446D01*
X377004Y328942D01*
X377120Y329528D01*
X377004Y330113D01*
X376672Y330609D01*
X376176Y330941D01*
X375590Y331057D01*
D02*
G37*
G36*
X364567Y330860D02*
X363982Y330744D01*
X363486Y330412D01*
X363154Y329916D01*
X363037Y329331D01*
X363154Y328745D01*
X363486Y328249D01*
X363982Y327918D01*
X364567Y327801D01*
X365152Y327918D01*
X365648Y328249D01*
X365980Y328745D01*
X366096Y329331D01*
X365980Y329916D01*
X365648Y330412D01*
X365152Y330744D01*
X364567Y330860D01*
D02*
G37*
G36*
X415748Y320230D02*
X415163Y320114D01*
X414667Y319782D01*
X414335Y319286D01*
X414219Y318701D01*
X414335Y318115D01*
X414667Y317619D01*
X415163Y317288D01*
X415748Y317171D01*
X416333Y317288D01*
X416829Y317619D01*
X417161Y318115D01*
X417277Y318701D01*
X417161Y319286D01*
X416829Y319782D01*
X416333Y320114D01*
X415748Y320230D01*
D02*
G37*
G36*
X405709D02*
X405123Y320114D01*
X404627Y319782D01*
X404296Y319286D01*
X404179Y318701D01*
X404296Y318115D01*
X404627Y317619D01*
X405123Y317288D01*
X405709Y317171D01*
X406294Y317288D01*
X406790Y317619D01*
X407122Y318115D01*
X407238Y318701D01*
X407122Y319286D01*
X406790Y319782D01*
X406294Y320114D01*
X405709Y320230D01*
D02*
G37*
G36*
X397835D02*
X397249Y320114D01*
X396753Y319782D01*
X396422Y319286D01*
X396305Y318701D01*
X396422Y318115D01*
X396753Y317619D01*
X397249Y317288D01*
X397835Y317171D01*
X398420Y317288D01*
X398916Y317619D01*
X399248Y318115D01*
X399364Y318701D01*
X399248Y319286D01*
X398916Y319782D01*
X398420Y320114D01*
X397835Y320230D01*
D02*
G37*
G36*
X441535Y320033D02*
X440950Y319917D01*
X440454Y319585D01*
X440123Y319089D01*
X440006Y318504D01*
X440123Y317919D01*
X440454Y317423D01*
X440950Y317091D01*
X441535Y316974D01*
X442121Y317091D01*
X442617Y317423D01*
X442948Y317919D01*
X443065Y318504D01*
X442948Y319089D01*
X442617Y319585D01*
X442121Y319917D01*
X441535Y320033D01*
D02*
G37*
G36*
X433661D02*
X433076Y319917D01*
X432580Y319585D01*
X432248Y319089D01*
X432132Y318504D01*
X432248Y317919D01*
X432580Y317423D01*
X433076Y317091D01*
X433661Y316974D01*
X434247Y317091D01*
X434743Y317423D01*
X435074Y317919D01*
X435191Y318504D01*
X435074Y319089D01*
X434743Y319585D01*
X434247Y319917D01*
X433661Y320033D01*
D02*
G37*
G36*
X425787D02*
X425202Y319917D01*
X424706Y319585D01*
X424374Y319089D01*
X424258Y318504D01*
X424374Y317919D01*
X424706Y317423D01*
X425202Y317091D01*
X425787Y316974D01*
X426373Y317091D01*
X426869Y317423D01*
X427200Y317919D01*
X427317Y318504D01*
X427200Y319089D01*
X426869Y319585D01*
X426373Y319917D01*
X425787Y320033D01*
D02*
G37*
G36*
X190945Y314522D02*
X190360Y314405D01*
X189863Y314074D01*
X189532Y313577D01*
X189416Y312992D01*
X189532Y312407D01*
X189863Y311911D01*
X190360Y311579D01*
X190945Y311463D01*
X191530Y311579D01*
X192026Y311911D01*
X192358Y312407D01*
X192474Y312992D01*
X192358Y313577D01*
X192026Y314074D01*
X191530Y314405D01*
X190945Y314522D01*
D02*
G37*
G36*
X415748Y312356D02*
X415163Y312240D01*
X414667Y311908D01*
X414335Y311412D01*
X414219Y310827D01*
X414335Y310242D01*
X414667Y309745D01*
X415163Y309414D01*
X415748Y309297D01*
X416333Y309414D01*
X416829Y309745D01*
X417161Y310242D01*
X417277Y310827D01*
X417161Y311412D01*
X416829Y311908D01*
X416333Y312240D01*
X415748Y312356D01*
D02*
G37*
G36*
X405709D02*
X405123Y312240D01*
X404627Y311908D01*
X404296Y311412D01*
X404179Y310827D01*
X404296Y310242D01*
X404627Y309745D01*
X405123Y309414D01*
X405709Y309297D01*
X406294Y309414D01*
X406790Y309745D01*
X407122Y310242D01*
X407238Y310827D01*
X407122Y311412D01*
X406790Y311908D01*
X406294Y312240D01*
X405709Y312356D01*
D02*
G37*
G36*
X397835D02*
X397249Y312240D01*
X396753Y311908D01*
X396422Y311412D01*
X396305Y310827D01*
X396422Y310242D01*
X396753Y309745D01*
X397249Y309414D01*
X397835Y309297D01*
X398420Y309414D01*
X398916Y309745D01*
X399248Y310242D01*
X399364Y310827D01*
X399248Y311412D01*
X398916Y311908D01*
X398420Y312240D01*
X397835Y312356D01*
D02*
G37*
G36*
X441535Y312159D02*
X440950Y312043D01*
X440454Y311711D01*
X440123Y311215D01*
X440006Y310630D01*
X440123Y310045D01*
X440454Y309548D01*
X440950Y309217D01*
X441535Y309101D01*
X442121Y309217D01*
X442617Y309548D01*
X442948Y310045D01*
X443065Y310630D01*
X442948Y311215D01*
X442617Y311711D01*
X442121Y312043D01*
X441535Y312159D01*
D02*
G37*
G36*
X433661D02*
X433076Y312043D01*
X432580Y311711D01*
X432248Y311215D01*
X432132Y310630D01*
X432248Y310045D01*
X432580Y309548D01*
X433076Y309217D01*
X433661Y309101D01*
X434247Y309217D01*
X434743Y309548D01*
X435074Y310045D01*
X435191Y310630D01*
X435074Y311215D01*
X434743Y311711D01*
X434247Y312043D01*
X433661Y312159D01*
D02*
G37*
G36*
X425787D02*
X425202Y312043D01*
X424706Y311711D01*
X424374Y311215D01*
X424258Y310630D01*
X424374Y310045D01*
X424706Y309548D01*
X425202Y309217D01*
X425787Y309101D01*
X426373Y309217D01*
X426869Y309548D01*
X427200Y310045D01*
X427317Y310630D01*
X427200Y311215D01*
X426869Y311711D01*
X426373Y312043D01*
X425787Y312159D01*
D02*
G37*
G36*
X190748Y310781D02*
X190163Y310665D01*
X189667Y310333D01*
X189335Y309837D01*
X189219Y309252D01*
X189335Y308667D01*
X189667Y308171D01*
X190163Y307839D01*
X190748Y307723D01*
X191333Y307839D01*
X191830Y308171D01*
X192161Y308667D01*
X192277Y309252D01*
X192161Y309837D01*
X191830Y310333D01*
X191333Y310665D01*
X190748Y310781D01*
D02*
G37*
G36*
X191142Y306647D02*
X190557Y306531D01*
X190060Y306200D01*
X189729Y305703D01*
X189612Y305118D01*
X189729Y304533D01*
X190060Y304037D01*
X190557Y303705D01*
X191142Y303589D01*
X191727Y303705D01*
X192223Y304037D01*
X192555Y304533D01*
X192671Y305118D01*
X192555Y305703D01*
X192223Y306200D01*
X191727Y306531D01*
X191142Y306647D01*
D02*
G37*
G36*
X415748Y304482D02*
X415163Y304366D01*
X414667Y304034D01*
X414335Y303538D01*
X414219Y302953D01*
X414335Y302367D01*
X414667Y301871D01*
X415163Y301540D01*
X415748Y301423D01*
X416333Y301540D01*
X416829Y301871D01*
X417161Y302367D01*
X417277Y302953D01*
X417161Y303538D01*
X416829Y304034D01*
X416333Y304366D01*
X415748Y304482D01*
D02*
G37*
G36*
X405709D02*
X405123Y304366D01*
X404627Y304034D01*
X404296Y303538D01*
X404179Y302953D01*
X404296Y302367D01*
X404627Y301871D01*
X405123Y301540D01*
X405709Y301423D01*
X406294Y301540D01*
X406790Y301871D01*
X407122Y302367D01*
X407238Y302953D01*
X407122Y303538D01*
X406790Y304034D01*
X406294Y304366D01*
X405709Y304482D01*
D02*
G37*
G36*
X441535Y304285D02*
X440950Y304169D01*
X440454Y303837D01*
X440123Y303341D01*
X440006Y302756D01*
X440123Y302171D01*
X440454Y301675D01*
X440950Y301343D01*
X441535Y301226D01*
X442121Y301343D01*
X442617Y301675D01*
X442948Y302171D01*
X443065Y302756D01*
X442948Y303341D01*
X442617Y303837D01*
X442121Y304169D01*
X441535Y304285D01*
D02*
G37*
G36*
X433661D02*
X433076Y304169D01*
X432580Y303837D01*
X432248Y303341D01*
X432132Y302756D01*
X432248Y302171D01*
X432580Y301675D01*
X433076Y301343D01*
X433661Y301226D01*
X434247Y301343D01*
X434743Y301675D01*
X435074Y302171D01*
X435191Y302756D01*
X435074Y303341D01*
X434743Y303837D01*
X434247Y304169D01*
X433661Y304285D01*
D02*
G37*
G36*
X425787D02*
X425202Y304169D01*
X424706Y303837D01*
X424374Y303341D01*
X424258Y302756D01*
X424374Y302171D01*
X424706Y301675D01*
X425202Y301343D01*
X425787Y301226D01*
X426373Y301343D01*
X426869Y301675D01*
X427200Y302171D01*
X427317Y302756D01*
X427200Y303341D01*
X426869Y303837D01*
X426373Y304169D01*
X425787Y304285D01*
D02*
G37*
G36*
X349252Y300742D02*
X348667Y300626D01*
X348170Y300294D01*
X347839Y299798D01*
X347723Y299213D01*
X347839Y298627D01*
X348170Y298131D01*
X348667Y297800D01*
X349252Y297683D01*
X349837Y297800D01*
X350333Y298131D01*
X350665Y298627D01*
X350781Y299213D01*
X350665Y299798D01*
X350333Y300294D01*
X349837Y300626D01*
X349252Y300742D01*
D02*
G37*
G36*
X377756Y299010D02*
X377171Y298893D01*
X376675Y298562D01*
X376343Y298066D01*
X376226Y297480D01*
X376343Y296895D01*
X376675Y296399D01*
X377171Y296067D01*
X377756Y295951D01*
X378341Y296067D01*
X378837Y296399D01*
X379169Y296895D01*
X379285Y297480D01*
X379169Y298066D01*
X378837Y298562D01*
X378341Y298893D01*
X377756Y299010D01*
D02*
G37*
G36*
X415748Y296608D02*
X415163Y296492D01*
X414667Y296160D01*
X414335Y295664D01*
X414219Y295079D01*
X414335Y294494D01*
X414667Y293997D01*
X415163Y293666D01*
X415748Y293549D01*
X416333Y293666D01*
X416829Y293997D01*
X417161Y294494D01*
X417277Y295079D01*
X417161Y295664D01*
X416829Y296160D01*
X416333Y296492D01*
X415748Y296608D01*
D02*
G37*
G36*
X441535Y296411D02*
X440950Y296295D01*
X440454Y295963D01*
X440123Y295467D01*
X440006Y294882D01*
X440123Y294297D01*
X440454Y293800D01*
X440950Y293469D01*
X441535Y293353D01*
X442121Y293469D01*
X442617Y293800D01*
X442948Y294297D01*
X443065Y294882D01*
X442948Y295467D01*
X442617Y295963D01*
X442121Y296295D01*
X441535Y296411D01*
D02*
G37*
G36*
X349252Y295427D02*
X348667Y295311D01*
X348170Y294979D01*
X347839Y294483D01*
X347723Y293898D01*
X347839Y293312D01*
X348170Y292816D01*
X348667Y292485D01*
X349252Y292368D01*
X349837Y292485D01*
X350333Y292816D01*
X350665Y293312D01*
X350781Y293898D01*
X350665Y294483D01*
X350333Y294979D01*
X349837Y295311D01*
X349252Y295427D01*
D02*
G37*
G36*
X387402Y290899D02*
X386816Y290783D01*
X386320Y290452D01*
X385989Y289955D01*
X385872Y289370D01*
X385989Y288785D01*
X386320Y288289D01*
X386816Y287957D01*
X387402Y287841D01*
X387987Y287957D01*
X388483Y288289D01*
X388814Y288785D01*
X388931Y289370D01*
X388814Y289955D01*
X388483Y290452D01*
X387987Y290783D01*
X387402Y290899D01*
D02*
G37*
G36*
X396260Y289128D02*
X395675Y289011D01*
X395178Y288680D01*
X394847Y288184D01*
X394730Y287598D01*
X394847Y287013D01*
X395178Y286517D01*
X395675Y286186D01*
X396260Y286069D01*
X396845Y286186D01*
X397341Y286517D01*
X397673Y287013D01*
X397789Y287598D01*
X397673Y288184D01*
X397341Y288680D01*
X396845Y289011D01*
X396260Y289128D01*
D02*
G37*
G36*
X415748Y288734D02*
X415163Y288618D01*
X414667Y288286D01*
X414335Y287790D01*
X414219Y287205D01*
X414335Y286619D01*
X414667Y286123D01*
X415163Y285792D01*
X415748Y285675D01*
X416333Y285792D01*
X416829Y286123D01*
X417161Y286619D01*
X417277Y287205D01*
X417161Y287790D01*
X416829Y288286D01*
X416333Y288618D01*
X415748Y288734D01*
D02*
G37*
G36*
X377756Y288616D02*
X377171Y288500D01*
X376675Y288168D01*
X376343Y287672D01*
X376226Y287087D01*
X376343Y286501D01*
X376675Y286005D01*
X377171Y285674D01*
X377756Y285557D01*
X378341Y285674D01*
X378837Y286005D01*
X379169Y286501D01*
X379285Y287087D01*
X379169Y287672D01*
X378837Y288168D01*
X378341Y288500D01*
X377756Y288616D01*
D02*
G37*
G36*
X441535Y288537D02*
X440950Y288421D01*
X440454Y288089D01*
X440123Y287593D01*
X440006Y287008D01*
X440123Y286423D01*
X440454Y285926D01*
X440950Y285595D01*
X441535Y285478D01*
X442121Y285595D01*
X442617Y285926D01*
X442948Y286423D01*
X443065Y287008D01*
X442948Y287593D01*
X442617Y288089D01*
X442121Y288421D01*
X441535Y288537D01*
D02*
G37*
G36*
X430815Y295805D02*
X430028D01*
X428849Y295689D01*
X427716Y295345D01*
X426671Y294787D01*
X425756Y294035D01*
X425005Y293120D01*
X424446Y292075D01*
X424103Y290942D01*
X423987Y289764D01*
X424103Y288585D01*
X424446Y287452D01*
X425005Y286408D01*
X425756Y285492D01*
X426671Y284741D01*
X427716Y284183D01*
X428849Y283839D01*
X430028Y283723D01*
X430815D01*
X431993Y283839D01*
X433127Y284183D01*
X434171Y284741D01*
X435086Y285492D01*
X435838Y286408D01*
X436396Y287452D01*
X436740Y288585D01*
X436856Y289764D01*
X436740Y290942D01*
X436396Y292075D01*
X435838Y293120D01*
X435086Y294035D01*
X434171Y294787D01*
X433127Y295345D01*
X431993Y295689D01*
X430815Y295805D01*
D02*
G37*
G36*
X366339Y283813D02*
X365753Y283696D01*
X365257Y283365D01*
X364926Y282869D01*
X364809Y282283D01*
X364926Y281698D01*
X365257Y281202D01*
X365753Y280871D01*
X366339Y280754D01*
X366924Y280871D01*
X367420Y281202D01*
X367752Y281698D01*
X367868Y282283D01*
X367752Y282869D01*
X367420Y283365D01*
X366924Y283696D01*
X366339Y283813D01*
D02*
G37*
G36*
X377756Y283419D02*
X377171Y283303D01*
X376675Y282971D01*
X376343Y282475D01*
X376226Y281890D01*
X376343Y281305D01*
X376675Y280808D01*
X377171Y280477D01*
X377756Y280360D01*
X378341Y280477D01*
X378837Y280808D01*
X379169Y281305D01*
X379285Y281890D01*
X379169Y282475D01*
X378837Y282971D01*
X378341Y283303D01*
X377756Y283419D01*
D02*
G37*
G36*
X415748Y281254D02*
X415163Y281137D01*
X414667Y280806D01*
X414335Y280310D01*
X414219Y279724D01*
X414335Y279139D01*
X414667Y278643D01*
X415163Y278311D01*
X415748Y278195D01*
X416333Y278311D01*
X416829Y278643D01*
X417161Y279139D01*
X417277Y279724D01*
X417161Y280310D01*
X416829Y280806D01*
X416333Y281137D01*
X415748Y281254D01*
D02*
G37*
G36*
X201575Y277120D02*
X200990Y277004D01*
X200493Y276672D01*
X200162Y276176D01*
X200045Y275590D01*
X200162Y275005D01*
X200493Y274509D01*
X200990Y274178D01*
X201575Y274061D01*
X202160Y274178D01*
X202656Y274509D01*
X202988Y275005D01*
X203104Y275590D01*
X202988Y276176D01*
X202656Y276672D01*
X202160Y277004D01*
X201575Y277120D01*
D02*
G37*
G36*
X219980Y276136D02*
X219395Y276019D01*
X218899Y275688D01*
X218567Y275192D01*
X218451Y274606D01*
X218567Y274021D01*
X218899Y273525D01*
X219395Y273193D01*
X219980Y273077D01*
X220566Y273193D01*
X221062Y273525D01*
X221393Y274021D01*
X221510Y274606D01*
X221393Y275192D01*
X221062Y275688D01*
X220566Y276019D01*
X219980Y276136D01*
D02*
G37*
G36*
X212254D02*
X211669Y276019D01*
X211173Y275688D01*
X210841Y275192D01*
X210724Y274606D01*
X210841Y274021D01*
X211173Y273525D01*
X211669Y273193D01*
X212254Y273077D01*
X212839Y273193D01*
X213335Y273525D01*
X213667Y274021D01*
X213783Y274606D01*
X213667Y275192D01*
X213335Y275688D01*
X212839Y276019D01*
X212254Y276136D01*
D02*
G37*
G36*
X231496Y275939D02*
X230911Y275822D01*
X230415Y275491D01*
X230083Y274995D01*
X229967Y274410D01*
X230083Y273824D01*
X230415Y273328D01*
X230911Y272996D01*
X231496Y272880D01*
X232081Y272996D01*
X232577Y273328D01*
X232909Y273824D01*
X233026Y274410D01*
X232909Y274995D01*
X232577Y275491D01*
X232081Y275822D01*
X231496Y275939D01*
D02*
G37*
G36*
X415748Y273380D02*
X415163Y273263D01*
X414667Y272932D01*
X414335Y272436D01*
X414219Y271850D01*
X414335Y271265D01*
X414667Y270769D01*
X415163Y270437D01*
X415748Y270321D01*
X416333Y270437D01*
X416829Y270769D01*
X417161Y271265D01*
X417277Y271850D01*
X417161Y272436D01*
X416829Y272932D01*
X416333Y273263D01*
X415748Y273380D01*
D02*
G37*
G36*
X405118Y270033D02*
X404533Y269917D01*
X404037Y269585D01*
X403821Y269263D01*
X403812Y269259D01*
X403275D01*
X403265Y269263D01*
X403050Y269585D01*
X402554Y269917D01*
X401968Y270033D01*
X401383Y269917D01*
X400887Y269585D01*
X400556Y269089D01*
X400439Y268504D01*
X400556Y267919D01*
X400887Y267423D01*
X401028Y267328D01*
Y266727D01*
X400887Y266633D01*
X400556Y266137D01*
X400439Y265551D01*
X400556Y264966D01*
X400887Y264470D01*
X401383Y264138D01*
X401968Y264022D01*
X402554Y264138D01*
X403050Y264470D01*
X403265Y264792D01*
X403275Y264796D01*
X403812D01*
X403821Y264792D01*
X404037Y264470D01*
X404533Y264138D01*
X405118Y264022D01*
X405703Y264138D01*
X406200Y264470D01*
X406531Y264966D01*
X406647Y265551D01*
X406531Y266137D01*
X406200Y266633D01*
X406059Y266727D01*
Y267328D01*
X406200Y267423D01*
X406531Y267919D01*
X406647Y268504D01*
X406531Y269089D01*
X406200Y269585D01*
X405703Y269917D01*
X405118Y270033D01*
D02*
G37*
G36*
X415748Y265506D02*
X415163Y265389D01*
X414667Y265058D01*
X414335Y264562D01*
X414219Y263976D01*
X414335Y263391D01*
X414667Y262895D01*
X415163Y262563D01*
X415748Y262447D01*
X416333Y262563D01*
X416829Y262895D01*
X417161Y263391D01*
X417277Y263976D01*
X417161Y264562D01*
X416829Y265058D01*
X416333Y265389D01*
X415748Y265506D01*
D02*
G37*
G36*
Y257632D02*
X415163Y257515D01*
X414667Y257184D01*
X414335Y256688D01*
X414219Y256102D01*
X414335Y255517D01*
X414667Y255021D01*
X415163Y254689D01*
X415748Y254573D01*
X416333Y254689D01*
X416829Y255021D01*
X417161Y255517D01*
X417277Y256102D01*
X417161Y256688D01*
X416829Y257184D01*
X416333Y257515D01*
X415748Y257632D01*
D02*
G37*
G36*
X201969Y257238D02*
X201383Y257122D01*
X200887Y256790D01*
X200555Y256294D01*
X200439Y255709D01*
X200555Y255123D01*
X200887Y254627D01*
X201383Y254296D01*
X201969Y254179D01*
X202554Y254296D01*
X203050Y254627D01*
X203381Y255123D01*
X203498Y255709D01*
X203381Y256294D01*
X203050Y256790D01*
X202554Y257122D01*
X201969Y257238D01*
D02*
G37*
G36*
X404921Y254679D02*
X404336Y254563D01*
X403840Y254231D01*
X403508Y253735D01*
X403392Y253150D01*
X403508Y252564D01*
X403840Y252068D01*
X404336Y251737D01*
X404921Y251620D01*
X405507Y251737D01*
X406003Y252068D01*
X406334Y252564D01*
X406451Y253150D01*
X406334Y253735D01*
X406003Y254231D01*
X405507Y254563D01*
X404921Y254679D01*
D02*
G37*
G36*
X397047D02*
X396462Y254563D01*
X395966Y254231D01*
X395634Y253735D01*
X395518Y253150D01*
X395634Y252564D01*
X395966Y252068D01*
X396462Y251737D01*
X397047Y251620D01*
X397633Y251737D01*
X398129Y252068D01*
X398460Y252564D01*
X398577Y253150D01*
X398460Y253735D01*
X398129Y254231D01*
X397633Y254563D01*
X397047Y254679D01*
D02*
G37*
G36*
X201575Y252907D02*
X200990Y252791D01*
X200493Y252459D01*
X200162Y251963D01*
X200045Y251378D01*
X200162Y250793D01*
X200493Y250296D01*
X200990Y249965D01*
X201575Y249849D01*
X202160Y249965D01*
X202656Y250296D01*
X202988Y250793D01*
X203104Y251378D01*
X202988Y251963D01*
X202656Y252459D01*
X202160Y252791D01*
X201575Y252907D01*
D02*
G37*
G36*
X256299Y252120D02*
X255714Y252004D01*
X255218Y251672D01*
X254886Y251176D01*
X254770Y250590D01*
X254886Y250005D01*
X255218Y249509D01*
X255714Y249178D01*
X256299Y249061D01*
X256885Y249178D01*
X257381Y249509D01*
X257712Y250005D01*
X257829Y250590D01*
X257712Y251176D01*
X257381Y251672D01*
X256885Y252004D01*
X256299Y252120D01*
D02*
G37*
G36*
X415748Y249758D02*
X415163Y249641D01*
X414667Y249310D01*
X414335Y248814D01*
X414219Y248228D01*
X414335Y247643D01*
X414667Y247147D01*
X415163Y246815D01*
X415748Y246699D01*
X416333Y246815D01*
X416829Y247147D01*
X417161Y247643D01*
X417277Y248228D01*
X417161Y248814D01*
X416829Y249310D01*
X416333Y249641D01*
X415748Y249758D01*
D02*
G37*
G36*
X404921Y246805D02*
X404336Y246689D01*
X403840Y246357D01*
X403508Y245861D01*
X403392Y245276D01*
X403508Y244690D01*
X403840Y244194D01*
X404336Y243863D01*
X404921Y243746D01*
X405507Y243863D01*
X406003Y244194D01*
X406334Y244690D01*
X406451Y245276D01*
X406334Y245861D01*
X406003Y246357D01*
X405507Y246689D01*
X404921Y246805D01*
D02*
G37*
G36*
X397047D02*
X396462Y246689D01*
X395966Y246357D01*
X395634Y245861D01*
X395518Y245276D01*
X395634Y244690D01*
X395966Y244194D01*
X396462Y243863D01*
X397047Y243746D01*
X397633Y243863D01*
X398129Y244194D01*
X398460Y244690D01*
X398577Y245276D01*
X398460Y245861D01*
X398129Y246357D01*
X397633Y246689D01*
X397047Y246805D01*
D02*
G37*
G36*
X415748Y241884D02*
X415163Y241767D01*
X414667Y241436D01*
X414335Y240940D01*
X414219Y240354D01*
X414335Y239769D01*
X414667Y239273D01*
X415163Y238941D01*
X415748Y238825D01*
X416333Y238941D01*
X416829Y239273D01*
X417161Y239769D01*
X417277Y240354D01*
X417161Y240940D01*
X416829Y241436D01*
X416333Y241767D01*
X415748Y241884D01*
D02*
G37*
G36*
X435039Y239128D02*
X434454Y239011D01*
X433958Y238680D01*
X433626Y238184D01*
X433510Y237598D01*
X433585Y237221D01*
X433266Y236720D01*
X428938D01*
X428620Y237221D01*
X428695Y237598D01*
X428578Y238184D01*
X428247Y238680D01*
X427751Y239011D01*
X427165Y239128D01*
X426580Y239011D01*
X426084Y238680D01*
X425752Y238184D01*
X425636Y237598D01*
X425711Y237221D01*
X425392Y236720D01*
X424016D01*
Y232087D01*
X423908Y232004D01*
X423516Y231866D01*
X423133Y232122D01*
X422547Y232238D01*
X421962Y232122D01*
X421466Y231790D01*
X421134Y231294D01*
X421018Y230709D01*
X421134Y230123D01*
X421466Y229627D01*
X421962Y229296D01*
X422547Y229179D01*
X423133Y229296D01*
X423516Y229552D01*
X423908Y229413D01*
X424016Y229330D01*
Y224697D01*
X436827D01*
Y236720D01*
X436812D01*
X436494Y237221D01*
X436569Y237598D01*
X436452Y238184D01*
X436121Y238680D01*
X435625Y239011D01*
X435039Y239128D01*
D02*
G37*
G36*
X442913D02*
X442328Y239011D01*
X441832Y238680D01*
X441500Y238184D01*
X441384Y237598D01*
X441500Y237013D01*
X441832Y236517D01*
X442328Y236186D01*
X442913Y236069D01*
X443499Y236186D01*
X443995Y236517D01*
X444326Y237013D01*
X444443Y237598D01*
X444326Y238184D01*
X443995Y238680D01*
X443499Y239011D01*
X442913Y239128D01*
D02*
G37*
G36*
X404921Y238931D02*
X404336Y238814D01*
X403840Y238483D01*
X403508Y237987D01*
X403392Y237402D01*
X403508Y236816D01*
X403840Y236320D01*
X404336Y235989D01*
X404921Y235872D01*
X405507Y235989D01*
X406003Y236320D01*
X406334Y236816D01*
X406451Y237402D01*
X406334Y237987D01*
X406003Y238483D01*
X405507Y238814D01*
X404921Y238931D01*
D02*
G37*
G36*
X397047D02*
X396462Y238814D01*
X395966Y238483D01*
X395634Y237987D01*
X395518Y237402D01*
X395634Y236816D01*
X395966Y236320D01*
X396462Y235989D01*
X397047Y235872D01*
X397633Y235989D01*
X398129Y236320D01*
X398460Y236816D01*
X398577Y237402D01*
X398460Y237987D01*
X398129Y238483D01*
X397633Y238814D01*
X397047Y238931D01*
D02*
G37*
G36*
X256299Y242671D02*
X255714Y242555D01*
X255218Y242223D01*
X254886Y241727D01*
X254770Y241142D01*
X254886Y240557D01*
X255218Y240060D01*
X255540Y239845D01*
X255544Y239836D01*
Y239298D01*
X255540Y239289D01*
X255218Y239074D01*
X254886Y238577D01*
X254770Y237992D01*
X254886Y237407D01*
X255218Y236911D01*
X255540Y236695D01*
X255544Y236686D01*
Y236149D01*
X255540Y236139D01*
X255218Y235924D01*
X254886Y235428D01*
X254770Y234842D01*
X254886Y234257D01*
X255218Y233761D01*
X255714Y233430D01*
X256299Y233313D01*
X256885Y233430D01*
X257381Y233761D01*
X257712Y234257D01*
X257829Y234842D01*
X257712Y235428D01*
X257381Y235924D01*
X257058Y236139D01*
X257054Y236149D01*
Y236686D01*
X257058Y236695D01*
X257381Y236911D01*
X257712Y237407D01*
X257829Y237992D01*
X257712Y238577D01*
X257381Y239074D01*
X257058Y239289D01*
X257054Y239298D01*
Y239836D01*
X257058Y239845D01*
X257381Y240060D01*
X257712Y240557D01*
X257829Y241142D01*
X257712Y241727D01*
X257381Y242223D01*
X256885Y242555D01*
X256299Y242671D01*
D02*
G37*
G36*
X213380Y236372D02*
X212794Y236256D01*
X212298Y235924D01*
X211967Y235428D01*
X211850Y234842D01*
X211967Y234257D01*
X212298Y233761D01*
X212794Y233430D01*
X213380Y233313D01*
X213965Y233430D01*
X214461Y233761D01*
X214793Y234257D01*
X214909Y234842D01*
X214793Y235428D01*
X214461Y235924D01*
X213965Y236256D01*
X213380Y236372D01*
D02*
G37*
G36*
X391339Y234600D02*
X390753Y234484D01*
X390257Y234152D01*
X389926Y233656D01*
X389809Y233071D01*
X389926Y232486D01*
X390257Y231989D01*
X390753Y231658D01*
X391339Y231541D01*
X391924Y231658D01*
X392420Y231989D01*
X392752Y232486D01*
X392868Y233071D01*
X392752Y233656D01*
X392420Y234152D01*
X391924Y234484D01*
X391339Y234600D01*
D02*
G37*
G36*
X383465D02*
X382879Y234484D01*
X382383Y234152D01*
X382052Y233656D01*
X381935Y233071D01*
X382052Y232486D01*
X382383Y231989D01*
X382879Y231658D01*
X383465Y231541D01*
X384050Y231658D01*
X384546Y231989D01*
X384877Y232486D01*
X384994Y233071D01*
X384877Y233656D01*
X384546Y234152D01*
X384050Y234484D01*
X383465Y234600D01*
D02*
G37*
G36*
X375590D02*
X375005Y234484D01*
X374509Y234152D01*
X374178Y233656D01*
X374061Y233071D01*
X374178Y232486D01*
X374509Y231989D01*
X375005Y231658D01*
X375590Y231541D01*
X376176Y231658D01*
X376672Y231989D01*
X377004Y232486D01*
X377120Y233071D01*
X377004Y233656D01*
X376672Y234152D01*
X376176Y234484D01*
X375590Y234600D01*
D02*
G37*
G36*
X415748Y234010D02*
X415163Y233893D01*
X414667Y233562D01*
X414335Y233066D01*
X414219Y232480D01*
X414335Y231895D01*
X414667Y231399D01*
X415163Y231067D01*
X415748Y230951D01*
X416333Y231067D01*
X416829Y231399D01*
X417161Y231895D01*
X417277Y232480D01*
X417161Y233066D01*
X416829Y233562D01*
X416333Y233893D01*
X415748Y234010D01*
D02*
G37*
G36*
X442913Y231254D02*
X442328Y231137D01*
X441832Y230806D01*
X441500Y230310D01*
X441384Y229724D01*
X441500Y229139D01*
X441832Y228643D01*
X442328Y228311D01*
X442913Y228195D01*
X443499Y228311D01*
X443995Y228643D01*
X444326Y229139D01*
X444443Y229724D01*
X444326Y230310D01*
X443995Y230806D01*
X443499Y231137D01*
X442913Y231254D01*
D02*
G37*
G36*
X404921Y231057D02*
X404336Y230941D01*
X403840Y230609D01*
X403508Y230113D01*
X403392Y229528D01*
X403508Y228942D01*
X403840Y228446D01*
X404336Y228115D01*
X404921Y227998D01*
X405507Y228115D01*
X406003Y228446D01*
X406334Y228942D01*
X406451Y229528D01*
X406334Y230113D01*
X406003Y230609D01*
X405507Y230941D01*
X404921Y231057D01*
D02*
G37*
G36*
X397047D02*
X396462Y230941D01*
X395966Y230609D01*
X395634Y230113D01*
X395518Y229528D01*
X395634Y228942D01*
X395966Y228446D01*
X396462Y228115D01*
X397047Y227998D01*
X397633Y228115D01*
X398129Y228446D01*
X398460Y228942D01*
X398577Y229528D01*
X398460Y230113D01*
X398129Y230609D01*
X397633Y230941D01*
X397047Y231057D01*
D02*
G37*
G36*
X391339Y226726D02*
X390753Y226610D01*
X390257Y226278D01*
X389926Y225782D01*
X389809Y225197D01*
X389926Y224612D01*
X390257Y224115D01*
X390753Y223784D01*
X391339Y223668D01*
X391924Y223784D01*
X392420Y224115D01*
X392752Y224612D01*
X392868Y225197D01*
X392752Y225782D01*
X392420Y226278D01*
X391924Y226610D01*
X391339Y226726D01*
D02*
G37*
G36*
X383465D02*
X382879Y226610D01*
X382383Y226278D01*
X382052Y225782D01*
X381935Y225197D01*
X382052Y224612D01*
X382383Y224115D01*
X382879Y223784D01*
X383465Y223668D01*
X384050Y223784D01*
X384546Y224115D01*
X384877Y224612D01*
X384994Y225197D01*
X384877Y225782D01*
X384546Y226278D01*
X384050Y226610D01*
X383465Y226726D01*
D02*
G37*
G36*
X375590D02*
X375005Y226610D01*
X374509Y226278D01*
X374178Y225782D01*
X374061Y225197D01*
X374178Y224612D01*
X374509Y224115D01*
X375005Y223784D01*
X375590Y223668D01*
X376176Y223784D01*
X376672Y224115D01*
X377004Y224612D01*
X377120Y225197D01*
X377004Y225782D01*
X376672Y226278D01*
X376176Y226610D01*
X375590Y226726D01*
D02*
G37*
G36*
X415748Y226136D02*
X415163Y226019D01*
X414667Y225688D01*
X414335Y225191D01*
X414219Y224606D01*
X414335Y224021D01*
X414667Y223525D01*
X415163Y223193D01*
X415748Y223077D01*
X416333Y223193D01*
X416829Y223525D01*
X417161Y224021D01*
X417277Y224606D01*
X417161Y225191D01*
X416829Y225688D01*
X416333Y226019D01*
X415748Y226136D01*
D02*
G37*
G36*
X213386Y225545D02*
X212801Y225429D01*
X212304Y225097D01*
X211973Y224601D01*
X211856Y224016D01*
X211973Y223430D01*
X212304Y222934D01*
X212801Y222603D01*
X213386Y222486D01*
X213971Y222603D01*
X214467Y222934D01*
X214799Y223430D01*
X214915Y224016D01*
X214799Y224601D01*
X214467Y225097D01*
X213971Y225429D01*
X213386Y225545D01*
D02*
G37*
G36*
X442913Y223380D02*
X442328Y223263D01*
X441832Y222932D01*
X441500Y222436D01*
X441384Y221850D01*
X441500Y221265D01*
X441832Y220769D01*
X442328Y220437D01*
X442913Y220321D01*
X443499Y220437D01*
X443995Y220769D01*
X444326Y221265D01*
X444443Y221850D01*
X444326Y222436D01*
X443995Y222932D01*
X443499Y223263D01*
X442913Y223380D01*
D02*
G37*
G36*
X435039D02*
X434454Y223263D01*
X433958Y222932D01*
X433626Y222436D01*
X433510Y221850D01*
X433626Y221265D01*
X433958Y220769D01*
X434454Y220437D01*
X435039Y220321D01*
X435625Y220437D01*
X436121Y220769D01*
X436452Y221265D01*
X436569Y221850D01*
X436452Y222436D01*
X436121Y222932D01*
X435625Y223263D01*
X435039Y223380D01*
D02*
G37*
G36*
X427165D02*
X426580Y223263D01*
X426084Y222932D01*
X425752Y222436D01*
X425636Y221850D01*
X425752Y221265D01*
X426084Y220769D01*
X426580Y220437D01*
X427165Y220321D01*
X427751Y220437D01*
X428247Y220769D01*
X428578Y221265D01*
X428695Y221850D01*
X428578Y222436D01*
X428247Y222932D01*
X427751Y223263D01*
X427165Y223380D01*
D02*
G37*
G36*
X404921Y223183D02*
X404336Y223066D01*
X403840Y222735D01*
X403508Y222239D01*
X403392Y221654D01*
X403508Y221068D01*
X403840Y220572D01*
X404336Y220241D01*
X404921Y220124D01*
X405507Y220241D01*
X406003Y220572D01*
X406334Y221068D01*
X406451Y221654D01*
X406334Y222239D01*
X406003Y222735D01*
X405507Y223066D01*
X404921Y223183D01*
D02*
G37*
G36*
X397047D02*
X396462Y223066D01*
X395966Y222735D01*
X395634Y222239D01*
X395518Y221654D01*
X395634Y221068D01*
X395966Y220572D01*
X396462Y220241D01*
X397047Y220124D01*
X397633Y220241D01*
X398129Y220572D01*
X398460Y221068D01*
X398577Y221654D01*
X398460Y222239D01*
X398129Y222735D01*
X397633Y223066D01*
X397047Y223183D01*
D02*
G37*
G36*
X226969Y222789D02*
X226383Y222673D01*
X225887Y222341D01*
X225555Y221845D01*
X225439Y221260D01*
X225555Y220675D01*
X225887Y220178D01*
X226383Y219847D01*
X226969Y219730D01*
X227554Y219847D01*
X228050Y220178D01*
X228381Y220675D01*
X228498Y221260D01*
X228381Y221845D01*
X228050Y222341D01*
X227554Y222673D01*
X226969Y222789D01*
D02*
G37*
G36*
X375590Y218852D02*
X375005Y218736D01*
X374509Y218404D01*
X374178Y217908D01*
X374061Y217323D01*
X374178Y216738D01*
X374509Y216241D01*
X375005Y215910D01*
X375590Y215793D01*
X376176Y215910D01*
X376672Y216241D01*
X377004Y216738D01*
X377120Y217323D01*
X377004Y217908D01*
X376672Y218404D01*
X376176Y218736D01*
X375590Y218852D01*
D02*
G37*
G36*
X371260Y271693D02*
X318543D01*
Y214657D01*
X318555Y214646D01*
X371181D01*
Y271614D01*
X371260Y271693D01*
D02*
G37*
G36*
X237992Y211175D02*
X237407Y211059D01*
X236911Y210727D01*
X236579Y210231D01*
X236488Y209771D01*
X236050Y209495D01*
X236018Y209484D01*
X235433Y209600D01*
X234848Y209484D01*
X234352Y209152D01*
X234020Y208656D01*
X233904Y208071D01*
X234020Y207486D01*
X234352Y206989D01*
X234848Y206658D01*
X235433Y206541D01*
X236018Y206658D01*
X236514Y206989D01*
X236846Y207486D01*
X236937Y207945D01*
X237375Y208221D01*
X237407Y208233D01*
X237992Y208116D01*
X238546Y208226D01*
X238593Y208224D01*
X239070Y207960D01*
X239138Y207617D01*
X239470Y207121D01*
X239966Y206789D01*
X240551Y206673D01*
X241137Y206789D01*
X241633Y207121D01*
X241770Y207327D01*
X242074Y207305D01*
X242317Y207245D01*
X242619Y206793D01*
X243115Y206461D01*
X243701Y206345D01*
X244286Y206461D01*
X244782Y206793D01*
X245114Y207289D01*
X245230Y207874D01*
X245114Y208459D01*
X244782Y208956D01*
X244286Y209287D01*
X243701Y209403D01*
X243115Y209287D01*
X242619Y208956D01*
X242482Y208749D01*
X242178Y208772D01*
X241935Y208831D01*
X241633Y209284D01*
X241137Y209615D01*
X240551Y209732D01*
X239997Y209621D01*
X239950Y209624D01*
X239473Y209887D01*
X239405Y210231D01*
X239074Y210727D01*
X238577Y211059D01*
X237992Y211175D01*
D02*
G37*
G36*
X248228Y209010D02*
X247643Y208893D01*
X247147Y208562D01*
X246815Y208066D01*
X246699Y207480D01*
X246815Y206895D01*
X247147Y206399D01*
X247643Y206067D01*
X248228Y205951D01*
X248814Y206067D01*
X249310Y206399D01*
X249641Y206895D01*
X249758Y207480D01*
X249641Y208066D01*
X249310Y208562D01*
X248814Y208893D01*
X248228Y209010D01*
D02*
G37*
G36*
X342520Y207435D02*
X341934Y207318D01*
X341438Y206987D01*
X341107Y206491D01*
X340990Y205906D01*
X341107Y205320D01*
X341438Y204824D01*
X341934Y204492D01*
X342520Y204376D01*
X343105Y204492D01*
X343601Y204824D01*
X343933Y205320D01*
X344049Y205906D01*
X343933Y206491D01*
X343601Y206987D01*
X343105Y207318D01*
X342520Y207435D01*
D02*
G37*
G36*
X333268D02*
X332682Y207318D01*
X332186Y206987D01*
X331855Y206491D01*
X331738Y205906D01*
X331855Y205320D01*
X332186Y204824D01*
X332682Y204492D01*
X333268Y204376D01*
X333853Y204492D01*
X334349Y204824D01*
X334681Y205320D01*
X334797Y205906D01*
X334681Y206491D01*
X334349Y206987D01*
X333853Y207318D01*
X333268Y207435D01*
D02*
G37*
G36*
X324213D02*
X323627Y207318D01*
X323131Y206987D01*
X322800Y206491D01*
X322683Y205906D01*
X322800Y205320D01*
X323131Y204824D01*
X323627Y204492D01*
X324213Y204376D01*
X324798Y204492D01*
X325294Y204824D01*
X325626Y205320D01*
X325742Y205906D01*
X325626Y206491D01*
X325294Y206987D01*
X324798Y207318D01*
X324213Y207435D01*
D02*
G37*
G36*
X213386D02*
X212801Y207318D01*
X212304Y206987D01*
X211973Y206491D01*
X211856Y205906D01*
X211973Y205320D01*
X212304Y204824D01*
X212801Y204492D01*
X213386Y204376D01*
X213971Y204492D01*
X214467Y204824D01*
X214799Y205320D01*
X214915Y205906D01*
X214799Y206491D01*
X214467Y206987D01*
X213971Y207318D01*
X213386Y207435D01*
D02*
G37*
G36*
X386811Y204088D02*
X386226Y203972D01*
X385730Y203641D01*
X385398Y203144D01*
X385282Y202559D01*
X385398Y201974D01*
X385730Y201478D01*
X386226Y201146D01*
X386811Y201030D01*
X387396Y201146D01*
X387893Y201478D01*
X388224Y201974D01*
X388340Y202559D01*
X388224Y203144D01*
X387893Y203641D01*
X387396Y203972D01*
X386811Y204088D01*
D02*
G37*
G36*
X353740Y203892D02*
X353155Y203775D01*
X352659Y203444D01*
X352327Y202947D01*
X352211Y202362D01*
X352327Y201777D01*
X352659Y201281D01*
X353155Y200949D01*
X353740Y200833D01*
X354325Y200949D01*
X354822Y201281D01*
X355153Y201777D01*
X355270Y202362D01*
X355153Y202947D01*
X354822Y203444D01*
X354325Y203775D01*
X353740Y203892D01*
D02*
G37*
G36*
X342520Y199561D02*
X341934Y199444D01*
X341438Y199113D01*
X341107Y198617D01*
X340990Y198031D01*
X341107Y197446D01*
X341438Y196950D01*
X341934Y196618D01*
X342520Y196502D01*
X343105Y196618D01*
X343601Y196950D01*
X343933Y197446D01*
X344049Y198031D01*
X343933Y198617D01*
X343601Y199113D01*
X343105Y199444D01*
X342520Y199561D01*
D02*
G37*
G36*
X333268D02*
X332682Y199444D01*
X332186Y199113D01*
X331855Y198617D01*
X331738Y198031D01*
X331855Y197446D01*
X332186Y196950D01*
X332682Y196618D01*
X333268Y196502D01*
X333853Y196618D01*
X334349Y196950D01*
X334681Y197446D01*
X334797Y198031D01*
X334681Y198617D01*
X334349Y199113D01*
X333853Y199444D01*
X333268Y199561D01*
D02*
G37*
G36*
X324213D02*
X323627Y199444D01*
X323131Y199113D01*
X322800Y198617D01*
X322683Y198031D01*
X322800Y197446D01*
X323131Y196950D01*
X323627Y196618D01*
X324213Y196502D01*
X324798Y196618D01*
X325294Y196950D01*
X325626Y197446D01*
X325742Y198031D01*
X325626Y198617D01*
X325294Y199113D01*
X324798Y199444D01*
X324213Y199561D01*
D02*
G37*
G36*
X386811Y199364D02*
X386226Y199248D01*
X385730Y198916D01*
X385398Y198420D01*
X385282Y197835D01*
X385398Y197249D01*
X385730Y196753D01*
X386226Y196422D01*
X386811Y196305D01*
X387396Y196422D01*
X387893Y196753D01*
X388224Y197249D01*
X388340Y197835D01*
X388224Y198420D01*
X387893Y198916D01*
X387396Y199248D01*
X386811Y199364D01*
D02*
G37*
G36*
X409449Y197789D02*
X408863Y197673D01*
X408367Y197341D01*
X408036Y196845D01*
X407919Y196260D01*
X408036Y195675D01*
X408367Y195178D01*
X408863Y194847D01*
X409449Y194730D01*
X410034Y194847D01*
X410530Y195178D01*
X410862Y195675D01*
X410978Y196260D01*
X410862Y196845D01*
X410530Y197341D01*
X410034Y197673D01*
X409449Y197789D01*
D02*
G37*
G36*
X333268Y191687D02*
X332682Y191570D01*
X332186Y191239D01*
X331855Y190743D01*
X331738Y190157D01*
X331855Y189572D01*
X332186Y189076D01*
X332682Y188744D01*
X333268Y188628D01*
X333853Y188744D01*
X334349Y189076D01*
X334681Y189572D01*
X334797Y190157D01*
X334681Y190743D01*
X334349Y191239D01*
X333853Y191570D01*
X333268Y191687D01*
D02*
G37*
G36*
X324213D02*
X323627Y191570D01*
X323131Y191239D01*
X322800Y190743D01*
X322683Y190157D01*
X322800Y189572D01*
X323131Y189076D01*
X323627Y188744D01*
X324213Y188628D01*
X324798Y188744D01*
X325294Y189076D01*
X325626Y189572D01*
X325742Y190157D01*
X325626Y190743D01*
X325294Y191239D01*
X324798Y191570D01*
X324213Y191687D01*
D02*
G37*
G36*
X409449Y191096D02*
X408863Y190980D01*
X408367Y190648D01*
X408036Y190152D01*
X407919Y189567D01*
X408036Y188982D01*
X408367Y188486D01*
X408863Y188154D01*
X409449Y188038D01*
X410034Y188154D01*
X410530Y188486D01*
X410862Y188982D01*
X410978Y189567D01*
X410862Y190152D01*
X410530Y190648D01*
X410034Y190980D01*
X409449Y191096D01*
D02*
G37*
G36*
X405315Y190900D02*
X404730Y190783D01*
X404234Y190452D01*
X403902Y189955D01*
X403786Y189370D01*
X403902Y188785D01*
X404234Y188289D01*
X404730Y187957D01*
X405315Y187841D01*
X405900Y187957D01*
X406396Y188289D01*
X406728Y188785D01*
X406844Y189370D01*
X406728Y189955D01*
X406396Y190452D01*
X405900Y190783D01*
X405315Y190900D01*
D02*
G37*
G36*
X343583Y185584D02*
X342998Y185468D01*
X342501Y185137D01*
X342170Y184640D01*
X342053Y184055D01*
X342170Y183470D01*
X342501Y182974D01*
X342998Y182642D01*
X343583Y182526D01*
X344168Y182642D01*
X344664Y182974D01*
X344996Y183470D01*
X345112Y184055D01*
X344996Y184640D01*
X344664Y185137D01*
X344168Y185468D01*
X343583Y185584D01*
D02*
G37*
G36*
X324213Y183813D02*
X323627Y183696D01*
X323131Y183365D01*
X322800Y182869D01*
X322683Y182283D01*
X322800Y181698D01*
X323131Y181202D01*
X323627Y180870D01*
X324213Y180754D01*
X324798Y180870D01*
X325294Y181202D01*
X325626Y181698D01*
X325742Y182283D01*
X325626Y182869D01*
X325294Y183365D01*
X324798Y183696D01*
X324213Y183813D01*
D02*
G37*
G36*
X409449Y181057D02*
X408863Y180940D01*
X408367Y180609D01*
X408036Y180113D01*
X407919Y179528D01*
X408036Y178942D01*
X408367Y178446D01*
X408863Y178115D01*
X409449Y177998D01*
X410034Y178115D01*
X410530Y178446D01*
X410862Y178942D01*
X410978Y179528D01*
X410862Y180113D01*
X410530Y180609D01*
X410034Y180940D01*
X409449Y181057D01*
D02*
G37*
G36*
X325590Y177907D02*
X325005Y177791D01*
X324509Y177459D01*
X324178Y176963D01*
X324061Y176378D01*
X324178Y175793D01*
X324509Y175296D01*
X325005Y174965D01*
X325590Y174849D01*
X326176Y174965D01*
X326672Y175296D01*
X327004Y175793D01*
X327120Y176378D01*
X327004Y176963D01*
X326672Y177459D01*
X326176Y177791D01*
X325590Y177907D01*
D02*
G37*
G36*
X343583Y177710D02*
X342998Y177594D01*
X342501Y177263D01*
X342170Y176766D01*
X342053Y176181D01*
X342170Y175596D01*
X342501Y175100D01*
X342998Y174768D01*
X343583Y174652D01*
X344168Y174768D01*
X344664Y175100D01*
X344996Y175596D01*
X345112Y176181D01*
X344996Y176766D01*
X344664Y177263D01*
X344168Y177594D01*
X343583Y177710D01*
D02*
G37*
G36*
X333583D02*
X332997Y177594D01*
X332501Y177263D01*
X332170Y176766D01*
X332053Y176181D01*
X332170Y175596D01*
X332501Y175100D01*
X332997Y174768D01*
X333583Y174652D01*
X334168Y174768D01*
X334664Y175100D01*
X334996Y175596D01*
X335112Y176181D01*
X334996Y176766D01*
X334664Y177263D01*
X334168Y177594D01*
X333583Y177710D01*
D02*
G37*
G36*
X393406Y176726D02*
X392820Y176610D01*
X392324Y176278D01*
X391992Y175782D01*
X391876Y175197D01*
X391992Y174612D01*
X392324Y174115D01*
X392820Y173784D01*
X393406Y173668D01*
X393991Y173784D01*
X394487Y174115D01*
X394818Y174612D01*
X394935Y175197D01*
X394818Y175782D01*
X394487Y176278D01*
X393991Y176610D01*
X393406Y176726D01*
D02*
G37*
G36*
X353937Y168065D02*
X353352Y167948D01*
X352856Y167617D01*
X352524Y167121D01*
X352408Y166535D01*
X352524Y165950D01*
X352856Y165454D01*
X353352Y165122D01*
X353937Y165006D01*
X354522Y165122D01*
X355018Y165454D01*
X355350Y165950D01*
X355466Y166535D01*
X355350Y167121D01*
X355018Y167617D01*
X354522Y167948D01*
X353937Y168065D01*
D02*
G37*
G36*
X339370D02*
X338785Y167948D01*
X338289Y167617D01*
X337957Y167121D01*
X337841Y166535D01*
X337957Y165950D01*
X338289Y165454D01*
X338785Y165122D01*
X339370Y165006D01*
X339955Y165122D01*
X340452Y165454D01*
X340783Y165950D01*
X340899Y166535D01*
X340783Y167121D01*
X340452Y167617D01*
X339955Y167948D01*
X339370Y168065D01*
D02*
G37*
G36*
X325590D02*
X325005Y167948D01*
X324509Y167617D01*
X324178Y167121D01*
X324061Y166535D01*
X324178Y165950D01*
X324509Y165454D01*
X325005Y165122D01*
X325590Y165006D01*
X326176Y165122D01*
X326672Y165454D01*
X327004Y165950D01*
X327120Y166535D01*
X327004Y167121D01*
X326672Y167617D01*
X326176Y167948D01*
X325590Y168065D01*
D02*
G37*
G36*
X433268Y156254D02*
X432683Y156137D01*
X432186Y155806D01*
X431855Y155310D01*
X431738Y154724D01*
X431848Y154174D01*
X431751Y154023D01*
X431510Y153754D01*
X431494Y153760D01*
X430315Y153876D01*
X429528D01*
X428349Y153760D01*
X427216Y153416D01*
X426596Y153085D01*
X426233Y153065D01*
X426167Y153174D01*
X426266Y153503D01*
X426475Y153643D01*
X426807Y154139D01*
X426923Y154724D01*
X426807Y155310D01*
X426475Y155806D01*
X425979Y156137D01*
X425394Y156254D01*
X424808Y156137D01*
X424312Y155806D01*
X423981Y155310D01*
X423864Y154724D01*
X423981Y154139D01*
X424312Y153643D01*
X424808Y153311D01*
X425394Y153195D01*
X425702Y153256D01*
X426167Y152881D01*
X426171Y152857D01*
X425918Y152650D01*
X425256Y152106D01*
X424505Y151191D01*
X423947Y150146D01*
X423603Y149013D01*
X423487Y147835D01*
X423603Y146656D01*
X423947Y145523D01*
X424505Y144478D01*
X425256Y143563D01*
X426171Y142812D01*
X427216Y142254D01*
X428349Y141910D01*
X429528Y141794D01*
X430315D01*
X431494Y141910D01*
X432627Y142254D01*
X433671Y142812D01*
X434586Y143563D01*
X435338Y144478D01*
X435896Y145523D01*
X436240Y146656D01*
X436356Y147835D01*
X436240Y149013D01*
X435896Y150146D01*
X435338Y151191D01*
X434586Y152106D01*
X433761Y152783D01*
X433789Y153152D01*
X433853Y153311D01*
X434349Y153643D01*
X434681Y154139D01*
X434797Y154724D01*
X434681Y155310D01*
X434349Y155806D01*
X433853Y156137D01*
X433268Y156254D01*
D02*
G37*
G36*
X441142D02*
X440556Y156137D01*
X440060Y155806D01*
X439729Y155310D01*
X439612Y154724D01*
X439729Y154139D01*
X440060Y153643D01*
X440556Y153311D01*
X441142Y153195D01*
X441727Y153311D01*
X442223Y153643D01*
X442555Y154139D01*
X442671Y154724D01*
X442555Y155310D01*
X442223Y155806D01*
X441727Y156137D01*
X441142Y156254D01*
D02*
G37*
G36*
X417520D02*
X416934Y156137D01*
X416438Y155806D01*
X416107Y155310D01*
X415990Y154724D01*
X416107Y154139D01*
X416438Y153643D01*
X416934Y153311D01*
X417520Y153195D01*
X418105Y153311D01*
X418601Y153643D01*
X418933Y154139D01*
X419049Y154724D01*
X418933Y155310D01*
X418601Y155806D01*
X418105Y156137D01*
X417520Y156254D01*
D02*
G37*
G36*
X256181Y163937D02*
X242717D01*
Y151614D01*
X256181D01*
Y163937D01*
D02*
G37*
G36*
X312795Y154088D02*
X312210Y153972D01*
X311714Y153640D01*
X311382Y153144D01*
X311266Y152559D01*
X311382Y151974D01*
X311714Y151478D01*
X312210Y151146D01*
X312795Y151030D01*
X313381Y151146D01*
X313877Y151478D01*
X314208Y151974D01*
X314325Y152559D01*
X314208Y153144D01*
X313877Y153640D01*
X313381Y153972D01*
X312795Y154088D01*
D02*
G37*
G36*
X292520D02*
X291934Y153972D01*
X291438Y153640D01*
X291107Y153144D01*
X290990Y152559D01*
X291107Y151974D01*
X291438Y151478D01*
X291934Y151146D01*
X292520Y151030D01*
X293105Y151146D01*
X293601Y151478D01*
X293933Y151974D01*
X294049Y152559D01*
X293933Y153144D01*
X293601Y153640D01*
X293105Y153972D01*
X292520Y154088D01*
D02*
G37*
G36*
X274606D02*
X274021Y153972D01*
X273525Y153640D01*
X273193Y153144D01*
X273077Y152559D01*
X273193Y151974D01*
X273525Y151478D01*
X274021Y151146D01*
X274606Y151030D01*
X275192Y151146D01*
X275688Y151478D01*
X276019Y151974D01*
X276136Y152559D01*
X276019Y153144D01*
X275688Y153640D01*
X275192Y153972D01*
X274606Y154088D01*
D02*
G37*
G36*
X380512Y153498D02*
X379926Y153382D01*
X379430Y153050D01*
X379099Y152554D01*
X378982Y151969D01*
X379099Y151383D01*
X379430Y150887D01*
X379926Y150556D01*
X380512Y150439D01*
X381097Y150556D01*
X381593Y150887D01*
X381925Y151383D01*
X382041Y151969D01*
X381925Y152554D01*
X381593Y153050D01*
X381097Y153382D01*
X380512Y153498D01*
D02*
G37*
G36*
X367323D02*
X366738Y153382D01*
X366241Y153050D01*
X365910Y152554D01*
X365793Y151969D01*
X365910Y151383D01*
X366241Y150887D01*
X366738Y150556D01*
X367323Y150439D01*
X367908Y150556D01*
X368404Y150887D01*
X368736Y151383D01*
X368852Y151969D01*
X368736Y152554D01*
X368404Y153050D01*
X367908Y153382D01*
X367323Y153498D01*
D02*
G37*
G36*
X353937D02*
X353352Y153382D01*
X352856Y153050D01*
X352524Y152554D01*
X352408Y151969D01*
X352524Y151383D01*
X352856Y150887D01*
X353352Y150556D01*
X353937Y150439D01*
X354522Y150556D01*
X355018Y150887D01*
X355350Y151383D01*
X355466Y151969D01*
X355350Y152554D01*
X355018Y153050D01*
X354522Y153382D01*
X353937Y153498D01*
D02*
G37*
G36*
X339173D02*
X338588Y153382D01*
X338092Y153050D01*
X337760Y152554D01*
X337644Y151969D01*
X337760Y151383D01*
X338092Y150887D01*
X338588Y150556D01*
X339173Y150439D01*
X339758Y150556D01*
X340255Y150887D01*
X340586Y151383D01*
X340703Y151969D01*
X340586Y152554D01*
X340255Y153050D01*
X339758Y153382D01*
X339173Y153498D01*
D02*
G37*
G36*
X325394D02*
X324808Y153382D01*
X324312Y153050D01*
X323981Y152554D01*
X323864Y151969D01*
X323981Y151383D01*
X324312Y150887D01*
X324808Y150556D01*
X325394Y150439D01*
X325979Y150556D01*
X326475Y150887D01*
X326807Y151383D01*
X326923Y151969D01*
X326807Y152554D01*
X326475Y153050D01*
X325979Y153382D01*
X325394Y153498D01*
D02*
G37*
G36*
X407874Y151529D02*
X407289Y151413D01*
X406793Y151081D01*
X406461Y150585D01*
X406345Y150000D01*
X406461Y149415D01*
X406793Y148919D01*
X407289Y148587D01*
X407874Y148471D01*
X408459Y148587D01*
X408955Y148919D01*
X409287Y149415D01*
X409403Y150000D01*
X409287Y150585D01*
X408955Y151081D01*
X408459Y151413D01*
X407874Y151529D01*
D02*
G37*
G36*
X397638D02*
X397053Y151413D01*
X396556Y151081D01*
X396225Y150585D01*
X396108Y150000D01*
X396225Y149415D01*
X396556Y148919D01*
X397053Y148587D01*
X397638Y148471D01*
X398223Y148587D01*
X398719Y148919D01*
X399051Y149415D01*
X399167Y150000D01*
X399051Y150585D01*
X398719Y151081D01*
X398223Y151413D01*
X397638Y151529D01*
D02*
G37*
G36*
X219291Y149561D02*
X218706Y149444D01*
X218210Y149113D01*
X217878Y148617D01*
X217762Y148031D01*
X217878Y147446D01*
X218210Y146950D01*
X218706Y146618D01*
X219291Y146502D01*
X219877Y146618D01*
X220373Y146950D01*
X220704Y147446D01*
X220821Y148031D01*
X220704Y148617D01*
X220373Y149113D01*
X219877Y149444D01*
X219291Y149561D01*
D02*
G37*
G36*
X441142Y148380D02*
X440556Y148263D01*
X440060Y147932D01*
X439729Y147436D01*
X439612Y146850D01*
X439729Y146265D01*
X440060Y145769D01*
X440556Y145437D01*
X441142Y145321D01*
X441727Y145437D01*
X442223Y145769D01*
X442555Y146265D01*
X442671Y146850D01*
X442555Y147436D01*
X442223Y147932D01*
X441727Y148263D01*
X441142Y148380D01*
D02*
G37*
G36*
X417520D02*
X416934Y148263D01*
X416438Y147932D01*
X416107Y147436D01*
X415990Y146850D01*
X416107Y146265D01*
X416438Y145769D01*
X416934Y145437D01*
X417520Y145321D01*
X418105Y145437D01*
X418601Y145769D01*
X418933Y146265D01*
X419049Y146850D01*
X418933Y147436D01*
X418601Y147932D01*
X418105Y148263D01*
X417520Y148380D01*
D02*
G37*
G36*
X402559Y147002D02*
X401974Y146885D01*
X401478Y146554D01*
X401146Y146058D01*
X401030Y145472D01*
X401146Y144887D01*
X401478Y144391D01*
X401974Y144060D01*
X402559Y143943D01*
X403144Y144060D01*
X403641Y144391D01*
X403972Y144887D01*
X404088Y145472D01*
X403972Y146058D01*
X403641Y146554D01*
X403144Y146885D01*
X402559Y147002D01*
D02*
G37*
G36*
X407874Y141687D02*
X407289Y141570D01*
X406793Y141239D01*
X406461Y140743D01*
X406345Y140157D01*
X406461Y139572D01*
X406793Y139076D01*
X407289Y138744D01*
X407874Y138628D01*
X408459Y138744D01*
X408955Y139076D01*
X409287Y139572D01*
X409403Y140157D01*
X409287Y140743D01*
X408955Y141239D01*
X408459Y141570D01*
X407874Y141687D01*
D02*
G37*
G36*
X262114Y145303D02*
X255209D01*
Y138398D01*
X262114D01*
Y145303D01*
D02*
G37*
G36*
X172114D02*
X165209D01*
Y138398D01*
X172114D01*
Y145303D01*
D02*
G37*
G36*
X308661Y145333D02*
X307760Y145214D01*
X306920Y144866D01*
X306199Y144313D01*
X305645Y143592D01*
X305297Y142752D01*
X305179Y141850D01*
X305297Y140949D01*
X305645Y140109D01*
X306199Y139388D01*
X306920Y138834D01*
X307760Y138487D01*
X308661Y138368D01*
X309563Y138487D01*
X310403Y138834D01*
X311124Y139388D01*
X311677Y140109D01*
X312025Y140949D01*
X312144Y141850D01*
X312025Y142752D01*
X311677Y143592D01*
X311124Y144313D01*
X310403Y144866D01*
X309563Y145214D01*
X308661Y145333D01*
D02*
G37*
G36*
X298661D02*
X297760Y145214D01*
X296920Y144866D01*
X296199Y144313D01*
X295645Y143592D01*
X295298Y142752D01*
X295179Y141850D01*
X295298Y140949D01*
X295645Y140109D01*
X296199Y139388D01*
X296920Y138834D01*
X297760Y138487D01*
X298661Y138368D01*
X299563Y138487D01*
X300403Y138834D01*
X301124Y139388D01*
X301677Y140109D01*
X302025Y140949D01*
X302144Y141850D01*
X302025Y142752D01*
X301677Y143592D01*
X301124Y144313D01*
X300403Y144866D01*
X299563Y145214D01*
X298661Y145333D01*
D02*
G37*
G36*
X288661D02*
X287760Y145214D01*
X286920Y144866D01*
X286199Y144313D01*
X285645Y143592D01*
X285297Y142752D01*
X285179Y141850D01*
X285297Y140949D01*
X285645Y140109D01*
X286199Y139388D01*
X286920Y138834D01*
X287760Y138487D01*
X288661Y138368D01*
X289563Y138487D01*
X290403Y138834D01*
X291124Y139388D01*
X291677Y140109D01*
X292025Y140949D01*
X292144Y141850D01*
X292025Y142752D01*
X291677Y143592D01*
X291124Y144313D01*
X290403Y144866D01*
X289563Y145214D01*
X288661Y145333D01*
D02*
G37*
G36*
X278661D02*
X277760Y145214D01*
X276920Y144866D01*
X276199Y144313D01*
X275645Y143592D01*
X275297Y142752D01*
X275179Y141850D01*
X275297Y140949D01*
X275645Y140109D01*
X276199Y139388D01*
X276920Y138834D01*
X277760Y138487D01*
X278661Y138368D01*
X279563Y138487D01*
X280403Y138834D01*
X281124Y139388D01*
X281677Y140109D01*
X282025Y140949D01*
X282144Y141850D01*
X282025Y142752D01*
X281677Y143592D01*
X281124Y144313D01*
X280403Y144866D01*
X279563Y145214D01*
X278661Y145333D01*
D02*
G37*
G36*
X268661D02*
X267760Y145214D01*
X266920Y144866D01*
X266199Y144313D01*
X265645Y143592D01*
X265298Y142752D01*
X265179Y141850D01*
X265298Y140949D01*
X265645Y140109D01*
X266199Y139388D01*
X266920Y138834D01*
X267760Y138487D01*
X268661Y138368D01*
X269563Y138487D01*
X270403Y138834D01*
X271124Y139388D01*
X271677Y140109D01*
X272025Y140949D01*
X272144Y141850D01*
X272025Y142752D01*
X271677Y143592D01*
X271124Y144313D01*
X270403Y144866D01*
X269563Y145214D01*
X268661Y145333D01*
D02*
G37*
G36*
X238662D02*
X237760Y145214D01*
X236920Y144866D01*
X236199Y144313D01*
X235646Y143592D01*
X235298Y142752D01*
X235179Y141850D01*
X235298Y140949D01*
X235646Y140109D01*
X236199Y139388D01*
X236920Y138834D01*
X237760Y138487D01*
X238662Y138368D01*
X239563Y138487D01*
X240403Y138834D01*
X241124Y139388D01*
X241677Y140109D01*
X242025Y140949D01*
X242144Y141850D01*
X242025Y142752D01*
X241677Y143592D01*
X241124Y144313D01*
X240403Y144866D01*
X239563Y145214D01*
X238662Y145333D01*
D02*
G37*
G36*
X208662D02*
X207760Y145214D01*
X206920Y144866D01*
X206199Y144313D01*
X205645Y143592D01*
X205298Y142752D01*
X205179Y141850D01*
X205298Y140949D01*
X205645Y140109D01*
X206199Y139388D01*
X206920Y138834D01*
X207760Y138487D01*
X208662Y138368D01*
X209563Y138487D01*
X210403Y138834D01*
X211124Y139388D01*
X211678Y140109D01*
X212025Y140949D01*
X212144Y141850D01*
X212025Y142752D01*
X211678Y143592D01*
X211124Y144313D01*
X210403Y144866D01*
X209563Y145214D01*
X208662Y145333D01*
D02*
G37*
G36*
X198661D02*
X197760Y145214D01*
X196920Y144866D01*
X196199Y144313D01*
X195645Y143592D01*
X195298Y142752D01*
X195179Y141850D01*
X195298Y140949D01*
X195645Y140109D01*
X196199Y139388D01*
X196920Y138834D01*
X197760Y138487D01*
X198661Y138368D01*
X199563Y138487D01*
X200403Y138834D01*
X201124Y139388D01*
X201677Y140109D01*
X202025Y140949D01*
X202144Y141850D01*
X202025Y142752D01*
X201677Y143592D01*
X201124Y144313D01*
X200403Y144866D01*
X199563Y145214D01*
X198661Y145333D01*
D02*
G37*
G36*
X188662D02*
X187760Y145214D01*
X186920Y144866D01*
X186199Y144313D01*
X185645Y143592D01*
X185298Y142752D01*
X185179Y141850D01*
X185298Y140949D01*
X185645Y140109D01*
X186199Y139388D01*
X186920Y138834D01*
X187760Y138487D01*
X188662Y138368D01*
X189563Y138487D01*
X190403Y138834D01*
X191124Y139388D01*
X191677Y140109D01*
X192025Y140949D01*
X192144Y141850D01*
X192025Y142752D01*
X191677Y143592D01*
X191124Y144313D01*
X190403Y144866D01*
X189563Y145214D01*
X188662Y145333D01*
D02*
G37*
G36*
X178662D02*
X177760Y145214D01*
X176920Y144866D01*
X176199Y144313D01*
X175645Y143592D01*
X175298Y142752D01*
X175179Y141850D01*
X175298Y140949D01*
X175645Y140109D01*
X176199Y139388D01*
X176920Y138834D01*
X177760Y138487D01*
X178662Y138368D01*
X179563Y138487D01*
X180403Y138834D01*
X181124Y139388D01*
X181677Y140109D01*
X182025Y140949D01*
X182144Y141850D01*
X182025Y142752D01*
X181677Y143592D01*
X181124Y144313D01*
X180403Y144866D01*
X179563Y145214D01*
X178662Y145333D01*
D02*
G37*
G36*
X396457Y138537D02*
X395871Y138421D01*
X395375Y138089D01*
X395329Y138020D01*
X394829D01*
X394782Y138089D01*
X394286Y138421D01*
X393701Y138537D01*
X393115Y138421D01*
X392619Y138089D01*
X392288Y137593D01*
X392171Y137008D01*
X392288Y136423D01*
X392434Y136204D01*
X392581Y135827D01*
X392434Y135449D01*
X392288Y135231D01*
X392171Y134646D01*
X392288Y134060D01*
X392619Y133564D01*
X393115Y133233D01*
X393701Y133116D01*
X394286Y133233D01*
X394782Y133564D01*
X394829Y133634D01*
X395329D01*
X395375Y133564D01*
X395871Y133233D01*
X396457Y133116D01*
X397042Y133233D01*
X397538Y133564D01*
X397870Y134060D01*
X397986Y134646D01*
X397870Y135231D01*
X397724Y135449D01*
X397577Y135827D01*
X397724Y136204D01*
X397870Y136423D01*
X397986Y137008D01*
X397870Y137593D01*
X397538Y138089D01*
X397042Y138421D01*
X396457Y138537D01*
D02*
G37*
G36*
X441142Y140506D02*
X440556Y140389D01*
X440060Y140058D01*
X439729Y139562D01*
X439612Y138976D01*
X439729Y138391D01*
X440060Y137895D01*
X440556Y137563D01*
X441142Y137447D01*
X441727Y137563D01*
X442223Y137895D01*
X442555Y138391D01*
X442671Y138976D01*
X442555Y139562D01*
X442223Y140058D01*
X441727Y140389D01*
X441142Y140506D01*
D02*
G37*
G36*
X433268D02*
X432683Y140389D01*
X432186Y140058D01*
X431855Y139562D01*
X431738Y138976D01*
X431855Y138391D01*
X432186Y137895D01*
X432683Y137563D01*
X433268Y137447D01*
X433853Y137563D01*
X434349Y137895D01*
X434681Y138391D01*
X434797Y138976D01*
X434681Y139562D01*
X434349Y140058D01*
X433853Y140389D01*
X433268Y140506D01*
D02*
G37*
G36*
X425394D02*
X424808Y140389D01*
X424312Y140058D01*
X423981Y139562D01*
X423864Y138976D01*
X423981Y138391D01*
X424312Y137895D01*
X424808Y137563D01*
X425394Y137447D01*
X425979Y137563D01*
X426475Y137895D01*
X426807Y138391D01*
X426923Y138976D01*
X426807Y139562D01*
X426475Y140058D01*
X425979Y140389D01*
X425394Y140506D01*
D02*
G37*
G36*
X417520D02*
X416934Y140389D01*
X416438Y140058D01*
X416107Y139562D01*
X415990Y138976D01*
X416107Y138391D01*
X416438Y137895D01*
X416934Y137563D01*
X417520Y137447D01*
X418105Y137563D01*
X418601Y137895D01*
X418933Y138391D01*
X419049Y138976D01*
X418933Y139562D01*
X418601Y140058D01*
X418105Y140389D01*
X417520Y140506D01*
D02*
G37*
G36*
X441142Y132632D02*
X440556Y132515D01*
X440060Y132184D01*
X439729Y131688D01*
X439612Y131102D01*
X439729Y130517D01*
X440060Y130021D01*
X440556Y129689D01*
X441142Y129573D01*
X441727Y129689D01*
X442223Y130021D01*
X442555Y130517D01*
X442671Y131102D01*
X442555Y131688D01*
X442223Y132184D01*
X441727Y132515D01*
X441142Y132632D01*
D02*
G37*
G36*
X433268D02*
X432683Y132515D01*
X432186Y132184D01*
X431855Y131688D01*
X431738Y131102D01*
X431855Y130517D01*
X432186Y130021D01*
X432683Y129689D01*
X433268Y129573D01*
X433853Y129689D01*
X434349Y130021D01*
X434681Y130517D01*
X434797Y131102D01*
X434681Y131688D01*
X434349Y132184D01*
X433853Y132515D01*
X433268Y132632D01*
D02*
G37*
G36*
X425394D02*
X424808Y132515D01*
X424312Y132184D01*
X423981Y131688D01*
X423864Y131102D01*
X423981Y130517D01*
X424312Y130021D01*
X424808Y129689D01*
X425394Y129573D01*
X425979Y129689D01*
X426475Y130021D01*
X426807Y130517D01*
X426923Y131102D01*
X426807Y131688D01*
X426475Y132184D01*
X425979Y132515D01*
X425394Y132632D01*
D02*
G37*
G36*
X417520D02*
X416934Y132515D01*
X416438Y132184D01*
X416107Y131688D01*
X415990Y131102D01*
X416107Y130517D01*
X416438Y130021D01*
X416934Y129689D01*
X417520Y129573D01*
X418105Y129689D01*
X418601Y130021D01*
X418933Y130517D01*
X419049Y131102D01*
X418933Y131688D01*
X418601Y132184D01*
X418105Y132515D01*
X417520Y132632D01*
D02*
G37*
G36*
X338976Y128104D02*
X338391Y127988D01*
X338037Y127751D01*
X337697Y127691D01*
X337357Y127751D01*
X337003Y127988D01*
X336417Y128104D01*
X335832Y127988D01*
X335336Y127656D01*
X335004Y127160D01*
X334888Y126575D01*
X335004Y125989D01*
X335336Y125493D01*
X335832Y125162D01*
X336417Y125045D01*
X337003Y125162D01*
X337357Y125399D01*
X337697Y125459D01*
X338037Y125399D01*
X338391Y125162D01*
X338976Y125045D01*
X339562Y125162D01*
X340058Y125493D01*
X340389Y125989D01*
X340506Y126575D01*
X340389Y127160D01*
X340058Y127656D01*
X339562Y127988D01*
X338976Y128104D01*
D02*
G37*
G36*
X406693Y130466D02*
X406108Y130350D01*
X405612Y130018D01*
X405280Y129522D01*
X405163Y128937D01*
X405280Y128352D01*
X405612Y127856D01*
X406108Y127524D01*
X406693Y127408D01*
X407278Y127524D01*
X407774Y127856D01*
X408106Y128352D01*
X408222Y128937D01*
X408106Y129522D01*
X407774Y130018D01*
X407278Y130350D01*
X406693Y130466D01*
D02*
G37*
G36*
X401378Y126332D02*
X400793Y126216D01*
X400296Y125885D01*
X399965Y125388D01*
X399849Y124803D01*
X399965Y124218D01*
X400296Y123722D01*
X400793Y123390D01*
X401378Y123274D01*
X401963Y123390D01*
X402459Y123722D01*
X402791Y124218D01*
X402907Y124803D01*
X402791Y125388D01*
X402459Y125885D01*
X401963Y126216D01*
X401378Y126332D01*
D02*
G37*
G36*
X393701D02*
X393115Y126216D01*
X392619Y125885D01*
X392288Y125388D01*
X392171Y124803D01*
X392288Y124218D01*
X392619Y123722D01*
X393115Y123390D01*
X393701Y123274D01*
X394286Y123390D01*
X394782Y123722D01*
X395114Y124218D01*
X395230Y124803D01*
X395114Y125388D01*
X394782Y125885D01*
X394286Y126216D01*
X393701Y126332D01*
D02*
G37*
G36*
X441142Y124758D02*
X440556Y124641D01*
X440060Y124310D01*
X439729Y123814D01*
X439612Y123228D01*
X439729Y122643D01*
X440060Y122147D01*
X440556Y121815D01*
X441142Y121699D01*
X441727Y121815D01*
X442223Y122147D01*
X442555Y122643D01*
X442671Y123228D01*
X442555Y123814D01*
X442223Y124310D01*
X441727Y124641D01*
X441142Y124758D01*
D02*
G37*
G36*
X433268D02*
X432683Y124641D01*
X432186Y124310D01*
X431855Y123814D01*
X431738Y123228D01*
X431855Y122643D01*
X432186Y122147D01*
X432683Y121815D01*
X433268Y121699D01*
X433853Y121815D01*
X434349Y122147D01*
X434681Y122643D01*
X434797Y123228D01*
X434681Y123814D01*
X434349Y124310D01*
X433853Y124641D01*
X433268Y124758D01*
D02*
G37*
G36*
X425394D02*
X424808Y124641D01*
X424312Y124310D01*
X423981Y123814D01*
X423864Y123228D01*
X423981Y122643D01*
X424312Y122147D01*
X424808Y121815D01*
X425394Y121699D01*
X425979Y121815D01*
X426475Y122147D01*
X426807Y122643D01*
X426923Y123228D01*
X426807Y123814D01*
X426475Y124310D01*
X425979Y124641D01*
X425394Y124758D01*
D02*
G37*
G36*
X417520D02*
X416934Y124641D01*
X416438Y124310D01*
X416107Y123814D01*
X415990Y123228D01*
X416107Y122643D01*
X416438Y122147D01*
X416934Y121815D01*
X417520Y121699D01*
X418105Y121815D01*
X418601Y122147D01*
X418933Y122643D01*
X419049Y123228D01*
X418933Y123814D01*
X418601Y124310D01*
X418105Y124641D01*
X417520Y124758D01*
D02*
G37*
G36*
X412598Y116490D02*
X412013Y116374D01*
X411517Y116042D01*
X411186Y115546D01*
X411069Y114961D01*
X411186Y114375D01*
X411517Y113879D01*
X412013Y113548D01*
X412598Y113431D01*
X413184Y113548D01*
X413680Y113879D01*
X414011Y114375D01*
X414128Y114961D01*
X414011Y115546D01*
X413680Y116042D01*
X413184Y116374D01*
X412598Y116490D01*
D02*
G37*
G36*
X449213Y123565D02*
X447880Y123433D01*
X446598Y123044D01*
X445417Y122413D01*
X444382Y121563D01*
X443532Y120528D01*
X442901Y119347D01*
X442512Y118065D01*
X442381Y116732D01*
X442512Y115400D01*
X442901Y114118D01*
X443532Y112937D01*
X444382Y111901D01*
X445417Y111052D01*
X446598Y110420D01*
X447880Y110031D01*
X449213Y109900D01*
X450546Y110031D01*
X451827Y110420D01*
X453008Y111052D01*
X454044Y111901D01*
X454893Y112937D01*
X455525Y114118D01*
X455913Y115400D01*
X456045Y116732D01*
X455913Y118065D01*
X455525Y119347D01*
X454893Y120528D01*
X454044Y121563D01*
X453008Y122413D01*
X451827Y123044D01*
X450546Y123433D01*
X449213Y123565D01*
D02*
G37*
G36*
X114567D02*
X113234Y123433D01*
X111952Y123044D01*
X110771Y122413D01*
X109736Y121563D01*
X108886Y120528D01*
X108255Y119347D01*
X107866Y118065D01*
X107735Y116732D01*
X107866Y115400D01*
X108255Y114118D01*
X108886Y112937D01*
X109736Y111901D01*
X110771Y111052D01*
X111952Y110420D01*
X113234Y110031D01*
X114567Y109900D01*
X115900Y110031D01*
X117181Y110420D01*
X118363Y111052D01*
X119398Y111901D01*
X120248Y112937D01*
X120879Y114118D01*
X121268Y115400D01*
X121399Y116732D01*
X121268Y118065D01*
X120879Y119347D01*
X120248Y120528D01*
X119398Y121563D01*
X118363Y122413D01*
X117181Y123044D01*
X115900Y123433D01*
X114567Y123565D01*
D02*
G37*
G36*
X352362Y112592D02*
X351777Y112476D01*
X351281Y112144D01*
X350949Y111648D01*
X350833Y111063D01*
X350949Y110478D01*
X351281Y109982D01*
X351777Y109650D01*
X352362Y109534D01*
X352947Y109650D01*
X353444Y109982D01*
X353775Y110478D01*
X353892Y111063D01*
X353775Y111648D01*
X353444Y112144D01*
X352947Y112476D01*
X352362Y112592D01*
D02*
G37*
G36*
X344488D02*
X343903Y112476D01*
X343407Y112144D01*
X343075Y111648D01*
X342959Y111063D01*
X343075Y110478D01*
X343407Y109982D01*
X343903Y109650D01*
X344488Y109534D01*
X345074Y109650D01*
X345570Y109982D01*
X345901Y110478D01*
X346018Y111063D01*
X345901Y111648D01*
X345570Y112144D01*
X345074Y112476D01*
X344488Y112592D01*
D02*
G37*
G36*
X336614D02*
X336029Y112476D01*
X335533Y112144D01*
X335201Y111648D01*
X335085Y111063D01*
X335201Y110478D01*
X335533Y109982D01*
X336029Y109650D01*
X336614Y109534D01*
X337199Y109650D01*
X337696Y109982D01*
X338027Y110478D01*
X338144Y111063D01*
X338027Y111648D01*
X337696Y112144D01*
X337199Y112476D01*
X336614Y112592D01*
D02*
G37*
G36*
X328740D02*
X328155Y112476D01*
X327659Y112144D01*
X327327Y111648D01*
X327211Y111063D01*
X327327Y110478D01*
X327659Y109982D01*
X328155Y109650D01*
X328740Y109534D01*
X329325Y109650D01*
X329822Y109982D01*
X330153Y110478D01*
X330270Y111063D01*
X330153Y111648D01*
X329822Y112144D01*
X329325Y112476D01*
X328740Y112592D01*
D02*
G37*
G36*
X320866D02*
X320281Y112476D01*
X319785Y112144D01*
X319453Y111648D01*
X319337Y111063D01*
X319453Y110478D01*
X319785Y109982D01*
X320281Y109650D01*
X320866Y109534D01*
X321451Y109650D01*
X321948Y109982D01*
X322279Y110478D01*
X322395Y111063D01*
X322279Y111648D01*
X321948Y112144D01*
X321451Y112476D01*
X320866Y112592D01*
D02*
G37*
G36*
X399319Y114083D02*
X392413D01*
Y107177D01*
X399319D01*
Y114083D01*
D02*
G37*
G36*
X385866Y114112D02*
X384965Y113994D01*
X384125Y113646D01*
X383404Y113093D01*
X382850Y112371D01*
X382502Y111531D01*
X382384Y110630D01*
X382502Y109729D01*
X382850Y108889D01*
X383404Y108167D01*
X384125Y107614D01*
X384965Y107266D01*
X385866Y107147D01*
X386768Y107266D01*
X387607Y107614D01*
X388329Y108167D01*
X388882Y108889D01*
X389230Y109729D01*
X389349Y110630D01*
X389230Y111531D01*
X388882Y112371D01*
X388329Y113093D01*
X387607Y113646D01*
X386768Y113994D01*
X385866Y114112D01*
D02*
G37*
G36*
X375866D02*
X374965Y113994D01*
X374125Y113646D01*
X373404Y113093D01*
X372850Y112371D01*
X372502Y111531D01*
X372384Y110630D01*
X372502Y109729D01*
X372850Y108889D01*
X373404Y108167D01*
X374125Y107614D01*
X374965Y107266D01*
X375866Y107147D01*
X376767Y107266D01*
X377607Y107614D01*
X378329Y108167D01*
X378882Y108889D01*
X379230Y109729D01*
X379349Y110630D01*
X379230Y111531D01*
X378882Y112371D01*
X378329Y113093D01*
X377607Y113646D01*
X376767Y113994D01*
X375866Y114112D01*
D02*
G37*
G36*
X412598Y109797D02*
X412013Y109681D01*
X411517Y109349D01*
X411186Y108853D01*
X411069Y108268D01*
X411186Y107682D01*
X411517Y107186D01*
X412013Y106855D01*
X412598Y106738D01*
X413184Y106855D01*
X413680Y107186D01*
X414011Y107682D01*
X414128Y108268D01*
X414011Y108853D01*
X413680Y109349D01*
X413184Y109681D01*
X412598Y109797D01*
D02*
G37*
%LPD*%
D191*
X228661Y141850D02*
D03*
X218661D02*
D03*
X365866Y110630D02*
D03*
X162662Y331850D02*
D03*
D193*
X429921Y167520D02*
D03*
X430421Y270079D02*
D03*
Y250394D02*
D03*
D195*
X376447Y205945D02*
D03*
X372510Y205945D02*
D03*
X368573Y205945D02*
D03*
X364636Y205945D02*
D03*
X373819Y196024D02*
D03*
X369882Y196024D02*
D03*
X369882Y188150D02*
D03*
X311417Y258425D02*
D03*
X333032Y275748D02*
D03*
X361260D02*
D03*
X224921Y164803D02*
D03*
X227362Y162520D02*
D03*
Y164803D02*
D03*
X224921Y162520D02*
D03*
X365945Y192087D02*
D03*
X365945Y188150D02*
D03*
X365945Y196024D02*
D03*
X442913Y163977D02*
D03*
Y171851D02*
D03*
X435039Y179725D02*
D03*
Y187599D02*
D03*
Y195473D02*
D03*
Y203347D02*
D03*
Y211221D02*
D03*
X442913Y179725D02*
D03*
Y187599D02*
D03*
Y195473D02*
D03*
Y203347D02*
D03*
Y211221D02*
D03*
X450787Y163977D02*
D03*
Y171851D02*
D03*
Y179725D02*
D03*
Y187599D02*
D03*
Y195473D02*
D03*
Y203347D02*
D03*
Y211221D02*
D03*
Y321457D02*
D03*
Y313583D02*
D03*
Y305709D02*
D03*
Y297835D02*
D03*
Y289961D02*
D03*
Y282087D02*
D03*
Y274213D02*
D03*
Y266339D02*
D03*
Y258465D02*
D03*
Y250591D02*
D03*
Y219095D02*
D03*
Y226969D02*
D03*
Y234843D02*
D03*
Y242717D02*
D03*
X363071Y292008D02*
D03*
X285945Y291890D02*
D03*
X319724Y292008D02*
D03*
X202244Y235236D02*
D03*
X241220Y244370D02*
D03*
X241063Y235157D02*
D03*
X320276Y307047D02*
D03*
X310039Y181850D02*
D03*
Y233465D02*
D03*
Y205000D02*
D03*
X276260Y227913D02*
D03*
X276102Y206181D02*
D03*
X344094Y350590D02*
D03*
X396366Y376535D02*
D03*
X418740Y376496D02*
D03*
X432677Y326850D02*
D03*
X403740Y326693D02*
D03*
X316339Y364134D02*
D03*
X266653Y366811D02*
D03*
X228150Y366378D02*
D03*
X181575Y365905D02*
D03*
X133228Y364134D02*
D03*
X350827Y307953D02*
D03*
X285945Y306653D02*
D03*
X247913Y305197D02*
D03*
X209528Y303740D02*
D03*
X206024Y123425D02*
D03*
X165945Y122520D02*
D03*
X161732Y210578D02*
D03*
X160197Y297126D02*
D03*
X160827Y254606D02*
D03*
X133976Y312205D02*
D03*
X133661Y276614D02*
D03*
X133976Y228976D02*
D03*
X134882Y184961D02*
D03*
X136063Y137008D02*
D03*
X292047Y194252D02*
D03*
X291890Y265551D02*
D03*
Y218071D02*
D03*
X294016Y242835D02*
D03*
X179488Y187323D02*
D03*
X196653Y187598D02*
D03*
X214467Y187480D02*
D03*
X246260Y175452D02*
D03*
X262874D02*
D03*
X281299D02*
D03*
X292835Y166220D02*
D03*
X312638D02*
D03*
X396654Y196850D02*
D03*
Y201575D02*
D03*
X401378Y196850D02*
D03*
Y201575D02*
D03*
X367520Y342520D02*
D03*
Y338189D02*
D03*
X443465Y243740D02*
D03*
X443465Y247677D02*
D03*
X443465Y251614D02*
D03*
X443465Y255551D02*
D03*
X443465Y259488D02*
D03*
X443465Y263425D02*
D03*
X443465Y267362D02*
D03*
X443465Y271299D02*
D03*
X443465Y275236D02*
D03*
X443465Y279173D02*
D03*
X439528Y243740D02*
D03*
X439528Y247677D02*
D03*
X439528Y251614D02*
D03*
X439528Y255551D02*
D03*
X439528Y259488D02*
D03*
X439528Y263425D02*
D03*
X439528Y267362D02*
D03*
X439528Y271299D02*
D03*
X439528Y275236D02*
D03*
X439528Y279173D02*
D03*
X429331Y179173D02*
D03*
X429331Y183110D02*
D03*
X429331Y187047D02*
D03*
X429331Y190984D02*
D03*
X429331Y194921D02*
D03*
X429331Y198858D02*
D03*
X429331Y202795D02*
D03*
X429331Y206732D02*
D03*
X429331Y210669D02*
D03*
X429331Y214606D02*
D03*
X425394Y175236D02*
D03*
X425394Y179173D02*
D03*
X236850Y251181D02*
D03*
X229803Y245039D02*
D03*
X224882Y240197D02*
D03*
X199803Y253543D02*
D03*
X207874Y247087D02*
D03*
X203937Y247087D02*
D03*
X196063Y258898D02*
D03*
X196063Y262835D02*
D03*
X196063Y266772D02*
D03*
X196063Y270709D02*
D03*
X196063Y274646D02*
D03*
X196063Y278583D02*
D03*
X196063Y282520D02*
D03*
X200000Y282520D02*
D03*
X203937Y282520D02*
D03*
X207874Y282520D02*
D03*
X211811Y282520D02*
D03*
X215748Y282520D02*
D03*
X219685Y282520D02*
D03*
X223622Y282520D02*
D03*
X227559Y282520D02*
D03*
X231496Y282520D02*
D03*
X235433Y282520D02*
D03*
X246969Y276850D02*
D03*
Y271339D02*
D03*
X458661Y384449D02*
D03*
Y376575D02*
D03*
Y368701D02*
D03*
Y360827D02*
D03*
Y352953D02*
D03*
Y345079D02*
D03*
Y337205D02*
D03*
Y329331D02*
D03*
Y321457D02*
D03*
Y313583D02*
D03*
Y305709D02*
D03*
Y297835D02*
D03*
Y289961D02*
D03*
Y282087D02*
D03*
Y274213D02*
D03*
Y266339D02*
D03*
Y258465D02*
D03*
Y250591D02*
D03*
Y242717D02*
D03*
Y234843D02*
D03*
Y226969D02*
D03*
Y219095D02*
D03*
Y211221D02*
D03*
Y203347D02*
D03*
Y195473D02*
D03*
Y187599D02*
D03*
Y179725D02*
D03*
Y171851D02*
D03*
Y163977D02*
D03*
Y156103D02*
D03*
Y148228D02*
D03*
Y140354D02*
D03*
Y132480D02*
D03*
Y124606D02*
D03*
Y116732D02*
D03*
X445276Y107283D02*
D03*
X303543D02*
D03*
X295669D02*
D03*
X287795D02*
D03*
X279921D02*
D03*
X272047D02*
D03*
X264173D02*
D03*
X256299D02*
D03*
X248425D02*
D03*
X240551D02*
D03*
X232677D02*
D03*
X224803D02*
D03*
X216929D02*
D03*
X209055D02*
D03*
X201181D02*
D03*
X193307D02*
D03*
X185433D02*
D03*
X177559D02*
D03*
X169685D02*
D03*
X161811D02*
D03*
X153937D02*
D03*
X146063D02*
D03*
X138189D02*
D03*
X130315D02*
D03*
X122441D02*
D03*
X114567D02*
D03*
X445276Y393898D02*
D03*
X437402D02*
D03*
X421654D02*
D03*
X413780D02*
D03*
X358662D02*
D03*
X350787D02*
D03*
X342914D02*
D03*
X335039D02*
D03*
X327165D02*
D03*
X319291D02*
D03*
X311417D02*
D03*
X303543D02*
D03*
X295669D02*
D03*
X287795D02*
D03*
X279921D02*
D03*
X272047D02*
D03*
X264173D02*
D03*
X256299D02*
D03*
X248425D02*
D03*
X240551D02*
D03*
X232677D02*
D03*
X224803D02*
D03*
X216929D02*
D03*
X209055D02*
D03*
X201181D02*
D03*
X193307D02*
D03*
X185433D02*
D03*
X177559D02*
D03*
X169685D02*
D03*
X161811D02*
D03*
X153937D02*
D03*
X146063D02*
D03*
X138189D02*
D03*
X130315D02*
D03*
X122441D02*
D03*
X114567D02*
D03*
X105118Y384449D02*
D03*
Y376575D02*
D03*
Y368701D02*
D03*
Y360827D02*
D03*
Y352953D02*
D03*
Y345079D02*
D03*
Y337205D02*
D03*
Y329331D02*
D03*
Y321457D02*
D03*
Y313583D02*
D03*
Y305709D02*
D03*
Y297835D02*
D03*
Y289961D02*
D03*
Y282087D02*
D03*
Y274213D02*
D03*
Y266339D02*
D03*
Y258465D02*
D03*
Y250591D02*
D03*
Y242717D02*
D03*
Y234843D02*
D03*
Y226969D02*
D03*
Y219094D02*
D03*
Y211221D02*
D03*
Y203346D02*
D03*
Y195473D02*
D03*
Y187599D02*
D03*
Y179724D02*
D03*
Y171850D02*
D03*
Y163976D02*
D03*
Y156102D02*
D03*
Y148228D02*
D03*
Y140354D02*
D03*
Y132480D02*
D03*
Y124606D02*
D03*
Y116732D02*
D03*
X374488Y269724D02*
D03*
X374488Y265787D02*
D03*
X374488Y261850D02*
D03*
X374488Y257913D02*
D03*
X374488Y253976D02*
D03*
X374488Y250039D02*
D03*
X374488Y246102D02*
D03*
X374488Y238228D02*
D03*
X374488Y242165D02*
D03*
X386614Y119724D02*
D03*
X382677Y119724D02*
D03*
X378740Y119724D02*
D03*
X374803Y119724D02*
D03*
X361929Y119724D02*
D03*
X357992Y119724D02*
D03*
X391929Y270433D02*
D03*
X387992Y270433D02*
D03*
X384055Y270433D02*
D03*
X386811Y295748D02*
D03*
X369882Y301378D02*
D03*
X381693Y301417D02*
D03*
X375945Y301417D02*
D03*
X380118Y274370D02*
D03*
X384055Y274370D02*
D03*
X387992Y274370D02*
D03*
X391929Y274370D02*
D03*
Y289449D02*
D03*
X382362Y238228D02*
D03*
X382362Y242165D02*
D03*
X378425Y242165D02*
D03*
X378425Y238228D02*
D03*
X406772Y157638D02*
D03*
X402835Y157638D02*
D03*
X398898Y157638D02*
D03*
X406772Y161575D02*
D03*
X402835Y161575D02*
D03*
X398898Y161575D02*
D03*
X394961Y157638D02*
D03*
X394961Y161575D02*
D03*
X360197Y165039D02*
D03*
X360197Y161102D02*
D03*
X389764Y216811D02*
D03*
X385827Y216811D02*
D03*
X381890Y216811D02*
D03*
X384409Y177598D02*
D03*
X380472Y177598D02*
D03*
X376535Y177598D02*
D03*
X372598Y177598D02*
D03*
X425394Y218543D02*
D03*
X425394Y183110D02*
D03*
X425394Y187047D02*
D03*
X425394Y190984D02*
D03*
X425394Y194921D02*
D03*
X425394Y198858D02*
D03*
X425394Y202795D02*
D03*
X425394Y206732D02*
D03*
X425394Y210669D02*
D03*
X425394Y214606D02*
D03*
X405118Y178150D02*
D03*
X369882Y192087D02*
D03*
X362008Y188150D02*
D03*
X362008Y192087D02*
D03*
X358071Y188150D02*
D03*
X358071Y192087D02*
D03*
X354134Y184213D02*
D03*
X354134Y188150D02*
D03*
X354134Y192087D02*
D03*
X362008Y196024D02*
D03*
X358071Y196024D02*
D03*
X355118Y136221D02*
D03*
X348425D02*
D03*
X356102Y125984D02*
D03*
X351378D02*
D03*
X346850D02*
D03*
X401181Y178150D02*
D03*
X237992Y218299D02*
D03*
X245866Y219291D02*
D03*
X377756Y291339D02*
D03*
X242913Y271457D02*
D03*
X225787Y274606D02*
D03*
X200787Y265748D02*
D03*
X215551Y256890D02*
D03*
X401181Y354921D02*
D03*
X376575Y351969D02*
D03*
Y355709D02*
D03*
X406102Y354921D02*
D03*
X396457D02*
D03*
X367520Y351969D02*
D03*
X367520Y355709D02*
D03*
X372441Y130945D02*
D03*
X354134Y196024D02*
D03*
X328740Y136221D02*
D03*
X341929D02*
D03*
X335433D02*
D03*
D199*
X432028Y170650D02*
D03*
M02*
