G04*
G04 #@! TF.GenerationSoftware,Altium Limited,Altium Designer,19.0.15 (446)*
G04*
G04 Layer_Color=8388736*
%FSLAX25Y25*%
%MOIN*%
G70*
G01*
G75*
%ADD82R,0.08661X0.06693*%
%ADD83R,0.07480X0.07874*%
%ADD84R,0.07874X0.07874*%
%ADD85R,0.01968X0.05709*%
%ADD86R,0.06509X0.07887*%
%ADD87R,0.05721X0.03950*%
G04:AMPARAMS|DCode=88|XSize=47.37mil|YSize=47.37mil|CornerRadius=13.84mil|HoleSize=0mil|Usage=FLASHONLY|Rotation=90.000|XOffset=0mil|YOffset=0mil|HoleType=Round|Shape=RoundedRectangle|*
%AMROUNDEDRECTD88*
21,1,0.04737,0.01968,0,0,90.0*
21,1,0.01968,0.04737,0,0,90.0*
1,1,0.02769,0.00984,0.00984*
1,1,0.02769,0.00984,-0.00984*
1,1,0.02769,-0.00984,-0.00984*
1,1,0.02769,-0.00984,0.00984*
%
%ADD88ROUNDEDRECTD88*%
%ADD89C,0.07087*%
%ADD90R,0.03753X0.05918*%
%ADD91R,0.07296X0.04737*%
%ADD92R,0.04737X0.07296*%
%ADD93R,0.11233X0.06706*%
%ADD94R,0.11430X0.05918*%
%ADD95R,0.06706X0.11233*%
%ADD96R,0.06706X0.10249*%
%ADD97R,0.06706X0.04934*%
%ADD98R,0.03359X0.03162*%
%ADD99R,0.03162X0.03162*%
%ADD100R,0.03162X0.03359*%
%ADD101R,0.02375X0.03359*%
%ADD102R,0.01902X0.03950*%
%ADD103R,0.03950X0.01902*%
%ADD104R,0.09225X0.09225*%
%ADD105R,0.03162X0.03162*%
%ADD106R,0.01981X0.03359*%
%ADD107R,0.05918X0.03753*%
%ADD108R,0.12611X0.09068*%
%ADD109R,0.06509X0.02572*%
%ADD110R,0.05328X0.03359*%
%ADD111R,0.03359X0.05328*%
%ADD112R,0.06902X0.04737*%
%ADD113R,0.03950X0.05721*%
%ADD114R,0.06706X0.12217*%
%ADD115R,0.09068X0.18713*%
%ADD116R,0.03398X0.01981*%
%ADD117R,0.12217X0.06706*%
G04:AMPARAMS|DCode=118|XSize=47.37mil|YSize=47.37mil|CornerRadius=13.84mil|HoleSize=0mil|Usage=FLASHONLY|Rotation=0.000|XOffset=0mil|YOffset=0mil|HoleType=Round|Shape=RoundedRectangle|*
%AMROUNDEDRECTD118*
21,1,0.04737,0.01968,0,0,0.0*
21,1,0.01968,0.04737,0,0,0.0*
1,1,0.02769,0.00984,-0.00984*
1,1,0.02769,-0.00984,-0.00984*
1,1,0.02769,-0.00984,0.00984*
1,1,0.02769,0.00984,0.00984*
%
%ADD118ROUNDEDRECTD118*%
%ADD119R,0.04934X0.06706*%
%ADD120R,0.10249X0.06706*%
%ADD121R,0.04737X0.07099*%
%ADD122R,0.03162X0.01981*%
%ADD123R,0.06299X0.04724*%
%ADD124R,0.08792X0.15761*%
%ADD125R,0.10249X0.11233*%
%ADD126R,0.02769X0.05524*%
%ADD127R,0.05524X0.02769*%
%ADD128R,0.01784X0.03359*%
%ADD129R,0.02965X0.03950*%
%ADD130R,0.05328X0.03162*%
%ADD131R,0.09068X0.12611*%
%ADD132R,0.16942X0.18359*%
%ADD133R,0.18359X0.16942*%
%ADD134C,0.06706*%
%ADD135R,0.06706X0.06706*%
%ADD136O,0.12611X0.11824*%
%ADD137R,0.12611X0.11824*%
%ADD138C,0.00800*%
D82*
X326772Y120276D02*
D03*
X351181D02*
D03*
D83*
X353937Y110236D02*
D03*
X324016D02*
D03*
D84*
X334252D02*
D03*
X343701D02*
D03*
D85*
X333858Y120768D02*
D03*
X336417D02*
D03*
X338976D02*
D03*
X341535D02*
D03*
X344094D02*
D03*
D86*
X426150Y313445D02*
D03*
X414535D02*
D03*
X407079Y128445D02*
D03*
X418693D02*
D03*
D87*
X376732Y182441D02*
D03*
Y189527D02*
D03*
D88*
X349252Y290079D02*
D03*
Y302953D02*
D03*
X181496Y167480D02*
D03*
X213977Y172441D02*
D03*
D89*
X129449Y124921D02*
D03*
X436299Y378543D02*
D03*
D90*
X384449Y207087D02*
D03*
X377559D02*
D03*
X413287Y199803D02*
D03*
X420177D02*
D03*
X396457Y240158D02*
D03*
X389567D02*
D03*
X242618Y276378D02*
D03*
X235728D02*
D03*
D91*
X207283Y163976D02*
D03*
Y152953D02*
D03*
D92*
X236417Y180118D02*
D03*
X225394D02*
D03*
X198032Y165551D02*
D03*
X187008D02*
D03*
X198031Y154724D02*
D03*
X187008D02*
D03*
X361221Y353740D02*
D03*
X372244D02*
D03*
D93*
X281299Y153347D02*
D03*
X281339Y166575D02*
D03*
X355157Y144528D02*
D03*
X355118Y131299D02*
D03*
X341968Y144528D02*
D03*
X341929Y131299D02*
D03*
X328780Y144528D02*
D03*
X328740Y131299D02*
D03*
D94*
X249409Y152913D02*
D03*
Y162716D02*
D03*
X384055Y345000D02*
D03*
Y335197D02*
D03*
D95*
X238819Y155472D02*
D03*
X225590Y155512D02*
D03*
X225787Y168504D02*
D03*
X239016Y168465D02*
D03*
X365905Y130945D02*
D03*
X379134Y130905D02*
D03*
D96*
X217126Y161614D02*
D03*
D97*
Y152264D02*
D03*
D98*
X406496Y216339D02*
D03*
X410236D02*
D03*
X393406Y178150D02*
D03*
X397146D02*
D03*
X316535Y107677D02*
D03*
X312795D02*
D03*
X371358Y329331D02*
D03*
X367618D02*
D03*
Y392126D02*
D03*
X363878D02*
D03*
X367717Y386221D02*
D03*
X363976D02*
D03*
X204528Y275590D02*
D03*
X208268D02*
D03*
X212205Y271457D02*
D03*
X208465D02*
D03*
X212205Y259646D02*
D03*
X208465D02*
D03*
X208465Y255709D02*
D03*
X204724D02*
D03*
X208268Y251378D02*
D03*
X204528D02*
D03*
D99*
X410335Y212008D02*
D03*
X406398D02*
D03*
X413189Y205315D02*
D03*
X417126D02*
D03*
X402362Y212008D02*
D03*
X398425D02*
D03*
X312795Y112008D02*
D03*
X316732D02*
D03*
Y115748D02*
D03*
X312795D02*
D03*
X363976Y177362D02*
D03*
X367913D02*
D03*
X212303Y267323D02*
D03*
X208366D02*
D03*
Y263583D02*
D03*
X212303D02*
D03*
X239764Y271063D02*
D03*
X235827D02*
D03*
D100*
X389567Y182776D02*
D03*
Y186516D02*
D03*
X401181D02*
D03*
Y182776D02*
D03*
X405315Y186516D02*
D03*
Y182776D02*
D03*
X409449Y186516D02*
D03*
Y182776D02*
D03*
X413583Y186516D02*
D03*
Y182776D02*
D03*
X413386Y194193D02*
D03*
Y190453D02*
D03*
X435236Y109153D02*
D03*
Y112894D02*
D03*
X414567Y216043D02*
D03*
Y212303D02*
D03*
X204429Y271457D02*
D03*
Y267717D02*
D03*
X204429Y263583D02*
D03*
Y259842D02*
D03*
X231496Y267421D02*
D03*
Y271161D02*
D03*
X219980Y267421D02*
D03*
Y271161D02*
D03*
D101*
X395276Y187008D02*
D03*
X393307Y182480D02*
D03*
X397244D02*
D03*
D102*
X396063Y192323D02*
D03*
X398031D02*
D03*
X400000D02*
D03*
X401968D02*
D03*
Y206102D02*
D03*
X400000D02*
D03*
X398031D02*
D03*
X396063D02*
D03*
D103*
X405905Y196260D02*
D03*
Y198228D02*
D03*
Y200197D02*
D03*
Y202165D02*
D03*
X392126D02*
D03*
Y200197D02*
D03*
Y198228D02*
D03*
Y196260D02*
D03*
D104*
X399016Y199213D02*
D03*
D105*
X383858Y200591D02*
D03*
Y196653D02*
D03*
X386417Y286221D02*
D03*
Y282283D02*
D03*
X369488Y292717D02*
D03*
Y296654D02*
D03*
X369685Y286417D02*
D03*
Y282480D02*
D03*
X359449Y339567D02*
D03*
Y335630D02*
D03*
X399606Y391535D02*
D03*
Y387598D02*
D03*
X212205Y255315D02*
D03*
Y251378D02*
D03*
X227559Y267323D02*
D03*
Y271260D02*
D03*
X223819D02*
D03*
Y267323D02*
D03*
X216929Y227953D02*
D03*
Y224016D02*
D03*
X253150Y261221D02*
D03*
Y257283D02*
D03*
X257677Y163386D02*
D03*
Y167323D02*
D03*
D106*
X379724Y196358D02*
D03*
Y201673D02*
D03*
D107*
X383858Y189567D02*
D03*
Y182677D02*
D03*
X405905Y350787D02*
D03*
Y343898D02*
D03*
X396654Y350787D02*
D03*
Y343898D02*
D03*
X205118Y175787D02*
D03*
Y182677D02*
D03*
X179528Y182579D02*
D03*
Y175689D02*
D03*
D108*
X400307Y148138D02*
D03*
X400394Y168012D02*
D03*
D109*
X382953Y164764D02*
D03*
Y167323D02*
D03*
Y169882D02*
D03*
Y172441D02*
D03*
X365630D02*
D03*
Y169882D02*
D03*
Y167323D02*
D03*
Y164764D02*
D03*
D110*
X328346Y186024D02*
D03*
Y191024D02*
D03*
Y196024D02*
D03*
Y201024D02*
D03*
X349803D02*
D03*
Y196024D02*
D03*
Y191024D02*
D03*
Y186024D02*
D03*
X387598Y143032D02*
D03*
Y148031D02*
D03*
Y153032D02*
D03*
Y158031D02*
D03*
X366142D02*
D03*
Y153032D02*
D03*
Y148031D02*
D03*
Y143032D02*
D03*
D111*
X343583Y176181D02*
D03*
X338583D02*
D03*
X333583D02*
D03*
X328583D02*
D03*
Y154724D02*
D03*
X333583D02*
D03*
X338583D02*
D03*
X343583D02*
D03*
D112*
X406988Y108268D02*
D03*
X427658D02*
D03*
Y114961D02*
D03*
X406988D02*
D03*
X427658Y392913D02*
D03*
X406988D02*
D03*
Y386221D02*
D03*
X427658D02*
D03*
D113*
X385630Y128543D02*
D03*
X392717D02*
D03*
D114*
X383858Y228543D02*
D03*
X405118D02*
D03*
D115*
X406102Y254921D02*
D03*
X381299D02*
D03*
D116*
X374055Y287087D02*
D03*
Y284488D02*
D03*
Y281890D02*
D03*
X381299D02*
D03*
Y284488D02*
D03*
Y287087D02*
D03*
X381260Y297480D02*
D03*
Y294882D02*
D03*
Y292283D02*
D03*
X374016D02*
D03*
Y294882D02*
D03*
Y297480D02*
D03*
D117*
X403937Y273622D02*
D03*
Y294882D02*
D03*
D118*
X399803Y302756D02*
D03*
X301772Y153150D02*
D03*
D119*
X393799Y335039D02*
D03*
D120*
X403150D02*
D03*
D121*
X367520Y340354D02*
D03*
D122*
X371654Y342913D02*
D03*
Y340354D02*
D03*
Y337795D02*
D03*
X363386D02*
D03*
Y340354D02*
D03*
Y342913D02*
D03*
D123*
X384842Y392126D02*
D03*
X373031Y386221D02*
D03*
Y392126D02*
D03*
X384842Y386221D02*
D03*
D124*
X338977Y384527D02*
D03*
D125*
X329504Y218299D02*
D03*
X347244Y268898D02*
D03*
X364937Y218299D02*
D03*
D126*
X245866Y259941D02*
D03*
X242717D02*
D03*
X239567D02*
D03*
X236417D02*
D03*
X233268D02*
D03*
X230118D02*
D03*
X226969D02*
D03*
X223819D02*
D03*
Y225492D02*
D03*
X226969D02*
D03*
X230118D02*
D03*
X233268D02*
D03*
X236417D02*
D03*
X239567D02*
D03*
X242717D02*
D03*
X245866D02*
D03*
D127*
X217618Y253740D02*
D03*
Y250590D02*
D03*
Y247441D02*
D03*
Y244291D02*
D03*
Y241142D02*
D03*
Y237992D02*
D03*
Y234842D02*
D03*
Y231693D02*
D03*
X252067D02*
D03*
Y234842D02*
D03*
Y237992D02*
D03*
Y241142D02*
D03*
Y244291D02*
D03*
Y247441D02*
D03*
Y250590D02*
D03*
Y253740D02*
D03*
D128*
X239961Y212795D02*
D03*
X237992D02*
D03*
X236024D02*
D03*
Y216535D02*
D03*
X237992D02*
D03*
X239961D02*
D03*
X247835Y212697D02*
D03*
X245866D02*
D03*
X243898D02*
D03*
Y216437D02*
D03*
X245866D02*
D03*
X247835D02*
D03*
D129*
X261811Y163386D02*
D03*
X265551D02*
D03*
X269291D02*
D03*
Y153937D02*
D03*
X265551D02*
D03*
X261811D02*
D03*
D130*
X187106Y175394D02*
D03*
Y182874D02*
D03*
X197146D02*
D03*
Y179134D02*
D03*
Y175394D02*
D03*
D131*
X156898Y158945D02*
D03*
X176772Y158858D02*
D03*
D132*
X336319Y193524D02*
D03*
X374114Y150531D02*
D03*
D133*
X336083Y162697D02*
D03*
D134*
X308661Y141850D02*
D03*
X298661D02*
D03*
X288661D02*
D03*
X278661D02*
D03*
X268661D02*
D03*
X238662D02*
D03*
X228661D02*
D03*
X218661D02*
D03*
X208662D02*
D03*
X198661D02*
D03*
X188662D02*
D03*
X178662D02*
D03*
X365866Y110630D02*
D03*
X375866D02*
D03*
X385866D02*
D03*
X212662Y331850D02*
D03*
X192661D02*
D03*
X182661D02*
D03*
X172661D02*
D03*
X162662D02*
D03*
X152662D02*
D03*
X142661D02*
D03*
X132661D02*
D03*
X202661D02*
D03*
X238661Y331850D02*
D03*
X248661D02*
D03*
X258661D02*
D03*
X268661D02*
D03*
X278661D02*
D03*
X288661D02*
D03*
X298661D02*
D03*
D135*
X258661Y141850D02*
D03*
X168661D02*
D03*
X395866Y110630D02*
D03*
X222661Y331850D02*
D03*
X308661Y331850D02*
D03*
D136*
X429921Y147835D02*
D03*
Y167520D02*
D03*
X430421Y270079D02*
D03*
Y289764D02*
D03*
Y250394D02*
D03*
X429921Y358268D02*
D03*
Y338583D02*
D03*
D137*
X430421Y230709D02*
D03*
D138*
X114567Y116732D02*
D03*
Y384449D02*
D03*
X449213D02*
D03*
X449213Y116732D02*
D03*
M02*
