G04*
G04 #@! TF.GenerationSoftware,Altium Limited,Altium Designer,19.0.15 (446)*
G04*
G04 Layer_Physical_Order=4*
G04 Layer_Color=16711680*
%FSLAX25Y25*%
%MOIN*%
G70*
G01*
G75*
%ADD141C,0.01968*%
%ADD143C,0.02756*%
%ADD144C,0.01500*%
%ADD146C,0.01181*%
%ADD188R,0.28150X0.36811*%
%ADD191C,0.05906*%
%ADD192R,0.05906X0.05906*%
%ADD193O,0.11811X0.11024*%
%ADD194R,0.11811X0.11024*%
%ADD195C,0.02000*%
%ADD198R,0.41929X0.09252*%
%ADD200R,0.21457X0.33661*%
%ADD201R,0.34646X0.17520*%
%ADD202R,1.12795X0.11614*%
%ADD203R,0.33661X0.14961*%
%ADD204R,0.19488X0.21654*%
%ADD205R,0.13386X0.07480*%
%ADD206R,0.22835X0.43898*%
%ADD207R,0.23228X0.35827*%
%ADD208R,0.24016X0.39567*%
%ADD209R,0.22835X0.46260*%
%ADD210R,0.50787X0.19882*%
G36*
X451338Y395135D02*
X452715Y394766D01*
X454032Y394221D01*
X455266Y393508D01*
X456396Y392640D01*
X457404Y391633D01*
X458272Y390502D01*
X458985Y389268D01*
X459530Y387951D01*
X459899Y386574D01*
X460085Y385161D01*
X460085Y384449D01*
Y116732D01*
Y116020D01*
X459899Y114607D01*
X459530Y113230D01*
X458985Y111913D01*
X458272Y110679D01*
X457404Y109548D01*
X456397Y108541D01*
X455266Y107673D01*
X454032Y106960D01*
X452715Y106415D01*
X451338Y106046D01*
X449925Y105860D01*
X449212Y105860D01*
X360153D01*
X359793Y106299D01*
Y115551D01*
X359635Y115934D01*
X359252Y116092D01*
X317323D01*
X316940Y115934D01*
X316782Y115551D01*
Y106299D01*
X316422Y105860D01*
X113854D01*
X112441Y106046D01*
X111065Y106415D01*
X109748Y106960D01*
X108514Y107673D01*
X107383Y108541D01*
X106375Y109548D01*
X105508Y110679D01*
X104795Y111913D01*
X104250Y113230D01*
X103881Y114607D01*
X103695Y116020D01*
Y116732D01*
X103695Y384449D01*
Y385161D01*
X103881Y386574D01*
X104250Y387951D01*
X104795Y389268D01*
X105508Y390502D01*
X106375Y391633D01*
X107383Y392640D01*
X108514Y393508D01*
X109748Y394221D01*
X111065Y394766D01*
X112441Y395135D01*
X113854Y395321D01*
X449925D01*
X451338Y395135D01*
D02*
G37*
%LPC*%
G36*
X389961Y393459D02*
X389880Y393443D01*
X377677D01*
X377098Y393327D01*
X376607Y392999D01*
X376607Y392999D01*
X362253Y378645D01*
X361710Y378810D01*
X361702Y378853D01*
X364989Y382141D01*
X365058Y382186D01*
X365389Y382682D01*
X365506Y383268D01*
X365389Y383853D01*
X365058Y384349D01*
X364562Y384681D01*
X363976Y384797D01*
X363391Y384681D01*
X362895Y384349D01*
X362849Y384281D01*
X358772Y380204D01*
X358444Y379713D01*
X358329Y379134D01*
X358329Y379134D01*
Y328724D01*
X293914Y264309D01*
X236614D01*
X236614Y264309D01*
X236035Y264193D01*
X235544Y263865D01*
X209166Y237487D01*
X208838Y236997D01*
X208723Y236417D01*
X208723Y236417D01*
Y233071D01*
X208723Y233071D01*
X208838Y232492D01*
X209166Y232001D01*
X211922Y229245D01*
X212413Y228917D01*
X212992Y228802D01*
X217286D01*
X225841Y220247D01*
X225887Y220178D01*
X226383Y219847D01*
X226969Y219730D01*
X227554Y219847D01*
X228050Y220178D01*
X228381Y220675D01*
X228498Y221260D01*
X228381Y221845D01*
X228050Y222341D01*
X227981Y222387D01*
X218984Y231385D01*
Y238306D01*
X239204Y258526D01*
X295275D01*
X295276Y258526D01*
X295855Y258641D01*
X296346Y258969D01*
X365388Y328012D01*
X365888Y327805D01*
Y307993D01*
X365268Y307374D01*
X364941Y306883D01*
X364825Y306304D01*
X364825Y306303D01*
Y282364D01*
X364809Y282283D01*
X364926Y281698D01*
X365257Y281202D01*
X365753Y280871D01*
X366339Y280754D01*
X366924Y280871D01*
X367420Y281202D01*
X367752Y281698D01*
X367868Y282283D01*
X367852Y282364D01*
Y305677D01*
X368472Y306296D01*
X368472Y306296D01*
X368800Y306787D01*
X368915Y307366D01*
Y331378D01*
X368915Y331378D01*
X368800Y331957D01*
X368472Y332448D01*
X368472Y332448D01*
X364112Y336808D01*
Y376223D01*
X378304Y390416D01*
X389880D01*
X389961Y390400D01*
X390546Y390516D01*
X391042Y390848D01*
X391374Y391344D01*
X391490Y391929D01*
X391374Y392514D01*
X391042Y393011D01*
X390546Y393342D01*
X389961Y393459D01*
D02*
G37*
G36*
X449213Y391281D02*
X447880Y391150D01*
X446598Y390761D01*
X445417Y390129D01*
X444382Y389280D01*
X443532Y388245D01*
X442901Y387063D01*
X442512Y385782D01*
X442381Y384449D01*
X442512Y383116D01*
X442901Y381834D01*
X443532Y380653D01*
X444382Y379618D01*
X445417Y378768D01*
X446598Y378137D01*
X447880Y377748D01*
X449213Y377617D01*
X450546Y377748D01*
X451827Y378137D01*
X453008Y378768D01*
X454044Y379618D01*
X454893Y380653D01*
X455525Y381834D01*
X455913Y383116D01*
X456045Y384449D01*
X455913Y385782D01*
X455525Y387063D01*
X454893Y388245D01*
X454044Y389280D01*
X453008Y390129D01*
X451827Y390761D01*
X450546Y391150D01*
X449213Y391281D01*
D02*
G37*
G36*
X114567D02*
X113234Y391150D01*
X111952Y390761D01*
X110771Y390129D01*
X109736Y389280D01*
X108886Y388245D01*
X108255Y387063D01*
X107866Y385782D01*
X107735Y384449D01*
X107866Y383116D01*
X108255Y381834D01*
X108886Y380653D01*
X109736Y379618D01*
X110771Y378768D01*
X111952Y378137D01*
X113234Y377748D01*
X114567Y377617D01*
X115900Y377748D01*
X117181Y378137D01*
X118363Y378768D01*
X119398Y379618D01*
X120248Y380653D01*
X120879Y381834D01*
X121268Y383116D01*
X121399Y384449D01*
X121268Y385782D01*
X120879Y387063D01*
X120248Y388245D01*
X119398Y389280D01*
X118363Y390129D01*
X117181Y390761D01*
X115900Y391150D01*
X114567Y391281D01*
D02*
G37*
G36*
X390748Y353892D02*
X390163Y353775D01*
X389667Y353444D01*
X389451Y353121D01*
X389442Y353117D01*
X388905D01*
X388895Y353121D01*
X388680Y353444D01*
X388184Y353775D01*
X387598Y353892D01*
X387013Y353775D01*
X386517Y353444D01*
X386186Y352947D01*
X386069Y352362D01*
X386186Y351777D01*
X386517Y351281D01*
X386658Y351186D01*
Y350585D01*
X386517Y350491D01*
X386186Y349995D01*
X386069Y349410D01*
X386186Y348824D01*
X386517Y348328D01*
X387013Y347996D01*
X387598Y347880D01*
X388184Y347996D01*
X388680Y348328D01*
X388895Y348651D01*
X388905Y348654D01*
X389442D01*
X389451Y348651D01*
X389667Y348328D01*
X390163Y347996D01*
X390748Y347880D01*
X391333Y347996D01*
X391829Y348328D01*
X392161Y348824D01*
X392277Y349410D01*
X392161Y349995D01*
X391829Y350491D01*
X391688Y350585D01*
Y351186D01*
X391829Y351281D01*
X392161Y351777D01*
X392277Y352362D01*
X392161Y352947D01*
X391829Y353444D01*
X391333Y353775D01*
X390748Y353892D01*
D02*
G37*
G36*
X430315Y364309D02*
X429528D01*
X428349Y364193D01*
X427216Y363849D01*
X426171Y363291D01*
X425256Y362539D01*
X424505Y361624D01*
X423947Y360579D01*
X423603Y359446D01*
X423487Y358268D01*
X423603Y357089D01*
X423947Y355956D01*
X424505Y354912D01*
X425256Y353996D01*
X426171Y353245D01*
X427216Y352687D01*
X428349Y352343D01*
X429528Y352227D01*
X430315D01*
X431494Y352343D01*
X432627Y352687D01*
X433671Y353245D01*
X434586Y353996D01*
X435338Y354912D01*
X435896Y355956D01*
X436240Y357089D01*
X436356Y358268D01*
X436240Y359446D01*
X435896Y360579D01*
X435338Y361624D01*
X434586Y362539D01*
X433671Y363291D01*
X432627Y363849D01*
X431494Y364193D01*
X430315Y364309D01*
D02*
G37*
G36*
X390748Y345905D02*
X377362D01*
Y341303D01*
X376862Y341151D01*
X376672Y341436D01*
X376176Y341767D01*
X375590Y341884D01*
X375005Y341767D01*
X374509Y341436D01*
X374178Y340940D01*
X374061Y340354D01*
X374178Y339769D01*
X374509Y339273D01*
X375005Y338941D01*
X375590Y338825D01*
X376176Y338941D01*
X376672Y339273D01*
X376862Y339558D01*
X377362Y339406D01*
Y333819D01*
X390748D01*
Y345905D01*
D02*
G37*
G36*
X430315Y344624D02*
X429528D01*
X428349Y344508D01*
X427216Y344164D01*
X426171Y343605D01*
X425256Y342854D01*
X424505Y341939D01*
X423947Y340894D01*
X423603Y339761D01*
X423487Y338583D01*
X423603Y337404D01*
X423947Y336271D01*
X424505Y335226D01*
X425256Y334311D01*
X426171Y333560D01*
X427216Y333002D01*
X428349Y332658D01*
X429528Y332542D01*
X430315D01*
X431494Y332658D01*
X432627Y333002D01*
X433671Y333560D01*
X434586Y334311D01*
X435338Y335226D01*
X435896Y336271D01*
X436240Y337404D01*
X436356Y338583D01*
X436240Y339761D01*
X435896Y340894D01*
X435338Y341939D01*
X434586Y342854D01*
X433671Y343605D01*
X432627Y344164D01*
X431494Y344508D01*
X430315Y344624D01*
D02*
G37*
G36*
X226114Y335303D02*
X219209D01*
Y328398D01*
X226114D01*
Y335303D01*
D02*
G37*
G36*
X312114Y335303D02*
X305209D01*
Y328397D01*
X312114D01*
Y335303D01*
D02*
G37*
G36*
X212662Y335333D02*
X211760Y335214D01*
X210920Y334866D01*
X210199Y334313D01*
X209646Y333592D01*
X209298Y332752D01*
X209179Y331850D01*
X209298Y330949D01*
X209646Y330109D01*
X210199Y329388D01*
X210920Y328834D01*
X211760Y328486D01*
X212662Y328368D01*
X213563Y328486D01*
X214403Y328834D01*
X215124Y329388D01*
X215677Y330109D01*
X216025Y330949D01*
X216144Y331850D01*
X216025Y332752D01*
X215677Y333592D01*
X215124Y334313D01*
X214403Y334866D01*
X213563Y335214D01*
X212662Y335333D01*
D02*
G37*
G36*
X202661D02*
X201760Y335214D01*
X200920Y334866D01*
X200199Y334313D01*
X199645Y333592D01*
X199298Y332752D01*
X199179Y331850D01*
X199298Y330949D01*
X199645Y330109D01*
X200199Y329388D01*
X200920Y328834D01*
X201760Y328486D01*
X202661Y328368D01*
X203563Y328486D01*
X204403Y328834D01*
X205124Y329388D01*
X205678Y330109D01*
X206025Y330949D01*
X206144Y331850D01*
X206025Y332752D01*
X205678Y333592D01*
X205124Y334313D01*
X204403Y334866D01*
X203563Y335214D01*
X202661Y335333D01*
D02*
G37*
G36*
X192661D02*
X191760Y335214D01*
X190920Y334866D01*
X190199Y334313D01*
X189646Y333592D01*
X189298Y332752D01*
X189179Y331850D01*
X189298Y330949D01*
X189646Y330109D01*
X190199Y329388D01*
X190920Y328834D01*
X191760Y328486D01*
X192661Y328368D01*
X193563Y328486D01*
X194403Y328834D01*
X195124Y329388D01*
X195677Y330109D01*
X196025Y330949D01*
X196144Y331850D01*
X196025Y332752D01*
X195677Y333592D01*
X195124Y334313D01*
X194403Y334866D01*
X193563Y335214D01*
X192661Y335333D01*
D02*
G37*
G36*
X182661D02*
X181760Y335214D01*
X180920Y334866D01*
X180199Y334313D01*
X179646Y333592D01*
X179298Y332752D01*
X179179Y331850D01*
X179298Y330949D01*
X179646Y330109D01*
X180199Y329388D01*
X180920Y328834D01*
X181760Y328486D01*
X182661Y328368D01*
X183563Y328486D01*
X184403Y328834D01*
X185124Y329388D01*
X185678Y330109D01*
X186025Y330949D01*
X186144Y331850D01*
X186025Y332752D01*
X185678Y333592D01*
X185124Y334313D01*
X184403Y334866D01*
X183563Y335214D01*
X182661Y335333D01*
D02*
G37*
G36*
X172661D02*
X171760Y335214D01*
X170920Y334866D01*
X170199Y334313D01*
X169646Y333592D01*
X169298Y332752D01*
X169179Y331850D01*
X169298Y330949D01*
X169646Y330109D01*
X170199Y329388D01*
X170920Y328834D01*
X171760Y328486D01*
X172661Y328368D01*
X173563Y328486D01*
X174403Y328834D01*
X175124Y329388D01*
X175678Y330109D01*
X176025Y330949D01*
X176144Y331850D01*
X176025Y332752D01*
X175678Y333592D01*
X175124Y334313D01*
X174403Y334866D01*
X173563Y335214D01*
X172661Y335333D01*
D02*
G37*
G36*
X152662D02*
X151760Y335214D01*
X150920Y334866D01*
X150199Y334313D01*
X149645Y333592D01*
X149298Y332752D01*
X149179Y331850D01*
X149298Y330949D01*
X149645Y330109D01*
X150199Y329388D01*
X150920Y328834D01*
X151760Y328486D01*
X152662Y328368D01*
X153563Y328486D01*
X154403Y328834D01*
X155124Y329388D01*
X155677Y330109D01*
X156025Y330949D01*
X156144Y331850D01*
X156025Y332752D01*
X155677Y333592D01*
X155124Y334313D01*
X154403Y334866D01*
X153563Y335214D01*
X152662Y335333D01*
D02*
G37*
G36*
X142661D02*
X141760Y335214D01*
X140920Y334866D01*
X140199Y334313D01*
X139646Y333592D01*
X139298Y332752D01*
X139179Y331850D01*
X139298Y330949D01*
X139646Y330109D01*
X140199Y329388D01*
X140920Y328834D01*
X141760Y328486D01*
X142661Y328368D01*
X143563Y328486D01*
X144403Y328834D01*
X145124Y329388D01*
X145677Y330109D01*
X146025Y330949D01*
X146144Y331850D01*
X146025Y332752D01*
X145677Y333592D01*
X145124Y334313D01*
X144403Y334866D01*
X143563Y335214D01*
X142661Y335333D01*
D02*
G37*
G36*
X132661D02*
X131760Y335214D01*
X130920Y334866D01*
X130199Y334313D01*
X129646Y333592D01*
X129298Y332752D01*
X129179Y331850D01*
X129298Y330949D01*
X129646Y330109D01*
X130199Y329388D01*
X130920Y328834D01*
X131760Y328486D01*
X132661Y328368D01*
X133563Y328486D01*
X134403Y328834D01*
X135124Y329388D01*
X135678Y330109D01*
X136025Y330949D01*
X136144Y331850D01*
X136025Y332752D01*
X135678Y333592D01*
X135124Y334313D01*
X134403Y334866D01*
X133563Y335214D01*
X132661Y335333D01*
D02*
G37*
G36*
X298661Y335333D02*
X297760Y335214D01*
X296920Y334866D01*
X296199Y334313D01*
X295645Y333591D01*
X295297Y332751D01*
X295179Y331850D01*
X295297Y330949D01*
X295645Y330109D01*
X296199Y329388D01*
X296920Y328834D01*
X297760Y328486D01*
X298661Y328368D01*
X299563Y328486D01*
X300403Y328834D01*
X301124Y329388D01*
X301677Y330109D01*
X302025Y330949D01*
X302144Y331850D01*
X302025Y332751D01*
X301677Y333591D01*
X301124Y334313D01*
X300403Y334866D01*
X299563Y335214D01*
X298661Y335333D01*
D02*
G37*
G36*
X288661D02*
X287760Y335214D01*
X286920Y334866D01*
X286199Y334313D01*
X285645Y333591D01*
X285297Y332751D01*
X285179Y331850D01*
X285297Y330949D01*
X285645Y330109D01*
X286199Y329388D01*
X286920Y328834D01*
X287760Y328486D01*
X288661Y328368D01*
X289563Y328486D01*
X290403Y328834D01*
X291124Y329388D01*
X291677Y330109D01*
X292025Y330949D01*
X292144Y331850D01*
X292025Y332751D01*
X291677Y333591D01*
X291124Y334313D01*
X290403Y334866D01*
X289563Y335214D01*
X288661Y335333D01*
D02*
G37*
G36*
X278661D02*
X277760Y335214D01*
X276920Y334866D01*
X276199Y334313D01*
X275645Y333591D01*
X275297Y332751D01*
X275179Y331850D01*
X275297Y330949D01*
X275645Y330109D01*
X276199Y329388D01*
X276920Y328834D01*
X277760Y328486D01*
X278661Y328368D01*
X279563Y328486D01*
X280403Y328834D01*
X281124Y329388D01*
X281677Y330109D01*
X282025Y330949D01*
X282144Y331850D01*
X282025Y332751D01*
X281677Y333591D01*
X281124Y334313D01*
X280403Y334866D01*
X279563Y335214D01*
X278661Y335333D01*
D02*
G37*
G36*
X268661D02*
X267760Y335214D01*
X266920Y334866D01*
X266199Y334313D01*
X265645Y333591D01*
X265297Y332751D01*
X265179Y331850D01*
X265297Y330949D01*
X265645Y330109D01*
X266199Y329388D01*
X266920Y328834D01*
X267760Y328486D01*
X268661Y328368D01*
X269563Y328486D01*
X270403Y328834D01*
X271124Y329388D01*
X271677Y330109D01*
X272025Y330949D01*
X272144Y331850D01*
X272025Y332751D01*
X271677Y333591D01*
X271124Y334313D01*
X270403Y334866D01*
X269563Y335214D01*
X268661Y335333D01*
D02*
G37*
G36*
X258661D02*
X257760Y335214D01*
X256920Y334866D01*
X256199Y334313D01*
X255645Y333591D01*
X255297Y332751D01*
X255179Y331850D01*
X255297Y330949D01*
X255645Y330109D01*
X256199Y329388D01*
X256920Y328834D01*
X257760Y328486D01*
X258661Y328368D01*
X259563Y328486D01*
X260403Y328834D01*
X261124Y329388D01*
X261677Y330109D01*
X262025Y330949D01*
X262144Y331850D01*
X262025Y332751D01*
X261677Y333591D01*
X261124Y334313D01*
X260403Y334866D01*
X259563Y335214D01*
X258661Y335333D01*
D02*
G37*
G36*
X248661D02*
X247760Y335214D01*
X246920Y334866D01*
X246199Y334313D01*
X245645Y333591D01*
X245297Y332751D01*
X245179Y331850D01*
X245297Y330949D01*
X245645Y330109D01*
X246199Y329388D01*
X246920Y328834D01*
X247760Y328486D01*
X248661Y328368D01*
X249563Y328486D01*
X250403Y328834D01*
X251124Y329388D01*
X251677Y330109D01*
X252025Y330949D01*
X252144Y331850D01*
X252025Y332751D01*
X251677Y333591D01*
X251124Y334313D01*
X250403Y334866D01*
X249563Y335214D01*
X248661Y335333D01*
D02*
G37*
G36*
X238661D02*
X237760Y335214D01*
X236920Y334866D01*
X236199Y334313D01*
X235645Y333591D01*
X235297Y332751D01*
X235179Y331850D01*
X235297Y330949D01*
X235645Y330109D01*
X236199Y329388D01*
X236920Y328834D01*
X237760Y328486D01*
X238661Y328368D01*
X239563Y328486D01*
X240403Y328834D01*
X241124Y329388D01*
X241677Y330109D01*
X242025Y330949D01*
X242144Y331850D01*
X242025Y332751D01*
X241677Y333591D01*
X241124Y334313D01*
X240403Y334866D01*
X239563Y335214D01*
X238661Y335333D01*
D02*
G37*
G36*
X375590Y331057D02*
X375005Y330941D01*
X374509Y330609D01*
X374178Y330113D01*
X374061Y329528D01*
X374178Y328942D01*
X374509Y328446D01*
X375005Y328115D01*
X375590Y327998D01*
X376176Y328115D01*
X376672Y328446D01*
X377004Y328942D01*
X377120Y329528D01*
X377004Y330113D01*
X376672Y330609D01*
X376176Y330941D01*
X375590Y331057D01*
D02*
G37*
G36*
X190945Y314522D02*
X190360Y314405D01*
X189863Y314074D01*
X189532Y313577D01*
X189416Y312992D01*
X189532Y312407D01*
X189863Y311911D01*
X190360Y311579D01*
X190945Y311463D01*
X191530Y311579D01*
X192026Y311911D01*
X192358Y312407D01*
X192474Y312992D01*
X192358Y313577D01*
X192026Y314074D01*
X191530Y314405D01*
X190945Y314522D01*
D02*
G37*
G36*
X190748Y310781D02*
X190163Y310665D01*
X189667Y310333D01*
X189335Y309837D01*
X189219Y309252D01*
X189335Y308667D01*
X189667Y308171D01*
X190163Y307839D01*
X190748Y307723D01*
X191333Y307839D01*
X191830Y308171D01*
X192161Y308667D01*
X192277Y309252D01*
X192161Y309837D01*
X191830Y310333D01*
X191333Y310665D01*
X190748Y310781D01*
D02*
G37*
G36*
X191142Y306647D02*
X190557Y306531D01*
X190060Y306200D01*
X189729Y305703D01*
X189612Y305118D01*
X189729Y304533D01*
X190060Y304037D01*
X190557Y303705D01*
X191142Y303589D01*
X191727Y303705D01*
X192223Y304037D01*
X192555Y304533D01*
X192671Y305118D01*
X192555Y305703D01*
X192223Y306200D01*
X191727Y306531D01*
X191142Y306647D01*
D02*
G37*
G36*
X349252Y300742D02*
X348667Y300626D01*
X348170Y300294D01*
X347839Y299798D01*
X347723Y299213D01*
X347839Y298627D01*
X348170Y298131D01*
X348667Y297800D01*
X349252Y297683D01*
X349837Y297800D01*
X350333Y298131D01*
X350665Y298627D01*
X350781Y299213D01*
X350665Y299798D01*
X350333Y300294D01*
X349837Y300626D01*
X349252Y300742D01*
D02*
G37*
G36*
X377756Y299010D02*
X377171Y298893D01*
X376675Y298562D01*
X376343Y298066D01*
X376226Y297480D01*
X376343Y296895D01*
X376675Y296399D01*
X377171Y296067D01*
X377756Y295951D01*
X378341Y296067D01*
X378837Y296399D01*
X379169Y296895D01*
X379285Y297480D01*
X379169Y298066D01*
X378837Y298562D01*
X378341Y298893D01*
X377756Y299010D01*
D02*
G37*
G36*
X349252Y295427D02*
X348667Y295311D01*
X348170Y294979D01*
X347839Y294483D01*
X347723Y293898D01*
X347839Y293312D01*
X348170Y292816D01*
X348667Y292485D01*
X349252Y292368D01*
X349837Y292485D01*
X350333Y292816D01*
X350665Y293312D01*
X350781Y293898D01*
X350665Y294483D01*
X350333Y294979D01*
X349837Y295311D01*
X349252Y295427D01*
D02*
G37*
G36*
X387402Y290899D02*
X386816Y290783D01*
X386320Y290452D01*
X385989Y289955D01*
X385872Y289370D01*
X385989Y288785D01*
X386320Y288289D01*
X386816Y287957D01*
X387402Y287841D01*
X387987Y287957D01*
X388483Y288289D01*
X388814Y288785D01*
X388931Y289370D01*
X388814Y289955D01*
X388483Y290452D01*
X387987Y290783D01*
X387402Y290899D01*
D02*
G37*
G36*
X377756Y288616D02*
X377171Y288500D01*
X376675Y288168D01*
X376343Y287672D01*
X376226Y287087D01*
X376343Y286501D01*
X376675Y286005D01*
X377171Y285674D01*
X377756Y285557D01*
X378341Y285674D01*
X378837Y286005D01*
X379169Y286501D01*
X379285Y287087D01*
X379169Y287672D01*
X378837Y288168D01*
X378341Y288500D01*
X377756Y288616D01*
D02*
G37*
G36*
X446850Y321407D02*
X422835D01*
X422452Y321249D01*
X422294Y320866D01*
Y281299D01*
X422452Y280917D01*
X422835Y280758D01*
X446850D01*
X447233Y280917D01*
X447392Y281299D01*
Y320866D01*
X447233Y321249D01*
X446850Y321407D01*
D02*
G37*
G36*
X377756Y283419D02*
X377171Y283303D01*
X376675Y282971D01*
X376343Y282475D01*
X376226Y281890D01*
X376343Y281305D01*
X376675Y280808D01*
X377171Y280477D01*
X377756Y280360D01*
X378341Y280477D01*
X378837Y280808D01*
X379169Y281305D01*
X379285Y281890D01*
X379169Y282475D01*
X378837Y282971D01*
X378341Y283303D01*
X377756Y283419D01*
D02*
G37*
G36*
X201575Y277120D02*
X200990Y277004D01*
X200493Y276672D01*
X200162Y276176D01*
X200045Y275590D01*
X200162Y275005D01*
X200493Y274509D01*
X200990Y274178D01*
X201575Y274061D01*
X202160Y274178D01*
X202656Y274509D01*
X202988Y275005D01*
X203104Y275590D01*
X202988Y276176D01*
X202656Y276672D01*
X202160Y277004D01*
X201575Y277120D01*
D02*
G37*
G36*
X219980Y276136D02*
X219395Y276019D01*
X218899Y275688D01*
X218567Y275192D01*
X218451Y274606D01*
X218567Y274021D01*
X218899Y273525D01*
X219395Y273193D01*
X219980Y273077D01*
X220566Y273193D01*
X221062Y273525D01*
X221393Y274021D01*
X221510Y274606D01*
X221393Y275192D01*
X221062Y275688D01*
X220566Y276019D01*
X219980Y276136D01*
D02*
G37*
G36*
X212254D02*
X211669Y276019D01*
X211173Y275688D01*
X210841Y275192D01*
X210724Y274606D01*
X210841Y274021D01*
X211173Y273525D01*
X211669Y273193D01*
X212254Y273077D01*
X212839Y273193D01*
X213335Y273525D01*
X213667Y274021D01*
X213783Y274606D01*
X213667Y275192D01*
X213335Y275688D01*
X212839Y276019D01*
X212254Y276136D01*
D02*
G37*
G36*
X231496Y275939D02*
X230911Y275822D01*
X230415Y275491D01*
X230083Y274995D01*
X229967Y274410D01*
X230083Y273824D01*
X230415Y273328D01*
X230911Y272996D01*
X231496Y272880D01*
X232081Y272996D01*
X232577Y273328D01*
X232909Y273824D01*
X233026Y274410D01*
X232909Y274995D01*
X232577Y275491D01*
X232081Y275822D01*
X231496Y275939D01*
D02*
G37*
G36*
X201969Y257238D02*
X201383Y257122D01*
X200887Y256790D01*
X200555Y256294D01*
X200439Y255709D01*
X200555Y255123D01*
X200887Y254627D01*
X201383Y254296D01*
X201969Y254179D01*
X202554Y254296D01*
X203050Y254627D01*
X203381Y255123D01*
X203498Y255709D01*
X203381Y256294D01*
X203050Y256790D01*
X202554Y257122D01*
X201969Y257238D01*
D02*
G37*
G36*
X201575Y252907D02*
X200990Y252791D01*
X200493Y252459D01*
X200162Y251963D01*
X200045Y251378D01*
X200162Y250793D01*
X200493Y250296D01*
X200990Y249965D01*
X201575Y249849D01*
X202160Y249965D01*
X202656Y250296D01*
X202988Y250793D01*
X203104Y251378D01*
X202988Y251963D01*
X202656Y252459D01*
X202160Y252791D01*
X201575Y252907D01*
D02*
G37*
G36*
X256299Y252120D02*
X255714Y252004D01*
X255218Y251672D01*
X254886Y251176D01*
X254770Y250590D01*
X254886Y250005D01*
X255218Y249509D01*
X255714Y249178D01*
X256299Y249061D01*
X256885Y249178D01*
X257381Y249509D01*
X257712Y250005D01*
X257829Y250590D01*
X257712Y251176D01*
X257381Y251672D01*
X256885Y252004D01*
X256299Y252120D01*
D02*
G37*
G36*
X418110Y321604D02*
X394882D01*
X394499Y321446D01*
X394341Y321063D01*
Y285236D01*
X394499Y284854D01*
X394537Y284838D01*
Y282480D01*
Y240158D01*
Y235818D01*
X394038Y235523D01*
X393898Y235581D01*
X371181D01*
Y271614D01*
X371260Y271693D01*
X318543D01*
Y214657D01*
X318555Y214646D01*
X321900D01*
Y179724D01*
X322058Y179342D01*
X322097Y179326D01*
Y171260D01*
Y159006D01*
X269685D01*
X269302Y158847D01*
X269144Y158465D01*
Y146850D01*
X269302Y146468D01*
X269685Y146309D01*
X382480D01*
X382863Y146468D01*
X383021Y146850D01*
Y158465D01*
X382863Y158847D01*
X382480Y159006D01*
X357825D01*
Y171260D01*
X357666Y171642D01*
X357283Y171801D01*
X345821D01*
X345817Y171811D01*
Y173425D01*
Y180905D01*
Y214646D01*
X359498D01*
Y213386D01*
X359657Y213003D01*
X360039Y212845D01*
X379528D01*
X379910Y213003D01*
X380069Y213386D01*
Y219537D01*
X393898D01*
X394251Y219684D01*
X394280Y219696D01*
X394742Y219874D01*
X395079Y219734D01*
X445866D01*
X446249Y219893D01*
X446407Y220276D01*
Y240158D01*
X446249Y240540D01*
X445866Y240699D01*
X418455D01*
Y282480D01*
X418651Y282677D01*
Y285236D01*
Y321063D01*
X418493Y321446D01*
X418110Y321604D01*
D02*
G37*
G36*
X256299Y242671D02*
X255714Y242555D01*
X255218Y242223D01*
X254886Y241727D01*
X254770Y241142D01*
X254886Y240557D01*
X255218Y240060D01*
X255540Y239845D01*
X255544Y239836D01*
Y239298D01*
X255540Y239289D01*
X255218Y239074D01*
X254886Y238577D01*
X254770Y237992D01*
X254886Y237407D01*
X255218Y236911D01*
X255540Y236695D01*
X255544Y236686D01*
Y236149D01*
X255540Y236139D01*
X255218Y235924D01*
X254886Y235428D01*
X254770Y234842D01*
X254886Y234257D01*
X255218Y233761D01*
X255714Y233430D01*
X256299Y233313D01*
X256885Y233430D01*
X257381Y233761D01*
X257712Y234257D01*
X257829Y234842D01*
X257712Y235428D01*
X257381Y235924D01*
X257058Y236139D01*
X257054Y236149D01*
Y236686D01*
X257058Y236695D01*
X257381Y236911D01*
X257712Y237407D01*
X257829Y237992D01*
X257712Y238577D01*
X257381Y239074D01*
X257058Y239289D01*
X257054Y239298D01*
Y239836D01*
X257058Y239845D01*
X257381Y240060D01*
X257712Y240557D01*
X257829Y241142D01*
X257712Y241727D01*
X257381Y242223D01*
X256885Y242555D01*
X256299Y242671D01*
D02*
G37*
G36*
X213386Y225545D02*
X212801Y225429D01*
X212304Y225097D01*
X211973Y224601D01*
X211856Y224016D01*
X211973Y223430D01*
X212304Y222934D01*
X212801Y222603D01*
X213386Y222486D01*
X213971Y222603D01*
X214467Y222934D01*
X214799Y223430D01*
X214915Y224016D01*
X214799Y224601D01*
X214467Y225097D01*
X213971Y225429D01*
X213386Y225545D01*
D02*
G37*
G36*
Y207435D02*
X212801Y207318D01*
X212304Y206987D01*
X211973Y206491D01*
X211856Y205906D01*
X211973Y205320D01*
X212304Y204824D01*
X212801Y204492D01*
X213386Y204376D01*
X213971Y204492D01*
X214467Y204824D01*
X214799Y205320D01*
X214915Y205906D01*
X214799Y206491D01*
X214467Y206987D01*
X213971Y207318D01*
X213386Y207435D01*
D02*
G37*
G36*
X386811Y204088D02*
X386226Y203972D01*
X385730Y203641D01*
X385398Y203144D01*
X385282Y202559D01*
X385398Y201974D01*
X385730Y201478D01*
X386226Y201146D01*
X386811Y201030D01*
X387396Y201146D01*
X387893Y201478D01*
X388224Y201974D01*
X388340Y202559D01*
X388224Y203144D01*
X387893Y203641D01*
X387396Y203972D01*
X386811Y204088D01*
D02*
G37*
G36*
X353740Y203892D02*
X353155Y203775D01*
X352659Y203444D01*
X352327Y202947D01*
X352211Y202362D01*
X352327Y201777D01*
X352659Y201281D01*
X353155Y200949D01*
X353740Y200833D01*
X354325Y200949D01*
X354822Y201281D01*
X355153Y201777D01*
X355270Y202362D01*
X355153Y202947D01*
X354822Y203444D01*
X354325Y203775D01*
X353740Y203892D01*
D02*
G37*
G36*
X386811Y199364D02*
X386226Y199248D01*
X385730Y198916D01*
X385398Y198420D01*
X385282Y197835D01*
X385398Y197249D01*
X385730Y196753D01*
X386226Y196422D01*
X386811Y196305D01*
X387396Y196422D01*
X387893Y196753D01*
X388224Y197249D01*
X388340Y197835D01*
X388224Y198420D01*
X387893Y198916D01*
X387396Y199248D01*
X386811Y199364D01*
D02*
G37*
G36*
X409449Y197789D02*
X408863Y197673D01*
X408367Y197341D01*
X408036Y196845D01*
X407919Y196260D01*
X408036Y195675D01*
X408367Y195178D01*
X408863Y194847D01*
X409449Y194730D01*
X410034Y194847D01*
X410530Y195178D01*
X410862Y195675D01*
X410978Y196260D01*
X410862Y196845D01*
X410530Y197341D01*
X410034Y197673D01*
X409449Y197789D01*
D02*
G37*
G36*
Y191096D02*
X408863Y190980D01*
X408367Y190648D01*
X408036Y190152D01*
X407919Y189567D01*
X408036Y188982D01*
X408367Y188486D01*
X408863Y188154D01*
X409449Y188038D01*
X410034Y188154D01*
X410530Y188486D01*
X410862Y188982D01*
X410978Y189567D01*
X410862Y190152D01*
X410530Y190648D01*
X410034Y190980D01*
X409449Y191096D01*
D02*
G37*
G36*
X405315Y190900D02*
X404730Y190783D01*
X404234Y190452D01*
X403902Y189955D01*
X403786Y189370D01*
X403902Y188785D01*
X404234Y188289D01*
X404730Y187957D01*
X405315Y187841D01*
X405900Y187957D01*
X406396Y188289D01*
X406728Y188785D01*
X406844Y189370D01*
X406728Y189955D01*
X406396Y190452D01*
X405900Y190783D01*
X405315Y190900D01*
D02*
G37*
G36*
X409449Y181057D02*
X408863Y180940D01*
X408367Y180609D01*
X408036Y180113D01*
X407919Y179528D01*
X408036Y178942D01*
X408367Y178446D01*
X408863Y178115D01*
X409449Y177998D01*
X410034Y178115D01*
X410530Y178446D01*
X410862Y178942D01*
X410978Y179528D01*
X410862Y180113D01*
X410530Y180609D01*
X410034Y180940D01*
X409449Y181057D01*
D02*
G37*
G36*
X393406Y176726D02*
X392820Y176610D01*
X392324Y176278D01*
X391992Y175782D01*
X391876Y175197D01*
X391992Y174612D01*
X392324Y174115D01*
X392820Y173784D01*
X393406Y173668D01*
X393991Y173784D01*
X394487Y174115D01*
X394818Y174612D01*
X394935Y175197D01*
X394818Y175782D01*
X394487Y176278D01*
X393991Y176610D01*
X393406Y176726D01*
D02*
G37*
G36*
X172114Y145303D02*
X165209D01*
Y138398D01*
X172114D01*
Y145303D01*
D02*
G37*
G36*
X308661Y145333D02*
X307760Y145214D01*
X306920Y144866D01*
X306199Y144313D01*
X305645Y143592D01*
X305297Y142752D01*
X305179Y141850D01*
X305297Y140949D01*
X305645Y140109D01*
X306199Y139388D01*
X306920Y138834D01*
X307760Y138487D01*
X308661Y138368D01*
X309563Y138487D01*
X310403Y138834D01*
X311124Y139388D01*
X311677Y140109D01*
X312025Y140949D01*
X312144Y141850D01*
X312025Y142752D01*
X311677Y143592D01*
X311124Y144313D01*
X310403Y144866D01*
X309563Y145214D01*
X308661Y145333D01*
D02*
G37*
G36*
X298661D02*
X297760Y145214D01*
X296920Y144866D01*
X296199Y144313D01*
X295645Y143592D01*
X295298Y142752D01*
X295179Y141850D01*
X295298Y140949D01*
X295645Y140109D01*
X296199Y139388D01*
X296920Y138834D01*
X297760Y138487D01*
X298661Y138368D01*
X299563Y138487D01*
X300403Y138834D01*
X301124Y139388D01*
X301677Y140109D01*
X302025Y140949D01*
X302144Y141850D01*
X302025Y142752D01*
X301677Y143592D01*
X301124Y144313D01*
X300403Y144866D01*
X299563Y145214D01*
X298661Y145333D01*
D02*
G37*
G36*
X288661D02*
X287760Y145214D01*
X286920Y144866D01*
X286199Y144313D01*
X285645Y143592D01*
X285297Y142752D01*
X285179Y141850D01*
X285297Y140949D01*
X285645Y140109D01*
X286199Y139388D01*
X286920Y138834D01*
X287760Y138487D01*
X288661Y138368D01*
X289563Y138487D01*
X290403Y138834D01*
X291124Y139388D01*
X291677Y140109D01*
X292025Y140949D01*
X292144Y141850D01*
X292025Y142752D01*
X291677Y143592D01*
X291124Y144313D01*
X290403Y144866D01*
X289563Y145214D01*
X288661Y145333D01*
D02*
G37*
G36*
X278661D02*
X277760Y145214D01*
X276920Y144866D01*
X276199Y144313D01*
X275645Y143592D01*
X275297Y142752D01*
X275179Y141850D01*
X275297Y140949D01*
X275645Y140109D01*
X276199Y139388D01*
X276920Y138834D01*
X277760Y138487D01*
X278661Y138368D01*
X279563Y138487D01*
X280403Y138834D01*
X281124Y139388D01*
X281677Y140109D01*
X282025Y140949D01*
X282144Y141850D01*
X282025Y142752D01*
X281677Y143592D01*
X281124Y144313D01*
X280403Y144866D01*
X279563Y145214D01*
X278661Y145333D01*
D02*
G37*
G36*
X268661D02*
X267760Y145214D01*
X266920Y144866D01*
X266199Y144313D01*
X265645Y143592D01*
X265298Y142752D01*
X265179Y141850D01*
X265298Y140949D01*
X265645Y140109D01*
X266199Y139388D01*
X266920Y138834D01*
X267760Y138487D01*
X268661Y138368D01*
X269563Y138487D01*
X270403Y138834D01*
X271124Y139388D01*
X271677Y140109D01*
X272025Y140949D01*
X272144Y141850D01*
X272025Y142752D01*
X271677Y143592D01*
X271124Y144313D01*
X270403Y144866D01*
X269563Y145214D01*
X268661Y145333D01*
D02*
G37*
G36*
X238662D02*
X237760Y145214D01*
X236920Y144866D01*
X236199Y144313D01*
X235646Y143592D01*
X235298Y142752D01*
X235179Y141850D01*
X235298Y140949D01*
X235646Y140109D01*
X236199Y139388D01*
X236920Y138834D01*
X237760Y138487D01*
X238662Y138368D01*
X239563Y138487D01*
X240403Y138834D01*
X241124Y139388D01*
X241677Y140109D01*
X242025Y140949D01*
X242144Y141850D01*
X242025Y142752D01*
X241677Y143592D01*
X241124Y144313D01*
X240403Y144866D01*
X239563Y145214D01*
X238662Y145333D01*
D02*
G37*
G36*
X208662D02*
X207760Y145214D01*
X206920Y144866D01*
X206199Y144313D01*
X205645Y143592D01*
X205298Y142752D01*
X205179Y141850D01*
X205298Y140949D01*
X205645Y140109D01*
X206199Y139388D01*
X206920Y138834D01*
X207760Y138487D01*
X208662Y138368D01*
X209563Y138487D01*
X210403Y138834D01*
X211124Y139388D01*
X211678Y140109D01*
X212025Y140949D01*
X212144Y141850D01*
X212025Y142752D01*
X211678Y143592D01*
X211124Y144313D01*
X210403Y144866D01*
X209563Y145214D01*
X208662Y145333D01*
D02*
G37*
G36*
X198661D02*
X197760Y145214D01*
X196920Y144866D01*
X196199Y144313D01*
X195645Y143592D01*
X195298Y142752D01*
X195179Y141850D01*
X195298Y140949D01*
X195645Y140109D01*
X196199Y139388D01*
X196920Y138834D01*
X197760Y138487D01*
X198661Y138368D01*
X199563Y138487D01*
X200403Y138834D01*
X201124Y139388D01*
X201677Y140109D01*
X202025Y140949D01*
X202144Y141850D01*
X202025Y142752D01*
X201677Y143592D01*
X201124Y144313D01*
X200403Y144866D01*
X199563Y145214D01*
X198661Y145333D01*
D02*
G37*
G36*
X188662D02*
X187760Y145214D01*
X186920Y144866D01*
X186199Y144313D01*
X185645Y143592D01*
X185298Y142752D01*
X185179Y141850D01*
X185298Y140949D01*
X185645Y140109D01*
X186199Y139388D01*
X186920Y138834D01*
X187760Y138487D01*
X188662Y138368D01*
X189563Y138487D01*
X190403Y138834D01*
X191124Y139388D01*
X191677Y140109D01*
X192025Y140949D01*
X192144Y141850D01*
X192025Y142752D01*
X191677Y143592D01*
X191124Y144313D01*
X190403Y144866D01*
X189563Y145214D01*
X188662Y145333D01*
D02*
G37*
G36*
X178662D02*
X177760Y145214D01*
X176920Y144866D01*
X176199Y144313D01*
X175645Y143592D01*
X175298Y142752D01*
X175179Y141850D01*
X175298Y140949D01*
X175645Y140109D01*
X176199Y139388D01*
X176920Y138834D01*
X177760Y138487D01*
X178662Y138368D01*
X179563Y138487D01*
X180403Y138834D01*
X181124Y139388D01*
X181677Y140109D01*
X182025Y140949D01*
X182144Y141850D01*
X182025Y142752D01*
X181677Y143592D01*
X181124Y144313D01*
X180403Y144866D01*
X179563Y145214D01*
X178662Y145333D01*
D02*
G37*
G36*
X411221Y155069D02*
X389764D01*
X389381Y154910D01*
X389223Y154528D01*
Y120866D01*
X389381Y120483D01*
X389764Y120325D01*
X411221D01*
X411603Y120483D01*
X411762Y120866D01*
Y154528D01*
X411603Y154910D01*
X411221Y155069D01*
D02*
G37*
G36*
X412598Y116490D02*
X412013Y116374D01*
X411517Y116042D01*
X411186Y115546D01*
X411069Y114961D01*
X411186Y114375D01*
X411517Y113879D01*
X412013Y113548D01*
X412598Y113431D01*
X413184Y113548D01*
X413680Y113879D01*
X414011Y114375D01*
X414128Y114961D01*
X414011Y115546D01*
X413680Y116042D01*
X413184Y116374D01*
X412598Y116490D01*
D02*
G37*
G36*
X442913Y158612D02*
X414764D01*
X414381Y158454D01*
X414223Y158071D01*
Y121260D01*
X414381Y120877D01*
X414764Y120719D01*
X442913D01*
X443135Y120810D01*
X443206Y120759D01*
X443467Y120407D01*
X442901Y119347D01*
X442512Y118065D01*
X442381Y116732D01*
X442512Y115400D01*
X442901Y114118D01*
X443532Y112937D01*
X444382Y111901D01*
X445417Y111052D01*
X446598Y110420D01*
X447880Y110031D01*
X449213Y109900D01*
X450546Y110031D01*
X451827Y110420D01*
X453008Y111052D01*
X454044Y111901D01*
X454893Y112937D01*
X455525Y114118D01*
X455913Y115400D01*
X456045Y116732D01*
X455913Y118065D01*
X455525Y119347D01*
X454893Y120528D01*
X454044Y121563D01*
X453008Y122413D01*
X451827Y123044D01*
X450546Y123433D01*
X449213Y123565D01*
X447880Y123433D01*
X446598Y123044D01*
X445417Y122413D01*
X444382Y121563D01*
X443856Y120924D01*
X443423Y121184D01*
X443434Y121211D01*
X443455Y121260D01*
Y158071D01*
X443296Y158454D01*
X442913Y158612D01*
D02*
G37*
G36*
X114567Y123565D02*
X113234Y123433D01*
X111952Y123044D01*
X110771Y122413D01*
X109736Y121563D01*
X108886Y120528D01*
X108255Y119347D01*
X107866Y118065D01*
X107735Y116732D01*
X107866Y115400D01*
X108255Y114118D01*
X108886Y112937D01*
X109736Y111901D01*
X110771Y111052D01*
X111952Y110420D01*
X113234Y110031D01*
X114567Y109900D01*
X115900Y110031D01*
X117181Y110420D01*
X118363Y111052D01*
X119398Y111901D01*
X120248Y112937D01*
X120879Y114118D01*
X121268Y115400D01*
X121399Y116732D01*
X121268Y118065D01*
X120879Y119347D01*
X120248Y120528D01*
X119398Y121563D01*
X118363Y122413D01*
X117181Y123044D01*
X115900Y123433D01*
X114567Y123565D01*
D02*
G37*
G36*
X399319Y114083D02*
X392413D01*
Y107177D01*
X399319D01*
Y114083D01*
D02*
G37*
G36*
X236689Y212864D02*
X236689Y212864D01*
X233784D01*
X233051Y212718D01*
X232430Y212303D01*
X232430Y212303D01*
X230733Y210606D01*
X230318Y209985D01*
X230172Y209252D01*
X230172Y209252D01*
Y161620D01*
X217937Y149385D01*
X217522Y148764D01*
X217377Y148031D01*
X217522Y147299D01*
X217937Y146678D01*
X218559Y146263D01*
X219291Y146117D01*
X220024Y146263D01*
X220645Y146678D01*
X233440Y159473D01*
X233440Y159473D01*
X233856Y160094D01*
X234001Y160827D01*
X236914D01*
Y149803D01*
X237012Y149315D01*
X237288Y148902D01*
X243214Y142976D01*
Y136614D01*
X243311Y136126D01*
X243587Y135713D01*
X253430Y125871D01*
X253843Y125594D01*
X254331Y125497D01*
X335333D01*
X335336Y125493D01*
X335832Y125162D01*
X336417Y125045D01*
X337003Y125162D01*
X337357Y125399D01*
X337697Y125459D01*
X338037Y125399D01*
X338391Y125162D01*
X338976Y125045D01*
X339562Y125162D01*
X340058Y125493D01*
X340389Y125989D01*
X340506Y126575D01*
X340506Y126575D01*
X340506D01*
Y131337D01*
X353587D01*
X371730Y113194D01*
X371743Y113154D01*
X371870Y113010D01*
X371967Y112867D01*
X372057Y112696D01*
X372139Y112496D01*
X372210Y112265D01*
X372270Y112004D01*
X372316Y111720D01*
X372369Y111037D01*
X372372Y110654D01*
X372384Y110627D01*
X372502Y109729D01*
X372850Y108889D01*
X373404Y108167D01*
X374125Y107614D01*
X374965Y107266D01*
X375866Y107147D01*
X385866D01*
X386768Y107266D01*
X387607Y107614D01*
X388329Y108167D01*
X388882Y108889D01*
X389230Y109729D01*
X389349Y110630D01*
X389230Y111531D01*
X388882Y112371D01*
X388329Y113093D01*
X387607Y113646D01*
X386768Y113994D01*
X385866Y114112D01*
X385574Y114074D01*
X385482Y114102D01*
X385113Y114069D01*
X384784Y114057D01*
X384482Y114063D01*
X384207Y114088D01*
X383961Y114130D01*
X383742Y114187D01*
X383551Y114259D01*
X383385Y114342D01*
X383243Y114438D01*
X383093Y114569D01*
X383082Y114573D01*
X383076Y114583D01*
X383043Y114593D01*
X380117Y117518D01*
X379756Y117760D01*
X379331Y117844D01*
X379331Y117844D01*
X372602D01*
X355530Y134916D01*
X355169Y135157D01*
X354744Y135242D01*
X354744Y135242D01*
X257669D01*
X255200Y137711D01*
X255200Y137906D01*
X255691Y138398D01*
X262114D01*
Y145303D01*
X256741D01*
X256550Y145765D01*
X260589Y149804D01*
X260589Y149804D01*
X260830Y150165D01*
X260915Y150591D01*
X260915Y150591D01*
Y181614D01*
X260830Y182040D01*
X260589Y182400D01*
X260589Y182400D01*
X253474Y189516D01*
Y201590D01*
X253474Y201590D01*
X253390Y202016D01*
X253149Y202376D01*
X253148Y202376D01*
X249361Y206164D01*
X249361Y206171D01*
X249369Y206340D01*
X249382Y206460D01*
X249387Y206486D01*
X249390Y206498D01*
X249398Y206520D01*
X249397Y206530D01*
X249641Y206895D01*
X249758Y207480D01*
X249641Y208066D01*
X249310Y208562D01*
X248814Y208893D01*
X248228Y209010D01*
X247643Y208893D01*
X247147Y208562D01*
X246815Y208066D01*
X246699Y207480D01*
X246780Y207075D01*
X246319Y206828D01*
X245519Y207629D01*
X245500Y207676D01*
X245428Y207749D01*
X245314Y207874D01*
X245238Y207968D01*
X245223Y207990D01*
X245216Y208001D01*
X245207Y208022D01*
X245199Y208029D01*
X245114Y208459D01*
X244782Y208956D01*
X244286Y209287D01*
X243701Y209403D01*
X243115Y209287D01*
X242619Y208956D01*
X242482Y208749D01*
X242178Y208772D01*
X241935Y208831D01*
X241633Y209284D01*
X241137Y209615D01*
X240551Y209732D01*
X240368Y209695D01*
X239955Y209651D01*
X239825Y210058D01*
X239761Y210378D01*
X239346Y211000D01*
X238043Y212303D01*
X237422Y212718D01*
X236689Y212864D01*
D02*
G37*
G36*
X412598Y109797D02*
X412013Y109681D01*
X411517Y109349D01*
X411186Y108853D01*
X411069Y108268D01*
X411186Y107682D01*
X411517Y107186D01*
X412013Y106855D01*
X412598Y106738D01*
X413184Y106855D01*
X413680Y107186D01*
X414011Y107682D01*
X414128Y108268D01*
X414011Y108853D01*
X413680Y109349D01*
X413184Y109681D01*
X412598Y109797D01*
D02*
G37*
%LPD*%
G36*
X244705Y207831D02*
X244717Y207792D01*
X244737Y207749D01*
X244766Y207700D01*
X244803Y207646D01*
X244902Y207522D01*
X245035Y207377D01*
X245113Y207297D01*
X244278Y206462D01*
X244198Y206540D01*
X243929Y206772D01*
X243875Y206809D01*
X243826Y206838D01*
X243782Y206858D01*
X243744Y206870D01*
X243711Y206874D01*
X244701Y207864D01*
X244705Y207831D01*
D02*
G37*
G36*
X248907Y206740D02*
X248889Y206704D01*
X248872Y206659D01*
X248858Y206604D01*
X248846Y206539D01*
X248829Y206382D01*
X248820Y206186D01*
X248819Y206073D01*
X247638D01*
X247637Y206186D01*
X247610Y206539D01*
X247598Y206604D01*
X247584Y206659D01*
X247568Y206704D01*
X247549Y206740D01*
X247528Y206766D01*
X248928D01*
X248907Y206740D01*
D02*
G37*
G36*
X257010Y180457D02*
Y164173D01*
X241668D01*
Y184124D01*
X253343D01*
X257010Y180457D01*
D02*
G37*
G36*
X373155Y114197D02*
X373350Y114065D01*
X373571Y113948D01*
X373818Y113847D01*
X374090Y113763D01*
X374388Y113695D01*
X374712Y113643D01*
X375061Y113606D01*
X375837Y113583D01*
X372914Y110659D01*
X372910Y111060D01*
X372853Y111784D01*
X372801Y112108D01*
X372733Y112406D01*
X372649Y112678D01*
X372548Y112925D01*
X372431Y113146D01*
X372299Y113341D01*
X372150Y113511D01*
X372985Y114346D01*
X373155Y114197D01*
D02*
G37*
G36*
X382912Y114008D02*
X383112Y113874D01*
X383334Y113762D01*
X383579Y113671D01*
X383847Y113600D01*
X384138Y113551D01*
X384452Y113523D01*
X384788Y113515D01*
X385148Y113529D01*
X385531Y113564D01*
X382926Y110353D01*
X382881Y110769D01*
X382757Y111516D01*
X382679Y111847D01*
X382591Y112150D01*
X382492Y112424D01*
X382382Y112670D01*
X382262Y112888D01*
X382131Y113077D01*
X381990Y113238D01*
X382736Y114162D01*
X382912Y114008D01*
D02*
G37*
D141*
X367402Y307366D02*
Y331378D01*
X366339Y306304D02*
X367402Y307366D01*
X366339Y282283D02*
Y306304D01*
X362598Y336181D02*
X367402Y331378D01*
X362598Y336181D02*
Y376850D01*
X377677Y391929D01*
X389961D01*
X217913Y230315D02*
X226969Y221260D01*
X212992Y230315D02*
X217913D01*
X210236Y233071D02*
X212992Y230315D01*
X210236Y233071D02*
Y236417D01*
X236614Y262795D01*
X294541D01*
X238577Y260039D02*
X295276D01*
X213380Y234842D02*
X238577Y260039D01*
X294541Y262795D02*
X359842Y328097D01*
Y379134D01*
X363976Y383268D01*
X295276Y260039D02*
X364567Y329331D01*
D143*
X232087Y209252D02*
X233784Y210949D01*
X232087Y160827D02*
Y209252D01*
X219291Y148031D02*
X232087Y160827D01*
X233784Y210949D02*
X236689D01*
X237992Y209646D01*
D144*
X240394Y150591D02*
Y208202D01*
X238189Y149803D02*
Y205315D01*
X235433Y208071D02*
X238189Y205315D01*
X240394Y150591D02*
X246488Y144496D01*
X238189Y149803D02*
X244488Y143504D01*
X246488Y137567D02*
Y144496D01*
X244488Y136614D02*
Y143504D01*
X255230Y128825D02*
X337349D01*
X254331Y126772D02*
X336221D01*
X246488Y137567D02*
X255230Y128825D01*
X337349D02*
X338881Y127293D01*
X336221Y126772D02*
X336417Y126575D01*
X244488Y136614D02*
X254331Y126772D01*
X338881Y126671D02*
Y127293D01*
Y126671D02*
X338976Y126575D01*
X336417Y126575D02*
X336417D01*
Y126575D02*
Y126575D01*
D146*
X258122Y151665D02*
Y180918D01*
X250681Y188359D02*
X258122Y180918D01*
X250681Y188359D02*
Y200894D01*
X259803Y150591D02*
Y181614D01*
X252362Y189055D02*
X259803Y181614D01*
X252362Y189055D02*
Y201590D01*
X248228Y205724D02*
X252362Y201590D01*
X252638Y143425D02*
X259803Y150591D01*
X252638Y138701D02*
Y143425D01*
Y138701D02*
X257209Y134130D01*
X250681Y144224D02*
X258122Y151665D01*
X250681Y138280D02*
Y144224D01*
X248228Y205724D02*
Y207480D01*
X243701Y207874D02*
X250681Y200894D01*
Y138280D02*
X256512Y132449D01*
X354047D01*
X375866Y110630D01*
X257209Y134130D02*
X354744D01*
X372141Y116732D01*
X384529Y111534D02*
X384962D01*
X379331Y116732D02*
X384529Y111534D01*
X372141Y116732D02*
X379331D01*
X384962Y111534D02*
X385866Y110630D01*
D188*
X428839Y139665D02*
D03*
D191*
X308661Y141850D02*
D03*
X298661D02*
D03*
X288661D02*
D03*
X278661D02*
D03*
X268661D02*
D03*
X238662D02*
D03*
X228661D02*
D03*
X218661D02*
D03*
X208662D02*
D03*
X198661D02*
D03*
X188662D02*
D03*
X178662D02*
D03*
X365866Y110630D02*
D03*
X375866D02*
D03*
X385866D02*
D03*
X212662Y331850D02*
D03*
X192661D02*
D03*
X182661D02*
D03*
X172661D02*
D03*
X162662D02*
D03*
X152662D02*
D03*
X142661D02*
D03*
X132661D02*
D03*
X202661D02*
D03*
X238661Y331850D02*
D03*
X248661D02*
D03*
X258661D02*
D03*
X268661D02*
D03*
X278661D02*
D03*
X288661D02*
D03*
X298661D02*
D03*
D192*
X258661Y141850D02*
D03*
X168661D02*
D03*
X395866Y110630D02*
D03*
X222661Y331850D02*
D03*
X308661Y331850D02*
D03*
D193*
X429921Y147835D02*
D03*
Y167520D02*
D03*
X430421Y270079D02*
D03*
Y289764D02*
D03*
Y250394D02*
D03*
X429921Y358268D02*
D03*
Y338583D02*
D03*
D194*
X430421Y230709D02*
D03*
D195*
X376447Y205945D02*
D03*
X372510Y205945D02*
D03*
X368573Y205945D02*
D03*
X364636Y205945D02*
D03*
X373819Y196024D02*
D03*
X369882Y196024D02*
D03*
X369882Y188150D02*
D03*
X311417Y258425D02*
D03*
X333032Y275748D02*
D03*
X361260D02*
D03*
X224921Y164803D02*
D03*
X227362Y162520D02*
D03*
Y164803D02*
D03*
X224921Y162520D02*
D03*
X365945Y192087D02*
D03*
X365945Y188150D02*
D03*
X365945Y196024D02*
D03*
X442913Y163977D02*
D03*
Y171851D02*
D03*
X435039Y179725D02*
D03*
Y187599D02*
D03*
Y195473D02*
D03*
Y203347D02*
D03*
Y211221D02*
D03*
X442913Y179725D02*
D03*
Y187599D02*
D03*
Y195473D02*
D03*
Y203347D02*
D03*
Y211221D02*
D03*
X450787Y163977D02*
D03*
Y171851D02*
D03*
Y179725D02*
D03*
Y187599D02*
D03*
Y195473D02*
D03*
Y203347D02*
D03*
Y211221D02*
D03*
Y321457D02*
D03*
Y313583D02*
D03*
Y305709D02*
D03*
Y297835D02*
D03*
Y289961D02*
D03*
Y282087D02*
D03*
Y274213D02*
D03*
Y266339D02*
D03*
Y258465D02*
D03*
Y250591D02*
D03*
Y219095D02*
D03*
Y226969D02*
D03*
Y234843D02*
D03*
Y242717D02*
D03*
X363071Y292008D02*
D03*
X285945Y291890D02*
D03*
X319724Y292008D02*
D03*
X202244Y235236D02*
D03*
X397638Y150000D02*
D03*
X396457Y137008D02*
D03*
X393701Y124803D02*
D03*
X396457Y134646D02*
D03*
X406693Y128937D02*
D03*
X402559Y145472D02*
D03*
X441142Y154724D02*
D03*
Y138976D02*
D03*
Y123228D02*
D03*
X433268Y138976D02*
D03*
Y131102D02*
D03*
Y123228D02*
D03*
X425394Y154724D02*
D03*
X417520Y131102D02*
D03*
Y146850D02*
D03*
X401378Y124803D02*
D03*
X393701Y134646D02*
D03*
X407874Y150000D02*
D03*
Y140157D02*
D03*
X393701Y137008D02*
D03*
X417520Y154724D02*
D03*
X425394Y123228D02*
D03*
Y131102D02*
D03*
X441142Y146850D02*
D03*
Y131102D02*
D03*
X433268Y154724D02*
D03*
X425394Y138976D02*
D03*
X417520Y123228D02*
D03*
Y138976D02*
D03*
X405709Y310827D02*
D03*
Y302953D02*
D03*
X397835Y318701D02*
D03*
Y310827D02*
D03*
X415748Y318701D02*
D03*
Y302953D02*
D03*
X405709Y318701D02*
D03*
X396260Y287598D02*
D03*
X415748Y310827D02*
D03*
Y295079D02*
D03*
Y287205D02*
D03*
X241220Y244370D02*
D03*
X241063Y235157D02*
D03*
X349252Y299213D02*
D03*
Y293898D02*
D03*
X320276Y307047D02*
D03*
X310039Y181850D02*
D03*
Y233465D02*
D03*
Y205000D02*
D03*
X276260Y227913D02*
D03*
X276102Y206181D02*
D03*
X344094Y350590D02*
D03*
X396366Y376535D02*
D03*
X418740Y376496D02*
D03*
X432677Y326850D02*
D03*
X403740Y326693D02*
D03*
X316339Y364134D02*
D03*
X266653Y366811D02*
D03*
X228150Y366378D02*
D03*
X181575Y365905D02*
D03*
X133228Y364134D02*
D03*
X350827Y307953D02*
D03*
X285945Y306653D02*
D03*
X247913Y305197D02*
D03*
X209528Y303740D02*
D03*
X206024Y123425D02*
D03*
X165945Y122520D02*
D03*
X161732Y210578D02*
D03*
X160197Y297126D02*
D03*
X160827Y254606D02*
D03*
X133976Y312205D02*
D03*
X133661Y276614D02*
D03*
X133976Y228976D02*
D03*
X134882Y184961D02*
D03*
X136063Y137008D02*
D03*
X292047Y194252D02*
D03*
X291890Y265551D02*
D03*
Y218071D02*
D03*
X294016Y242835D02*
D03*
X179488Y187323D02*
D03*
X196653Y187598D02*
D03*
X214467Y187480D02*
D03*
X246260Y175452D02*
D03*
X262874D02*
D03*
X281299D02*
D03*
X292835Y166220D02*
D03*
X312638D02*
D03*
X396654Y196850D02*
D03*
Y201575D02*
D03*
X401378Y196850D02*
D03*
Y201575D02*
D03*
X325394Y151969D02*
D03*
X367520Y342520D02*
D03*
Y338189D02*
D03*
X443465Y243740D02*
D03*
X443465Y247677D02*
D03*
X443465Y251614D02*
D03*
X443465Y255551D02*
D03*
X443465Y259488D02*
D03*
X443465Y263425D02*
D03*
X443465Y267362D02*
D03*
X443465Y271299D02*
D03*
X443465Y275236D02*
D03*
X443465Y279173D02*
D03*
X439528Y243740D02*
D03*
X439528Y247677D02*
D03*
X439528Y251614D02*
D03*
X439528Y255551D02*
D03*
X439528Y259488D02*
D03*
X439528Y263425D02*
D03*
X439528Y267362D02*
D03*
X439528Y271299D02*
D03*
X439528Y275236D02*
D03*
X439528Y279173D02*
D03*
X429331Y179173D02*
D03*
X429331Y183110D02*
D03*
X429331Y187047D02*
D03*
X429331Y190984D02*
D03*
X429331Y194921D02*
D03*
X429331Y198858D02*
D03*
X429331Y202795D02*
D03*
X429331Y206732D02*
D03*
X429331Y210669D02*
D03*
X429331Y214606D02*
D03*
X425394Y175236D02*
D03*
X425394Y179173D02*
D03*
X236850Y251181D02*
D03*
X229803Y245039D02*
D03*
X224882Y240197D02*
D03*
X199803Y253543D02*
D03*
X207874Y247087D02*
D03*
X203937Y247087D02*
D03*
X196063Y258898D02*
D03*
X196063Y262835D02*
D03*
X196063Y266772D02*
D03*
X196063Y270709D02*
D03*
X196063Y274646D02*
D03*
X196063Y278583D02*
D03*
X196063Y282520D02*
D03*
X200000Y282520D02*
D03*
X203937Y282520D02*
D03*
X207874Y282520D02*
D03*
X211811Y282520D02*
D03*
X215748Y282520D02*
D03*
X219685Y282520D02*
D03*
X223622Y282520D02*
D03*
X227559Y282520D02*
D03*
X231496Y282520D02*
D03*
X235433Y282520D02*
D03*
X246969Y276850D02*
D03*
Y271339D02*
D03*
X458661Y384449D02*
D03*
Y376575D02*
D03*
Y368701D02*
D03*
Y360827D02*
D03*
Y352953D02*
D03*
Y345079D02*
D03*
Y337205D02*
D03*
Y329331D02*
D03*
Y321457D02*
D03*
Y313583D02*
D03*
Y305709D02*
D03*
Y297835D02*
D03*
Y289961D02*
D03*
Y282087D02*
D03*
Y274213D02*
D03*
Y266339D02*
D03*
Y258465D02*
D03*
Y250591D02*
D03*
Y242717D02*
D03*
Y234843D02*
D03*
Y226969D02*
D03*
Y219095D02*
D03*
Y211221D02*
D03*
Y203347D02*
D03*
Y195473D02*
D03*
Y187599D02*
D03*
Y179725D02*
D03*
Y171851D02*
D03*
Y163977D02*
D03*
Y156103D02*
D03*
Y148228D02*
D03*
Y140354D02*
D03*
Y132480D02*
D03*
Y124606D02*
D03*
Y116732D02*
D03*
X445276Y107283D02*
D03*
X303543D02*
D03*
X295669D02*
D03*
X287795D02*
D03*
X279921D02*
D03*
X272047D02*
D03*
X264173D02*
D03*
X256299D02*
D03*
X248425D02*
D03*
X240551D02*
D03*
X232677D02*
D03*
X224803D02*
D03*
X216929D02*
D03*
X209055D02*
D03*
X201181D02*
D03*
X193307D02*
D03*
X185433D02*
D03*
X177559D02*
D03*
X169685D02*
D03*
X161811D02*
D03*
X153937D02*
D03*
X146063D02*
D03*
X138189D02*
D03*
X130315D02*
D03*
X122441D02*
D03*
X114567D02*
D03*
X445276Y393898D02*
D03*
X437402D02*
D03*
X421654D02*
D03*
X413780D02*
D03*
X358662D02*
D03*
X350787D02*
D03*
X342914D02*
D03*
X335039D02*
D03*
X327165D02*
D03*
X319291D02*
D03*
X311417D02*
D03*
X303543D02*
D03*
X295669D02*
D03*
X287795D02*
D03*
X279921D02*
D03*
X272047D02*
D03*
X264173D02*
D03*
X256299D02*
D03*
X248425D02*
D03*
X240551D02*
D03*
X232677D02*
D03*
X224803D02*
D03*
X216929D02*
D03*
X209055D02*
D03*
X201181D02*
D03*
X193307D02*
D03*
X185433D02*
D03*
X177559D02*
D03*
X169685D02*
D03*
X161811D02*
D03*
X153937D02*
D03*
X146063D02*
D03*
X138189D02*
D03*
X130315D02*
D03*
X122441D02*
D03*
X114567D02*
D03*
X105118Y384449D02*
D03*
Y376575D02*
D03*
Y368701D02*
D03*
Y360827D02*
D03*
Y352953D02*
D03*
Y345079D02*
D03*
Y337205D02*
D03*
Y329331D02*
D03*
Y321457D02*
D03*
Y313583D02*
D03*
Y305709D02*
D03*
Y297835D02*
D03*
Y289961D02*
D03*
Y282087D02*
D03*
Y274213D02*
D03*
Y266339D02*
D03*
Y258465D02*
D03*
Y250591D02*
D03*
Y242717D02*
D03*
Y234843D02*
D03*
Y226969D02*
D03*
Y219094D02*
D03*
Y211221D02*
D03*
Y203346D02*
D03*
Y195473D02*
D03*
Y187599D02*
D03*
Y179724D02*
D03*
Y171850D02*
D03*
Y163976D02*
D03*
Y156102D02*
D03*
Y148228D02*
D03*
Y140354D02*
D03*
Y132480D02*
D03*
Y124606D02*
D03*
Y116732D02*
D03*
X374488Y269724D02*
D03*
X374488Y265787D02*
D03*
X374488Y261850D02*
D03*
X374488Y257913D02*
D03*
X374488Y253976D02*
D03*
X374488Y250039D02*
D03*
X374488Y246102D02*
D03*
X374488Y238228D02*
D03*
X374488Y242165D02*
D03*
X386614Y119724D02*
D03*
X382677Y119724D02*
D03*
X378740Y119724D02*
D03*
X374803Y119724D02*
D03*
X361929Y119724D02*
D03*
X357992Y119724D02*
D03*
X391929Y270433D02*
D03*
X387992Y270433D02*
D03*
X384055Y270433D02*
D03*
X386811Y295748D02*
D03*
X369882Y301378D02*
D03*
X381693Y301417D02*
D03*
X375945Y301417D02*
D03*
X380118Y274370D02*
D03*
X384055Y274370D02*
D03*
X387992Y274370D02*
D03*
X391929Y274370D02*
D03*
Y289449D02*
D03*
X382362Y238228D02*
D03*
X382362Y242165D02*
D03*
X378425Y242165D02*
D03*
X378425Y238228D02*
D03*
X406772Y157638D02*
D03*
X402835Y157638D02*
D03*
X398898Y157638D02*
D03*
X406772Y161575D02*
D03*
X402835Y161575D02*
D03*
X398898Y161575D02*
D03*
X394961Y157638D02*
D03*
X394961Y161575D02*
D03*
X360197Y165039D02*
D03*
X360197Y161102D02*
D03*
X389764Y216811D02*
D03*
X385827Y216811D02*
D03*
X381890Y216811D02*
D03*
X384409Y177598D02*
D03*
X380472Y177598D02*
D03*
X376535Y177598D02*
D03*
X372598Y177598D02*
D03*
X425394Y218543D02*
D03*
X425394Y183110D02*
D03*
X425394Y187047D02*
D03*
X425394Y190984D02*
D03*
X425394Y194921D02*
D03*
X425394Y198858D02*
D03*
X425394Y202795D02*
D03*
X425394Y206732D02*
D03*
X425394Y210669D02*
D03*
X425394Y214606D02*
D03*
X405118Y178150D02*
D03*
X369882Y192087D02*
D03*
X362008Y188150D02*
D03*
X362008Y192087D02*
D03*
X358071Y188150D02*
D03*
X358071Y192087D02*
D03*
X354134Y184213D02*
D03*
X354134Y188150D02*
D03*
X354134Y192087D02*
D03*
X362008Y196024D02*
D03*
X358071Y196024D02*
D03*
X355118Y136221D02*
D03*
X348425D02*
D03*
X356102Y125984D02*
D03*
X351378D02*
D03*
X346850D02*
D03*
X352362Y111063D02*
D03*
X344488D02*
D03*
X336614D02*
D03*
X328740D02*
D03*
X320866D02*
D03*
X422547Y230709D02*
D03*
X427165Y237598D02*
D03*
X435039D02*
D03*
X427165Y221850D02*
D03*
X435039D02*
D03*
X343583Y184055D02*
D03*
X333268Y190157D02*
D03*
X342520Y198031D02*
D03*
X333268D02*
D03*
X324213Y182283D02*
D03*
Y190157D02*
D03*
Y198031D02*
D03*
X312795Y152559D02*
D03*
X292520D02*
D03*
X274606D02*
D03*
X391339Y225197D02*
D03*
X383465D02*
D03*
X375590Y217323D02*
D03*
Y225197D02*
D03*
X367717Y217323D02*
D03*
Y225197D02*
D03*
X361417Y217323D02*
D03*
Y225197D02*
D03*
Y233071D02*
D03*
X367717D02*
D03*
X375590D02*
D03*
X383465D02*
D03*
X442913Y221850D02*
D03*
Y229724D02*
D03*
Y237598D02*
D03*
X415748Y224606D02*
D03*
Y232480D02*
D03*
X397047Y221654D02*
D03*
X404921D02*
D03*
X397047Y229528D02*
D03*
X404921D02*
D03*
Y237402D02*
D03*
X397047D02*
D03*
Y245276D02*
D03*
X404921D02*
D03*
Y253150D02*
D03*
X415748Y240354D02*
D03*
Y248228D02*
D03*
Y256102D02*
D03*
Y263976D02*
D03*
Y271850D02*
D03*
X397047Y253150D02*
D03*
X415748Y279724D02*
D03*
X441535Y287008D02*
D03*
Y294882D02*
D03*
X425787Y302756D02*
D03*
X433661D02*
D03*
X441535D02*
D03*
X425787Y310630D02*
D03*
X433661D02*
D03*
X441535D02*
D03*
Y318504D02*
D03*
X433661D02*
D03*
X339370Y166535D02*
D03*
X339173Y151969D02*
D03*
X367323D02*
D03*
X380512D02*
D03*
X353937Y166535D02*
D03*
X325590D02*
D03*
X353937Y151969D02*
D03*
X401181Y178150D02*
D03*
X425787Y318504D02*
D03*
X391339Y233071D02*
D03*
X343583Y176181D02*
D03*
X333583D02*
D03*
X338976Y217126D02*
D03*
X329134Y217323D02*
D03*
X334252Y221654D02*
D03*
X324410Y221457D02*
D03*
X342520Y205906D02*
D03*
X333268D02*
D03*
X324213D02*
D03*
X342126Y221654D02*
D03*
X375590Y340354D02*
D03*
X363976Y383268D02*
D03*
X364567Y329331D02*
D03*
X213380Y234842D02*
D03*
X226969Y221260D02*
D03*
X389961Y391929D02*
D03*
X409449Y179528D02*
D03*
X366339Y282283D02*
D03*
X412598Y114961D02*
D03*
X386811Y202559D02*
D03*
Y197835D02*
D03*
X412598Y108268D02*
D03*
X256299Y250590D02*
D03*
X393406Y175197D02*
D03*
X405315Y189370D02*
D03*
X256299Y237992D02*
D03*
Y241142D02*
D03*
Y234842D02*
D03*
X240551Y208202D02*
D03*
X235433Y208071D02*
D03*
X237992Y209646D02*
D03*
Y218299D02*
D03*
X219291Y148031D02*
D03*
X248228Y207480D02*
D03*
X243701Y207874D02*
D03*
X338976Y126575D02*
D03*
X336417D02*
D03*
X245866Y219291D02*
D03*
X213386Y205906D02*
D03*
Y224016D02*
D03*
X377756Y291339D02*
D03*
X201575Y275590D02*
D03*
Y251378D02*
D03*
X191142Y305118D02*
D03*
X190748Y309252D02*
D03*
X190945Y312992D02*
D03*
X201969Y255709D02*
D03*
X212254Y274606D02*
D03*
X219980D02*
D03*
X231496Y274410D02*
D03*
X242913Y271457D02*
D03*
X225787Y274606D02*
D03*
X200787Y265748D02*
D03*
X215551Y256890D02*
D03*
X325590Y176378D02*
D03*
X353740Y202362D02*
D03*
X401181Y354921D02*
D03*
X376575Y351969D02*
D03*
Y355709D02*
D03*
X406102Y354921D02*
D03*
X390748Y349410D02*
D03*
X396457Y354921D02*
D03*
X401968Y265551D02*
D03*
X405118D02*
D03*
X401968Y268504D02*
D03*
X405118D02*
D03*
X387402Y289370D02*
D03*
X390748Y352362D02*
D03*
X387598D02*
D03*
Y349410D02*
D03*
X367520Y351969D02*
D03*
X367520Y355709D02*
D03*
X375590Y329528D02*
D03*
X377756Y281890D02*
D03*
Y287087D02*
D03*
Y297480D02*
D03*
X409449Y189567D02*
D03*
Y196260D02*
D03*
X372441Y130945D02*
D03*
X354134Y196024D02*
D03*
X328740Y136221D02*
D03*
X341929D02*
D03*
X335433D02*
D03*
D198*
X338287Y110925D02*
D03*
D200*
X400492Y137697D02*
D03*
D201*
X339961Y162500D02*
D03*
D202*
X326083Y152657D02*
D03*
D203*
X377067Y227559D02*
D03*
D204*
X369783Y224213D02*
D03*
D205*
X338583Y177165D02*
D03*
D206*
X333858Y201673D02*
D03*
D207*
X406496Y303150D02*
D03*
D208*
X434842Y301083D02*
D03*
D209*
X406496Y259350D02*
D03*
D210*
X420472Y230217D02*
D03*
M02*
